<svg width="557" height="418" viewBox="0 0 557 418" fill="none" xmlns="http://www.w3.org/2000/svg">
<path d="M66.5568 57.2379C74.8002 43.9576 19.9971 14.1188 -8.4348 0.859375V419H556.578C539.405 407.724 504.37 382.166 501.623 370.139C498.188 355.104 313.285 284.005 268.633 268.971C232.912 256.943 212.914 237.649 207.381 229.506C199.366 206.432 179.903 157.654 166.164 147.13C152.425 136.606 132.962 110.171 124.947 98.2689C102.049 90.1254 58.3135 70.5182 66.5568 57.2379Z" fill="url(#paint0_linear_88_728)"/>
<path d="M63.0248 175.514C34.7452 139.578 2.55841 116.301 -10 109.155V419H418.847C414.505 412.875 401.73 399.194 385.357 393.477C364.892 386.331 329.542 358.511 305.356 327.884C281.169 297.257 200.702 293.173 144.887 271.734C89.0719 250.295 98.3745 220.434 63.0248 175.514Z" fill="url(#paint1_linear_88_728)"/>
<path d="M93.4358 300.181C67.3058 294.037 14.1127 253.64 -9.21765 234.21V418.14H316.33L297.666 407.112L272.9 385.647C260.936 377.967 235.141 362.252 227.675 360.834C218.343 359.062 182.45 342.914 180.655 328.341C178.861 313.769 126.098 307.861 93.4358 300.181Z" fill="url(#paint2_linear_88_728)"/>
<defs>
<linearGradient id="paint0_linear_88_728" x1="384.086" y1="148.278" x2="221.746" y2="519.627" gradientUnits="userSpaceOnUse">
<stop stop-color="#575757"/>
<stop offset="0.0001" stop-color="#5C5C5C"/>
<stop offset="1" stop-color="#333333"/>
</linearGradient>
<linearGradient id="paint1_linear_88_728" x1="287.925" y1="218.393" x2="169.592" y2="495.65" gradientUnits="userSpaceOnUse">
<stop stop-color="#575757"/>
<stop offset="0.0001" stop-color="#5C5C5C"/>
<stop offset="1" stop-color="#333333"/>
</linearGradient>
<linearGradient id="paint2_linear_88_728" x1="216.944" y1="299.056" x2="158.516" y2="474.121" gradientUnits="userSpaceOnUse">
<stop stop-color="#575757"/>
<stop offset="0.0001" stop-color="#5C5C5C"/>
<stop offset="1" stop-color="#333333"/>
</linearGradient>
</defs>
</svg>
