<svg width="22" height="22" viewBox="0 0 22 22" fill="none" xmlns="http://www.w3.org/2000/svg">
<path fill-rule="evenodd" clip-rule="evenodd" d="M2.49999 11C2.49999 9.31886 2.99851 7.67547 3.9325 6.27765C4.86649 4.87984 6.19401 3.79037 7.74718 3.14702C9.30035 2.50368 11.0094 2.33535 12.6583 2.66333C14.3071 2.9913 15.8217 3.80085 17.0104 4.98959C18.1991 6.17834 19.0087 7.69289 19.3367 9.34173C19.6646 10.9906 19.4963 12.6996 18.853 14.2528C18.2096 15.806 17.1202 17.1335 15.7223 18.0675C14.3245 19.0015 12.6811 19.5 11 19.5C9.39184 19.5029 7.81622 19.047 6.45799 18.186C6.33717 18.1096 6.20137 18.0599 6.05975 18.0404C5.91812 18.021 5.77396 18.0321 5.63699 18.073L2.75699 18.932L3.84199 16.395C3.90506 16.2473 3.93162 16.0866 3.91944 15.9264C3.90725 15.7663 3.85668 15.6115 3.77199 15.475C2.93792 14.1316 2.49724 12.5813 2.49999 11ZM11 0.5C5.20099 0.5 0.49999 5.201 0.49999 11C0.49999 12.838 0.97299 14.568 1.80499 16.073L0.0799899 20.107C0.00532966 20.2817 -0.0179958 20.4741 0.0127452 20.6617C0.0434863 20.8492 0.127021 21.0241 0.253567 21.1658C0.380113 21.3076 0.54443 21.4104 0.727276 21.4621C0.910121 21.5139 1.10392 21.5124 1.28599 21.458L5.78599 20.116C7.37302 21.0255 9.17085 21.5027 11 21.5C16.799 21.5 21.5 16.799 21.5 11C21.5 5.201 16.799 0.5 11 0.5ZM13.293 13.182L11.978 14.108C11.2535 13.6912 10.5882 13.1789 9.99999 12.585C9.36853 11.9544 8.82253 11.2437 8.37599 10.471L9.21099 9.762C9.38498 9.61438 9.50325 9.4117 9.54618 9.1876C9.58911 8.96351 9.55411 8.73147 9.44699 8.53L8.38299 6.53C8.31218 6.39718 8.21231 6.28205 8.09081 6.1932C7.96931 6.10436 7.82932 6.04408 7.68128 6.01688C7.53324 5.98967 7.38097 5.99624 7.23582 6.03608C7.09067 6.07593 6.95639 6.14803 6.84299 6.247L6.52699 6.522C5.76799 7.184 5.31899 8.272 5.69099 9.374C6.2895 11.1171 7.2799 12.6997 8.58599 14C10.399 15.813 12.241 16.527 13.319 16.805C14.187 17.028 15.008 16.729 15.587 16.257L16.178 15.775C16.3026 15.6734 16.4009 15.5432 16.4645 15.3956C16.5281 15.2479 16.5551 15.0871 16.5433 14.9268C16.5316 14.7664 16.4813 14.6113 16.3968 14.4745C16.3123 14.3377 16.1961 14.2233 16.058 14.141L14.38 13.141C14.2141 13.042 14.023 12.9932 13.8299 13.0004C13.6368 13.0077 13.45 13.0708 13.292 13.182H13.293Z" fill="white"/>
</svg>
