<svg width="24" height="24" viewBox="0 0 24 24" fill="none" xmlns="http://www.w3.org/2000/svg">
<path fill-rule="evenodd" clip-rule="evenodd" d="M12 5.00001C10.6583 5.00035 9.34499 5.38628 8.2164 6.11183C7.08781 6.83738 6.19151 7.87198 5.63422 9.09246C5.07693 10.3129 4.88213 11.6679 5.07301 12.9959C5.26389 14.3239 5.83242 15.5692 6.71089 16.5833C7.58936 17.5974 8.74077 18.3377 10.028 18.716C11.3153 19.0943 12.6841 19.0947 13.9716 18.7171C15.2591 18.3396 16.4109 17.6 17.29 16.5864C18.1691 15.5728 18.7383 14.3279 18.93 13H13C12.7348 13 12.4804 12.8947 12.2929 12.7071C12.1054 12.5196 12 12.2652 12 12C12 11.7348 12.1054 11.4804 12.2929 11.2929C12.4804 11.1054 12.7348 11 13 11H20C20.2652 11 20.5196 11.1054 20.7071 11.2929C20.8947 11.4804 21 11.7348 21 12C20.9998 14.0414 20.3056 16.0221 19.0313 17.617C17.7571 19.2118 15.9785 20.3261 13.9875 20.7769C11.9964 21.2277 9.91133 20.9882 8.07436 20.0978C6.23738 19.2074 4.7577 17.7189 3.87817 15.8767C2.99864 14.0345 2.77154 11.948 3.23412 9.95967C3.69671 7.97136 4.8215 6.19939 6.42389 4.9346C8.02627 3.66981 10.011 2.98735 12.0524 2.99924C14.0938 3.01112 16.0705 3.71665 17.658 5.00001C17.8642 5.16683 17.9957 5.40874 18.0236 5.6725C18.0514 5.93627 17.9733 6.2003 17.8065 6.40651C17.6397 6.61272 17.3978 6.74421 17.134 6.77206C16.8702 6.79991 16.6062 6.72183 16.4 6.55501C15.1557 5.54628 13.6018 4.99712 12 5.00001Z" fill="white"/>
</svg>
