<svg width="1150" height="510" viewBox="0 0 1150 510" fill="none" xmlns="http://www.w3.org/2000/svg">
<g clip-path="url(#clip0_88_642)">
<path d="M1150 207.099C1150 208.132 1136.56 174.045 1070.66 161.651C1070.66 161.651 1046.11 156.744 1012 167.848C1012 167.848 992.101 173.013 986.157 172.754C986.157 172.754 968.843 155.711 959.539 146.673C959.539 146.673 969.36 164.233 971.685 168.881C974.011 173.529 976.854 177.919 972.461 186.182C972.461 186.182 965.742 201.418 964.191 204.258C964.191 204.258 975.303 196.511 979.955 188.764C981.764 185.408 986.416 176.628 988.483 176.628C990.551 176.628 1002.44 177.661 1024.92 186.699C1120.54 228.015 1150 208.906 1150 207.099Z" fill="#231F20" fill-opacity="0.1"/>
<path d="M1002.7 92.7039C1002.7 92.9621 991.067 71.271 932.921 74.3697C932.921 74.3697 911.214 75.1444 880.978 88.8305C880.978 88.8305 863.146 95.8026 857.978 96.3191C857.978 96.3191 842.73 85.4735 834.461 79.5343C834.461 79.5343 842.989 91.9292 845.056 95.2862C847.124 98.6431 849.708 101.484 845.831 108.456C845.831 108.456 839.888 121.109 838.337 123.691C838.337 123.691 848.157 116.203 852.292 109.489C854.101 106.648 857.978 99.1596 860.045 98.9014C861.854 98.6431 872.449 97.6102 892.348 101.225C976.596 117.494 1002.96 93.7368 1002.7 92.7039Z" fill="#231F20" fill-opacity="0.1"/>
<path d="M878.91 16.0101C878.91 15.7519 867.281 -1.8076 796.989 1.29114C796.989 1.54937 770.888 1.54937 732.899 14.9772C732.899 14.9772 710.933 21.6911 704.472 21.9494C704.472 21.9494 687.416 8.26329 678.112 0C678.112 0 687.157 15.7519 689.225 19.8835C691.292 24.0152 694.135 27.6304 688.708 35.3772C688.708 35.3772 680.18 49.838 678.112 52.6785C678.112 52.6785 690.775 44.4152 696.461 36.9266C698.787 33.8279 704.472 25.3063 706.798 25.3063C709.124 25.0481 721.787 24.7899 745.045 28.9215C844.281 44.9316 878.91 15.4937 878.91 16.0101Z" fill="#231F20" fill-opacity="0.1"/>
<path d="M887.955 178.694C887.955 178.952 877.618 155.453 819.472 163.717C819.472 163.717 797.764 166.299 767.011 184.633C767.011 184.633 748.921 193.929 743.753 194.704C743.753 194.704 729.281 182.567 721.528 175.595C721.528 175.595 729.281 190.056 731.09 193.929C732.899 197.803 735.225 201.16 731.09 209.681C731.09 209.681 724.371 224.917 722.82 227.757C722.82 227.757 733.157 218.719 737.551 210.714C739.36 207.357 743.753 198.319 745.82 197.803C747.629 197.544 758.225 195.737 777.607 198.577C860.303 211.747 887.955 179.21 887.955 178.694Z" fill="#231F20" fill-opacity="0.1"/>
<path d="M496.697 359.711C496.697 359.453 486.618 340.086 428.73 352.997C428.73 352.997 407.281 357.646 376.27 374.43C376.27 374.43 358.18 382.694 353.011 382.952C353.011 382.952 338.539 371.332 330.787 364.36C330.787 364.36 338.539 378.304 340.348 381.919C342.157 385.534 344.483 388.633 340.09 395.605C340.09 395.605 333.371 408 331.82 410.066C331.82 410.066 342.157 403.352 346.551 396.638C348.36 393.798 353.011 386.051 354.82 385.792C356.629 385.534 367.225 384.501 386.607 387.084C469.303 397.671 496.697 359.97 496.697 359.711Z" fill="#231F20" fill-opacity="0.1"/>
<path d="M223.798 394.314C223.798 393.539 211.135 371.332 137.742 363.843C137.742 363.843 110.348 360.744 71.0674 366.167C71.0674 366.167 48.0674 367.2 41.6067 364.876C41.6067 365.134 23.2584 341.119 13.1798 326.142C13.1798 326.142 23.2584 350.157 25.3258 355.838C27.6517 361.777 30.7528 367.458 25.3258 374.689C25.3258 374.689 16.7977 388.375 14.7303 390.699C14.7303 390.699 27.9101 386.567 33.5955 379.853C35.9213 377.013 41.6067 369.008 43.9326 369.524C46.2584 370.041 59.6966 374.947 84.5056 387.6C189.427 435.372 223.798 392.248 223.798 394.314Z" fill="#231F20" fill-opacity="0.1"/>
<path d="M426.663 487.018C426.663 487.018 417.101 471.008 362.056 476.172C362.056 476.172 341.64 477.98 312.18 487.792C312.18 487.792 294.865 492.44 289.955 492.44C289.955 492.44 276.517 483.661 269.022 478.238C269.022 478.238 276.258 488.567 277.809 490.891C279.36 493.473 281.685 495.797 277.551 500.446C277.551 500.446 271.09 508.709 269.539 510C269.539 510 279.36 505.868 283.753 501.478C285.562 499.671 289.955 494.506 291.764 494.506C293.573 494.506 303.652 494.248 322 497.347C400.045 510.775 426.663 487.792 426.663 487.018Z" fill="#231F20" fill-opacity="0.1"/>
<path d="M667.775 291.023C667.775 291.023 661.831 278.37 628.753 286.891C628.753 286.891 616.348 289.99 598.775 301.868C598.775 301.868 588.438 307.808 585.596 308.582C585.596 308.582 577.326 301.868 572.933 297.737C572.933 297.737 577.326 306.258 578.36 308.324C579.393 310.648 580.685 312.456 578.36 317.362C578.36 317.362 574.483 326.142 573.708 327.691C573.708 327.691 579.652 322.527 582.236 317.62C583.27 315.555 585.854 310.39 586.888 309.874C587.921 309.615 593.865 308.324 605.236 309.357C652.011 314.522 667.775 291.023 667.775 291.023Z" fill="#231F20" fill-opacity="0.1"/>
<path d="M683.539 70.2379C683.539 70.2379 677.596 59.3923 644.258 64.5569C644.258 64.5569 631.854 66.1062 614.023 75.9189C614.023 75.9189 603.685 80.8252 600.584 81.0835C600.584 81.0835 592.315 73.8531 587.663 69.4632C587.663 69.4632 592.056 78.243 593.09 80.3088C594.124 82.6328 595.416 84.4404 593.09 89.0885C593.09 89.0885 589.214 97.3518 588.438 98.9012C588.438 98.9012 594.382 93.9949 596.966 89.605C598 87.7974 600.584 82.8911 601.618 82.6328C602.652 82.3746 608.854 81.8581 619.966 83.4075C667.775 90.1214 683.539 69.9797 683.539 70.2379Z" fill="#231F20" fill-opacity="0.1"/>
<path d="M97.1685 209.681C97.1685 209.423 91.2247 194.446 57.3708 187.732C57.3708 187.732 44.7079 185.149 26.618 187.473C26.618 187.473 16.0225 187.732 12.9213 186.699C12.9213 186.699 4.39325 175.079 -0.25843 168.623C-0.25843 168.623 4.39325 179.468 5.42696 182.309C6.46067 185.149 8.01123 187.732 5.42696 191.347C5.42696 191.347 1.55056 197.803 0.51685 198.577C0.51685 198.577 6.46067 197.028 9.30337 193.929C10.3371 192.638 12.9213 188.765 14.2135 189.023C15.2472 189.281 21.4494 191.605 32.8202 198.835C81.4045 228.532 97.1685 209.423 97.1685 209.681Z" fill="#231F20" fill-opacity="0.1"/>
<path d="M432.09 215.878C432.09 215.878 427.18 205.033 399.528 210.456C399.528 210.456 389.191 212.263 374.461 221.559C374.461 221.559 365.933 226.208 363.348 226.208C363.348 226.208 356.371 219.235 352.753 215.104C352.753 215.104 356.629 223.367 357.405 225.433C358.18 227.499 359.472 229.565 357.405 233.696C357.405 233.696 354.303 241.185 353.528 242.476C353.528 242.476 358.438 238.344 360.506 234.213C361.281 232.663 363.607 228.015 364.382 227.757C365.157 227.499 370.326 227.24 379.629 228.79C419.169 236.02 432.09 215.62 432.09 215.878Z" fill="#231F20" fill-opacity="0.1"/>
<path d="M341.64 441.57C341.64 441.57 336.73 433.565 309.079 436.147C309.079 436.147 298.742 437.18 284.011 442.603C284.011 442.603 275.225 445.185 272.899 445.185C272.899 445.185 265.921 440.02 262.303 436.922C262.303 436.922 265.921 442.861 266.697 444.41C267.472 445.96 268.764 447.251 266.697 450.091C266.697 450.091 263.337 454.998 262.562 455.772C262.562 455.772 267.472 453.19 269.798 450.608C270.573 449.575 272.899 446.476 273.674 446.476C274.449 446.476 279.618 446.476 288.921 448.025C328.461 455.256 341.64 441.57 341.64 441.57Z" fill="#231F20" fill-opacity="0.1"/>
<path d="M936.022 361.002C936.022 361.002 929.562 343.443 894.674 345.509C894.674 345.509 881.753 346.025 863.146 357.129C863.146 357.129 852.292 362.294 849.191 362.552C849.191 362.552 840.404 351.964 835.753 346.025C835.753 346.025 840.663 357.646 841.697 360.744C842.73 363.843 844.281 366.683 841.697 372.365C841.697 372.365 837.82 382.952 836.786 384.759C836.786 384.759 842.989 379.337 845.573 373.656C846.607 371.332 849.191 365.134 850.483 364.876C851.517 364.876 857.978 364.618 869.607 368.749C919.742 386.051 936.022 361.002 936.022 361.002Z" fill="#231F20" fill-opacity="0.1"/>
<path d="M1029.06 288.44C1029.06 288.44 1024.15 275.271 995.977 272.947C995.977 272.947 985.64 271.914 970.652 278.37C970.652 278.37 962.124 281.21 959.539 280.952C959.539 280.952 952.562 272.43 948.685 267.782C948.685 267.782 952.562 276.82 953.337 279.144C954.112 281.468 955.404 283.534 953.337 287.666C953.337 287.666 950.236 295.154 949.461 296.446C949.461 296.446 954.371 292.83 956.438 288.957C957.214 287.408 959.539 283.018 960.315 283.018C961.09 283.018 966.258 283.534 975.562 287.408C1015.88 303.934 1029.06 288.44 1029.06 288.44Z" fill="#231F20" fill-opacity="0.1"/>
<path d="M264.371 155.195C264.371 154.937 254.292 129.114 199.247 130.147C199.247 129.889 178.831 130.663 149.371 143.833C149.371 143.833 132.315 149.514 127.404 148.739C127.404 148.739 113.449 130.405 105.955 119.818C105.955 119.818 113.708 139.185 115.258 144.091C117.067 148.997 119.393 153.645 115.258 161.392C115.258 161.392 109.056 175.337 107.506 177.661C107.506 177.661 117.326 171.721 121.461 164.491C123.27 161.392 127.404 152.613 129.213 152.871C131.022 152.871 141.101 154.42 159.708 162.683C238.787 197.286 264.371 154.678 264.371 155.195Z" fill="#231F20" fill-opacity="0.1"/>
<path d="M865.989 300.061C865.989 300.319 855.393 272.947 797.506 282.243C797.506 282.243 775.798 285.342 745.045 305.225C745.045 305.225 726.955 315.038 721.786 315.813C721.786 315.813 707.315 301.868 699.562 294.121C699.562 294.121 707.573 310.39 709.124 314.78C710.933 319.17 713.258 323.043 709.124 332.081C709.124 332.081 702.405 348.349 700.854 351.448C700.854 351.448 711.191 342.152 715.584 333.63C717.393 330.015 721.787 320.202 723.596 319.686C725.405 319.428 736 317.878 755.382 321.752C838.596 339.828 865.989 300.577 865.989 300.061Z" fill="#231F20" fill-opacity="0.1"/>
<path d="M719.719 124.466C719.719 124.466 710.933 107.681 660.539 118.268C660.539 118.268 641.674 121.883 615.056 138.668C615.056 138.668 599.292 147.19 594.899 147.965C594.899 147.965 582.236 137.635 575.517 131.18C575.517 131.18 582.236 144.091 583.787 147.448C585.337 150.805 587.404 153.646 583.787 161.134C583.787 161.134 578.101 174.304 576.551 176.886C576.551 176.886 585.337 168.881 589.213 161.909C590.764 159.068 594.64 151.063 596.191 150.547C597.742 150.03 607.045 148.481 623.843 150.03C695.944 155.97 719.719 124.208 719.719 124.466Z" fill="#231F20" fill-opacity="0.1"/>
<path d="M540.888 100.192C540.888 100.192 528.483 73.3367 458.708 82.6329C458.708 82.6329 432.607 85.4734 395.652 108.714C395.652 108.714 373.944 120.076 367.742 120.334C367.742 120.334 350.169 99.676 340.607 86.7646C340.607 86.7646 350.427 111.296 352.494 117.235C354.562 123.433 357.663 128.856 352.494 140.218C352.494 140.218 344.483 160.618 342.674 164.491C342.674 164.491 355.079 153.646 360.247 142.8C362.315 138.41 367.742 125.757 370.067 125.499C372.393 125.241 385.056 124.724 408.573 130.405C508.326 151.063 540.888 98.6431 540.888 100.192Z" fill="#231F20" fill-opacity="0.1"/>
<path d="M317.348 278.111C317.348 277.595 303.393 248.415 224.315 251.256C224.315 250.997 194.854 252.289 152.73 266.749C152.73 267.008 127.921 272.43 120.944 270.623C120.944 270.623 101.045 245.833 90.191 230.856C90.191 230.856 101.045 256.678 103.371 263.134C105.697 269.59 109.056 275.787 103.371 284.825C103.371 284.825 94.0674 301.352 92 303.934C92 303.934 106.213 298.253 112.157 289.473C114.742 286.116 120.685 275.529 123.27 276.046C125.854 276.304 140.326 279.919 166.944 291.023C280.393 334.922 317.09 276.304 317.348 278.111Z" fill="#231F20" fill-opacity="0.1"/>
<path d="M562.595 263.651C562.595 263.651 552.775 243.767 497.213 258.486C497.213 258.486 476.539 263.651 447.079 283.018C447.079 283.018 429.764 292.572 424.854 293.347C424.854 293.347 410.899 281.468 403.405 274.238C403.405 274.238 410.899 289.215 412.708 292.83C414.517 296.704 416.843 300.061 412.708 307.808C412.708 307.808 406.247 322.01 404.697 324.334C404.697 324.334 414.517 316.071 418.91 308.582C420.719 305.484 424.854 296.704 426.663 296.187C428.472 295.671 438.551 294.122 457.157 295.929C536.494 303.676 562.595 263.651 562.595 263.651Z" fill="#231F20" fill-opacity="0.1"/>
<path d="M179.865 472.557C179.865 472.557 172.629 460.937 131.022 458.613C131.022 458.613 115.517 457.58 93.2921 463.003C93.2921 463.003 80.3708 465.327 76.4944 464.81C76.4944 464.81 66.1573 454.481 60.4719 447.767C60.4719 447.767 66.1573 459.129 67.4494 461.711C68.7416 464.552 70.5506 467.134 67.4494 471.266C67.4494 471.266 62.5393 479.271 61.5056 480.562C61.5056 480.562 69 476.947 72.1011 473.073C73.3933 471.524 76.7528 466.876 78.0449 466.876C79.3371 466.876 87.0899 468.167 100.787 472.815C159.966 490.891 179.865 471.782 179.865 472.557Z" fill="#231F20" fill-opacity="0.1"/>
<path d="M737.809 411.615C737.809 411.615 723.854 378.82 651.236 394.83C651.236 394.572 624.36 400.77 586.371 424.268C586.371 424.268 564.146 435.63 557.685 436.405C557.685 436.405 539.079 421.17 529 412.906C529 412.906 539.337 430.466 541.921 435.114C544.247 439.762 547.607 443.894 542.438 453.448C542.438 453.448 534.685 470.491 532.618 473.332C532.618 473.332 545.281 464.294 550.449 454.998C552.775 451.124 557.944 440.537 560.27 440.02C562.596 439.762 575.775 437.955 600.326 442.344C705.247 464.294 738.067 412.906 737.809 411.615Z" fill="#231F20" fill-opacity="0.1"/>
</g>
<defs>
<clipPath id="clip0_88_642">
<rect width="1150" height="510" fill="white"/>
</clipPath>
</defs>
</svg>
