<svg width="1366" height="915" viewBox="0 0 1366 915" fill="none" xmlns="http://www.w3.org/2000/svg">
<g clip-path="url(#clip0_88_690)">
<path d="M42.8328 490.673C82.5113 520.538 -32.7166 510.115 -32.7166 510.115C-32.7166 510.115 90.7276 553.009 195.134 526.15C186.918 532.965 177.098 539.179 177.098 539.179C177.098 539.179 204.152 537.174 222.188 517.331C222.789 517.13 223.59 516.73 224.392 516.529C241.626 513.322 254.251 509.113 261.064 506.307C262.267 508.111 264.271 509.514 265.874 509.714C275.092 510.716 268.68 503.3 268.68 503.3C268.68 503.3 275.693 497.287 267.678 496.886C265.273 496.686 263.67 497.688 262.467 499.091C251.245 488.668 239.221 480.45 226.797 474.036C128.001 409.896 -24.9011 427.935 -24.9011 427.935C-24.9011 427.935 91.3287 438.759 45.438 461.208C11.571 443.77 -35.5222 450.986 -35.5222 450.986C-35.5222 450.986 -6.46469 465.818 -0.252399 472.633C-0.252399 472.633 -21.6948 484.659 -38.7285 487.866C-39.5301 487.866 4.35671 501.095 42.8328 490.673Z" fill="#231F20" fill-opacity="0.1"/>
<path d="M1540.6 97.8138C1540.6 97.8138 1543.4 92.8029 1538.59 94.206C1537.19 94.6068 1536.39 95.609 1535.99 96.6112C1527.17 93.0033 1518.55 90.9989 1509.93 89.9968C1438.59 74.563 1354.03 118.659 1354.03 118.659C1354.03 118.659 1423.76 99.4173 1402.12 122.468C1378.67 119.862 1353.02 134.494 1353.02 134.494C1353.02 134.494 1373.06 136.699 1378.27 139.305C1378.27 139.305 1368.45 151.13 1359.24 156.542C1359.24 156.542 1387.49 154.538 1407.53 140.106C1437.19 148.725 1368.05 167.967 1368.05 167.967C1368.05 167.967 1449.01 165.762 1503.52 127.278C1500.32 133.091 1495.91 138.703 1495.91 138.703C1495.91 138.703 1511.14 131.487 1517.15 116.254C1517.55 115.853 1517.75 115.653 1518.15 115.252C1527.57 109.64 1533.78 104.428 1537.19 101.221C1538.19 102.023 1539.79 102.424 1540.8 102.223C1546.01 100.62 1540.6 97.8138 1540.6 97.8138Z" fill="#231F20" fill-opacity="0.1"/>
<path d="M168.682 740.018C170.686 744.828 182.91 742.824 189.323 741.02C200.144 738.013 205.755 735.407 205.955 734.205C206.557 734.004 207.158 734.004 207.559 733.804H207.759C210.565 733.002 213.37 732.2 216.176 731.198C216.376 731.198 216.576 730.998 216.576 730.998C217.779 730.597 219.182 729.996 220.384 729.394C221.586 728.793 222.789 728.392 223.991 727.791C224.192 727.791 224.392 727.59 224.592 727.59C225.594 727.19 226.396 726.588 227.398 726.187C227.598 725.987 227.799 725.987 227.999 725.786C229.001 725.185 230.003 724.584 231.005 724.183C232.007 723.582 233.209 722.98 234.211 722.179L234.412 721.978C235.213 721.377 236.215 720.776 237.017 720.174C237.217 719.974 237.418 719.974 237.618 719.773C238.42 719.172 239.221 718.571 240.023 717.969C240.023 717.969 240.223 717.969 240.223 717.769C241.025 717.168 242.027 716.366 242.828 715.765C242.828 715.765 242.828 715.765 243.029 715.765C243.83 715.163 244.432 714.562 245.233 713.961C245.434 713.76 245.434 713.76 245.634 713.56C246.235 712.958 246.836 712.558 247.438 711.956L247.638 711.756C248.239 711.155 248.84 710.553 249.442 709.952C250.043 709.351 250.443 708.95 250.844 708.348C251.045 708.148 251.045 708.148 251.245 707.948C251.646 707.547 252.047 707.146 252.247 706.745C252.247 706.544 252.447 706.544 252.447 706.344C252.848 705.943 253.249 705.342 253.449 704.941C253.449 704.941 253.449 704.941 253.449 704.74C253.65 704.34 254.051 703.939 254.251 703.538C254.251 703.337 254.451 703.337 254.451 703.137C254.652 702.937 254.652 702.536 254.852 702.335C254.852 702.335 254.852 702.135 255.053 702.135C255.253 701.734 255.253 701.533 255.253 701.333C255.253 701.133 255.253 700.932 255.253 700.531V700.331V700.13C255.253 699.93 255.253 699.93 255.253 699.73C255.253 699.529 255.053 699.329 255.053 699.128V698.928V698.727C255.053 698.527 254.852 698.326 254.852 697.926C254.852 697.725 254.652 697.725 254.652 697.525V697.324C254.451 697.124 254.451 696.923 254.251 696.723C254.251 696.523 254.051 696.523 254.051 696.322C253.85 696.122 253.85 695.921 253.65 695.721V695.52C253.65 695.52 253.65 695.32 253.449 695.32C253.449 695.32 253.449 695.119 253.249 695.119C253.049 694.719 252.848 694.318 252.447 693.917C252.447 693.917 252.447 693.716 252.247 693.716C252.047 693.316 251.646 692.714 251.245 692.313C242.428 679.285 220.985 658.439 193.731 655.633C193.531 655.633 193.33 655.633 193.13 655.633C192.729 655.633 192.529 655.633 192.329 655.633C190.926 655.433 189.323 655.433 187.92 655.232C187.519 655.232 187.319 655.232 186.918 655.232C183.912 655.032 180.906 654.831 178.1 654.831C177.9 654.831 177.7 654.831 177.7 654.831C176.698 654.831 175.696 654.831 174.894 654.831C174.493 654.831 174.293 654.831 173.892 654.831C173.291 654.831 172.489 654.831 171.888 654.831C170.285 654.831 168.882 654.831 167.279 654.831C166.678 654.831 166.277 654.831 165.876 654.831C165.475 654.831 165.075 654.831 164.473 654.831C163.872 654.831 163.471 654.831 162.87 655.032C162.269 655.032 161.668 655.032 160.866 655.232C160.465 655.232 160.265 655.232 159.864 655.232C158.862 655.433 157.86 655.433 156.858 655.633H156.658C154.854 655.834 153.051 656.234 151.247 656.635C150.446 656.836 149.644 657.036 149.043 657.237C149.644 657.638 150.245 657.838 150.646 658.239C151.648 658.84 152.65 659.441 153.452 660.243C153.852 660.644 154.253 660.845 154.654 661.245C154.854 661.446 155.055 661.646 155.456 661.847C155.856 662.248 156.057 662.448 156.458 662.849C156.658 663.049 157.059 663.45 157.259 663.651C157.66 664.052 157.86 664.252 158.261 664.653C158.462 664.853 158.662 665.254 159.063 665.455C159.463 665.855 159.664 666.256 159.864 666.457C160.065 666.657 160.265 667.058 160.465 667.259C160.666 667.659 161.067 668.06 161.267 668.461C161.467 668.862 161.668 669.063 161.868 669.463C162.069 669.864 162.469 670.265 162.67 670.666C162.87 671.067 163.071 671.267 163.271 671.668C163.471 671.869 163.471 672.069 163.672 672.47L162.069 680.287C159.864 679.084 157.259 678.283 154.654 678.082C151.247 677.681 148.241 677.681 145.436 678.082C143.231 678.283 141.227 678.684 139.424 679.285C138.622 679.686 137.821 679.886 137.019 680.287C137.019 680.287 136.819 680.287 136.819 680.487C136.218 680.888 135.616 681.289 135.015 681.69C135.015 681.69 135.015 681.69 134.815 681.69C134.214 682.091 133.813 682.692 133.412 683.294C133.412 683.494 133.212 683.494 133.212 683.694C132.811 684.296 132.41 684.897 132.21 685.498C132.21 685.498 132.21 685.498 132.21 685.699C131.809 686.3 131.608 687.102 131.408 687.703C131.408 687.904 131.408 688.104 131.208 688.305C131.007 689.106 130.807 689.908 130.807 690.71C130.807 691.512 130.807 692.313 130.807 693.115C130.807 693.315 130.807 693.516 130.807 693.716C130.807 694.518 131.007 695.119 131.208 695.921V696.122C131.408 696.723 131.608 697.525 132.009 698.126C132.009 698.326 132.21 698.326 132.21 698.527C132.61 699.128 133.011 699.73 133.412 700.331C133.813 700.932 134.414 701.533 135.015 701.934C135.015 701.934 135.015 701.934 135.216 702.135C138.823 705.141 144.434 706.945 152.049 707.547C153.452 707.747 155.055 707.547 156.257 707.547L153.452 721.176C150.446 723.582 147.239 725.386 143.632 726.789C144.835 727.39 146.037 727.791 147.239 728.392C147.44 728.392 147.44 728.392 147.64 728.593C149.844 729.394 152.45 730.397 155.055 730.998C155.255 730.998 155.255 730.998 155.456 730.998C157.66 731.599 160.065 732.201 162.469 732.802C162.67 732.802 163.071 733.002 163.271 733.002C164.473 733.203 165.475 733.403 166.678 733.604H166.878C167.079 733.604 167.279 733.604 167.479 733.804C168.481 734.004 169.684 734.205 170.886 734.405C171.087 734.405 171.487 734.405 171.688 734.606C172.69 734.806 173.692 735.007 174.894 735.007C170.686 736.41 168.281 738.615 168.682 740.018Z" fill="#231F20" fill-opacity="0.1"/>
<path d="M946.019 432.546C948.224 430.541 950.228 428.537 952.231 426.332C952.432 426.131 952.432 426.132 952.632 425.931C953.434 424.929 954.235 423.927 955.037 422.924L955.237 422.724C956.039 421.722 956.841 420.72 957.442 419.717C957.642 419.517 957.843 419.317 957.843 419.116C958.444 418.314 959.045 417.513 959.446 416.711C959.646 416.51 959.847 416.31 959.847 415.909C960.448 414.907 961.049 414.105 961.65 413.103C961.65 413.103 961.65 412.903 961.85 412.903C962.452 411.9 963.053 410.898 963.654 409.896C963.654 409.696 963.854 409.696 963.854 409.495C964.255 408.693 964.856 407.691 965.257 406.889C965.458 406.689 965.458 406.489 965.658 406.288C966.059 405.486 966.46 404.484 967.061 403.682C967.061 403.682 967.061 403.482 967.261 403.482C967.662 402.48 968.263 401.478 968.664 400.475V400.275C969.065 399.473 969.265 398.671 969.666 397.87C969.666 397.669 969.866 397.469 969.866 397.268C970.067 396.467 970.468 395.865 970.668 395.064C970.668 394.863 970.868 394.863 970.868 394.663C971.069 393.861 971.47 393.059 971.67 392.257V392.057C971.87 391.456 972.071 390.854 972.271 390.053C972.271 389.852 972.271 389.652 972.471 389.451C972.672 388.85 972.672 388.449 972.872 388.048C972.872 387.848 972.872 387.647 973.073 387.447C973.273 386.846 973.273 386.244 973.273 385.843V385.643C973.273 385.242 973.273 384.841 973.273 384.44C973.273 384.24 973.273 384.24 973.273 384.04C973.273 383.639 973.273 383.438 973.273 383.238C973.273 383.037 973.273 383.037 973.273 382.837C973.273 382.436 973.073 382.236 973.073 382.035C973.073 381.835 972.872 381.634 972.672 381.434C972.672 381.434 972.672 381.233 972.471 381.233L972.271 381.033L972.071 380.832C972.071 380.632 971.87 380.632 971.67 380.432C971.67 380.432 971.67 380.432 971.469 380.231L971.269 380.031C971.269 380.031 971.269 380.031 971.069 379.83C970.868 379.63 970.668 379.63 970.668 379.429C970.468 379.229 970.468 379.229 970.267 379.029C970.267 379.029 970.067 379.029 970.067 378.828C970.067 378.828 970.067 378.828 969.866 378.828C969.666 378.628 969.666 378.628 969.465 378.427C969.265 378.227 969.265 378.227 969.065 378.026C968.864 377.826 968.664 377.826 968.464 377.625L968.263 377.425C968.063 377.425 968.063 377.225 967.862 377.225C967.462 377.024 967.061 376.824 966.66 376.623C966.46 376.623 966.46 376.423 966.259 376.423C965.858 376.222 965.257 375.822 964.856 375.621C964.856 375.621 964.656 375.621 964.656 375.421C964.055 375.22 963.654 374.819 963.053 374.619C948.624 367.403 920.769 359.987 896.521 370.209H896.321C894.718 370.811 893.115 371.612 891.511 372.214C891.311 372.214 891.111 372.414 890.91 372.414C888.105 373.617 885.5 374.819 883.095 376.022C882.894 376.222 882.494 376.222 882.293 376.423C881.692 376.824 880.89 377.024 880.289 377.425C879.888 377.625 879.488 377.826 878.887 378.026C878.486 378.227 878.085 378.427 877.684 378.628C876.281 379.429 874.678 380.231 873.476 381.033C873.075 381.233 872.674 381.434 872.273 381.835C871.873 382.035 871.472 382.236 871.071 382.636C870.67 382.837 870.069 383.238 869.668 383.438C869.267 383.639 868.666 384.039 868.265 384.24C867.865 384.44 867.464 384.641 867.263 384.841C866.462 385.443 865.66 385.843 864.859 386.445C864.658 386.645 864.458 386.645 864.458 386.846C863.055 387.848 861.652 388.85 860.45 390.053C860.45 390.053 860.45 390.053 860.25 390.253C859.648 390.654 859.248 391.055 858.847 391.456L858.646 391.656C859.248 391.656 859.648 391.656 860.25 391.857C861.252 391.857 862.454 392.057 863.456 392.257C863.656 392.257 863.857 392.257 864.057 392.257C864.458 392.257 864.859 392.458 865.259 392.458C865.66 392.458 866.061 392.658 866.462 392.658C866.863 392.859 867.263 392.859 867.664 393.059C868.065 393.26 868.466 393.26 868.867 393.46C869.267 393.661 869.668 393.661 870.069 393.861C870.47 394.061 870.871 394.061 871.271 394.262C871.672 394.462 872.073 394.663 872.474 394.663C872.875 394.863 873.275 395.064 873.676 395.264C874.077 395.464 874.478 395.665 874.879 395.865C875.279 396.066 875.68 396.266 876.081 396.467C876.482 396.667 876.882 396.868 877.083 397.068C877.484 397.268 877.884 397.469 878.285 397.669C878.486 397.87 878.686 397.87 878.887 398.07L881.091 405.887C878.486 405.887 875.881 406.288 873.476 407.29C869.668 408.894 866.462 410.698 864.057 412.502C864.057 412.502 864.057 412.502 863.857 412.502C862.654 413.504 861.652 414.306 860.65 415.308C860.65 415.308 860.65 415.308 860.45 415.508C860.25 415.709 860.049 416.11 859.849 416.31C859.648 416.51 859.648 416.51 859.448 416.711C859.248 416.911 859.047 417.312 858.847 417.513C858.646 417.713 858.646 417.914 858.446 418.114C858.246 418.515 858.045 418.715 857.845 419.116C857.645 419.317 857.644 419.717 857.444 419.918C857.444 420.118 857.244 420.319 857.244 420.519C857.244 420.72 857.043 421.121 857.043 421.321C857.043 421.521 857.043 421.722 856.843 421.922C856.843 422.123 856.843 422.524 856.642 422.924C856.642 423.125 856.642 423.325 856.642 423.325C856.642 423.726 856.642 424.328 856.642 424.728C856.642 424.929 856.642 424.929 856.642 425.129C856.642 425.53 856.643 425.931 856.843 426.332C856.843 426.532 856.843 426.733 856.843 426.733C856.843 427.134 857.043 427.535 857.043 427.735C857.043 427.935 857.043 427.935 857.244 428.136C857.444 428.737 857.645 429.138 857.845 429.739C858.246 430.541 858.446 431.142 858.847 431.944C858.847 432.145 859.047 432.345 859.047 432.345C859.448 432.946 859.849 433.548 860.45 434.149C860.851 434.75 861.452 435.151 862.053 435.552L862.254 435.753C862.855 436.153 863.456 436.554 864.257 436.755C865.059 437.156 865.66 437.356 866.462 437.556C866.462 437.556 866.462 437.556 866.662 437.556C871.071 438.559 876.882 437.556 884.097 434.55C885.5 433.949 886.702 433.347 887.904 432.546L891.712 445.774C890.109 449.182 888.105 452.389 885.5 455.195C886.902 455.195 888.305 454.995 889.708 454.794C891.311 454.594 893.115 454.393 894.918 453.992C896.121 453.792 897.122 453.592 898.325 453.391C898.926 453.191 899.327 453.191 899.928 452.99C900.329 452.79 900.93 452.79 901.331 452.589C901.932 452.389 902.533 452.389 902.934 452.188C903.335 451.988 903.936 451.988 904.337 451.788C905.339 451.587 906.341 451.186 907.343 450.986C907.944 450.785 908.545 450.585 909.146 450.385C909.347 450.385 909.547 450.184 909.747 450.184C911.15 449.783 912.753 449.182 914.156 448.781C914.757 448.581 915.359 448.38 915.96 448.18C916.16 448.18 916.561 447.979 916.761 447.979C914.156 451.788 912.954 454.794 914.156 455.796C918.164 459.204 927.984 451.587 932.993 446.977C941.21 439.36 944.817 434.349 944.616 433.347C945.017 432.946 945.418 432.546 945.819 432.145C945.819 432.746 946.019 432.546 946.019 432.546Z" fill="#231F20" fill-opacity="0.1"/>
<path d="M507.752 598.709C508.955 598.308 510.157 597.707 511.36 597.306C511.76 597.105 511.961 597.105 512.362 596.905C512.562 596.905 512.562 596.905 512.762 596.704C515.167 595.702 517.371 594.9 519.576 593.898C519.776 593.898 519.977 593.698 520.177 593.698C529.596 589.489 538.413 585.079 546.028 580.469C546.229 580.469 546.429 580.268 546.629 580.268C548.433 579.266 550.236 578.064 551.84 577.061C552.04 576.861 552.24 576.861 552.441 576.661C554.244 575.658 555.848 574.456 557.451 573.454C557.451 573.454 557.651 573.454 557.651 573.253C560.457 571.449 563.062 569.645 565.667 567.841C565.867 567.841 565.867 567.641 566.068 567.641C566.869 567.04 567.671 566.639 568.272 566.037C568.673 565.837 569.074 565.436 569.475 565.236C569.875 564.835 570.276 564.634 570.877 564.233C571.278 563.833 571.679 563.632 572.28 563.231C572.681 563.031 573.082 562.63 573.282 562.429C573.683 562.029 574.084 561.828 574.685 561.427C574.885 561.227 575.286 561.026 575.486 560.826C577.09 559.623 578.492 558.421 579.695 557.419C579.895 557.218 580.296 557.018 580.496 556.817C580.697 556.617 581.097 556.416 581.298 556.015C581.699 555.815 581.899 555.414 582.3 555.214C582.5 555.013 582.701 554.813 582.901 554.813C583.302 554.412 583.703 554.211 584.103 553.811L584.304 553.61C587.711 550.604 589.715 548.599 589.715 548.599C587.51 547.397 585.306 546.394 583.302 545.192C582.701 544.791 582.099 544.59 581.298 544.19C579.294 543.187 577.29 542.185 575.486 541.383C574.885 541.183 574.284 540.782 573.683 540.582C572.08 539.98 570.677 539.179 569.074 538.577C568.272 538.176 567.471 537.776 566.669 537.575C565.066 536.974 563.463 536.172 561.859 535.571C560.857 535.17 559.655 534.769 558.653 534.368C557.651 533.967 556.649 533.566 555.647 533.165C554.645 532.765 553.643 532.364 552.441 531.963C551.439 531.562 550.637 531.362 549.836 530.961C548.032 530.359 546.229 529.758 544.225 529.157C543.623 528.956 543.022 528.756 542.621 528.555C538.413 527.152 534.405 526.15 530.397 525.148H530.197C521.179 522.743 512.362 521.139 503.945 520.137H503.745C501.54 519.937 499.336 519.736 497.131 519.536C497.131 519.536 497.131 519.536 496.931 519.536C489.116 518.934 481.701 518.734 474.487 519.135C474.286 519.135 474.086 519.135 474.086 519.135C472.483 519.135 471.08 519.335 469.477 519.335C469.276 519.335 468.876 519.335 468.675 519.335C467.272 519.536 465.87 519.536 464.467 519.736C434.808 518.133 360.06 522.743 360.06 522.743L373.286 558.822C363.868 566.639 356.854 574.055 352.245 579.266C352.044 579.266 314.17 566.639 278.299 564.434C276.495 564.233 274.491 564.233 272.687 564.233C272.287 564.233 271.886 564.233 271.485 564.233C269.682 564.233 267.878 564.233 266.074 564.233H265.874C264.07 564.233 262.267 564.434 260.463 564.434C260.063 564.434 259.662 564.434 259.061 564.434C257.257 564.634 255.453 564.634 253.85 565.035L280.503 594.299L267.076 631.581C267.076 631.581 267.076 631.581 267.277 631.581C267.277 631.581 267.277 631.581 267.477 631.581C267.477 631.581 267.678 631.581 267.878 631.581C267.878 631.581 267.878 631.581 268.078 631.581C268.279 631.581 268.479 631.38 268.68 631.38C268.68 631.38 268.68 631.38 268.88 631.38C270.082 630.979 272.086 630.578 274.691 629.777C277.297 628.975 280.503 627.973 284.11 626.971C284.912 626.77 285.713 626.369 286.715 626.169C286.916 626.169 286.916 626.169 287.116 625.968C287.918 625.768 288.719 625.367 289.521 625.167C289.721 625.167 289.721 625.167 289.922 624.966C290.122 624.966 290.322 624.766 290.523 624.766C309.56 618.151 336.414 607.127 354.449 592.094C354.65 592.295 354.85 592.295 355.251 592.495C356.654 593.097 358.056 593.898 359.459 594.5C360.261 594.9 361.263 595.301 362.064 595.702C363.467 596.304 364.87 596.905 366.072 597.506C366.874 597.907 367.675 598.107 368.477 598.508C369.88 599.11 371.483 599.711 372.886 600.112C373.487 600.312 374.088 600.513 374.89 600.914C376.493 601.515 378.296 602.116 379.9 602.718C380.3 602.918 380.701 602.918 381.102 603.118C390.521 606.125 399.538 608.33 408.556 609.733C408.757 609.733 408.757 609.733 408.957 609.733C411.362 610.134 413.767 610.535 416.171 610.735C416.372 610.735 416.572 610.735 416.772 610.735C416.973 610.735 416.973 610.735 417.173 610.735C418.576 610.936 419.979 611.136 421.382 611.136C421.382 611.136 421.382 624.164 424.788 637.193C424.788 637.193 483.304 606.726 484.506 606.526C490.919 604.922 496.931 603.319 502.943 601.314C503.143 601.314 503.344 601.114 503.544 601.114C504.947 600.713 506.55 600.112 507.953 599.511C506.951 598.909 507.352 598.709 507.752 598.709Z" fill="#231F20" fill-opacity="0.1"/>
<path d="M1264.65 65.3428C1264.45 65.3428 1264.25 65.3428 1264.05 65.3428C1263.25 65.5433 1262.45 65.5433 1261.64 65.7437L1274.87 78.9726L1269.26 96.8116C1269.26 96.8116 1269.26 96.8116 1269.46 96.8116C1269.46 96.8116 1269.46 96.8116 1269.66 96.8116C1269.86 96.8116 1269.86 96.8116 1270.06 96.6112H1270.26C1270.46 96.6112 1270.66 96.4107 1270.86 96.4107C1271.06 96.4107 1271.26 96.2103 1271.46 96.2103C1271.66 96.2103 1271.86 96.0099 1272.06 96.0099C1272.26 96.0099 1272.46 95.8094 1272.67 95.8094C1273.07 95.609 1273.47 95.609 1273.67 95.4086C1273.87 95.4086 1274.07 95.2081 1274.27 95.2081C1274.47 95.0077 1274.87 95.0077 1275.07 94.8072C1275.47 94.6068 1275.67 94.6068 1276.07 94.4064C1276.47 94.2059 1276.87 94.2059 1277.27 94.0055C1277.47 94.0055 1277.88 93.805 1278.08 93.6046C1278.68 93.4042 1279.08 93.2037 1279.68 93.0033C1279.68 93.0033 1279.88 93.0033 1279.88 92.8029C1288.7 89.195 1301.12 83.3823 1309.34 75.9661C1309.54 75.9661 1309.54 76.1665 1309.74 76.1665C1310.34 76.3669 1311.14 76.7678 1311.74 76.9683C1312.14 77.1687 1312.54 77.3691 1312.94 77.3691C1313.55 77.5696 1314.15 77.77 1314.95 78.1709C1315.35 78.3713 1315.75 78.3713 1316.15 78.5718C1316.95 78.7722 1317.55 78.9726 1318.16 79.1731C1318.56 79.1731 1318.76 79.3735 1319.16 79.3735C1319.96 79.5739 1320.76 79.7744 1321.56 80.1753C1321.76 80.1753 1321.96 80.3757 1322.16 80.3757C1326.57 81.5783 1330.98 82.3801 1335.19 82.9814H1335.39C1336.59 83.1818 1337.59 83.1818 1338.6 83.3823C1338.8 83.3823 1338.8 83.3823 1339 83.3823H1339.2C1339.8 83.3823 1340.6 83.3823 1341.2 83.5827C1341.2 83.5827 1341.4 89.7963 1343.41 95.8094C1343.41 95.8094 1370.46 80.1753 1370.86 79.9748C1373.87 79.1731 1376.67 78.1709 1379.48 76.9683H1379.68C1380.48 76.7678 1381.08 76.3669 1381.88 76.1665C1382.08 76.1665 1382.08 75.9661 1382.28 75.9661C1382.88 75.7656 1383.48 75.3647 1384.09 75.1643C1384.09 75.1643 1384.29 75.1643 1384.49 74.9639C1384.49 74.9639 1384.49 74.9639 1384.69 74.9639C1385.89 74.3626 1386.89 73.9617 1387.89 73.3604C1407.73 63.5389 1419.76 50.31 1419.76 50.31C1418.35 49.7087 1416.95 48.9069 1415.55 48.3056C1415.15 48.1052 1414.75 47.9047 1414.55 47.9047C1413.34 47.5038 1412.34 46.9025 1411.34 46.5017C1410.94 46.3012 1410.74 46.3012 1410.34 46.1008C1407.53 44.8981 1404.73 44.0964 1401.92 43.0942H1401.72C1400.32 42.6933 1399.12 42.2925 1397.71 41.8916C1397.51 41.8916 1397.51 41.8916 1397.31 41.8916C1390.7 40.0876 1384.49 39.0854 1378.67 38.6846C1377.67 38.6846 1376.67 38.4841 1375.47 38.4841C1372.66 38.4841 1369.86 38.4841 1367.25 38.6846C1365.65 38.885 1364.05 38.885 1362.44 39.0854H1362.24C1361.64 39.0854 1360.84 39.2859 1360.24 39.2859C1346.21 39.0854 1310.94 43.0942 1310.94 43.0942L1317.95 59.931C1314.15 63.3385 1311.34 66.7459 1309.14 69.1512C1308.94 69.552 1308.74 69.7525 1308.34 69.9529C1308.34 69.9529 1290.1 64.7415 1273.07 64.7415C1272.26 64.7415 1271.26 64.7415 1270.46 64.7415C1270.26 64.7415 1270.06 64.7415 1269.86 64.7415C1268.06 64.942 1266.25 65.1424 1264.65 65.3428Z" fill="#231F20" fill-opacity="0.1"/>
<path d="M32.4122 759.66C56.6602 756.854 82.7117 746.632 109.565 725.185C113.172 722.179 109.565 716.566 110.567 716.967C118.182 719.573 120.987 715.965 120.186 713.56C119.785 712.357 119.585 711.956 118.983 710.553C117.18 705.743 112.17 694.318 103.152 681.69C103.152 681.69 52.4519 579.467 -39.1293 610.735C-48.5479 613.942 -68.5875 629.576 -51.7542 648.618H-51.3535C-67.3852 655.232 -85.0201 664.653 -103.857 676.88C-103.857 676.88 -130.911 684.697 -167.984 654.03C-167.984 654.03 -152.954 676.88 -148.946 684.095L-176 704.139C-176 704.139 -139.127 689.507 -107.665 699.93C-102.054 705.743 -94.4387 712.958 -85.02 720.375C-96.0418 721.577 -104.659 725.987 -104.659 725.987C-49.5499 800.55 24.7972 763.87 32.4122 759.66Z" fill="#231F20" fill-opacity="0.1"/>
<path d="M1170.46 358.183C1169.66 357.782 1169.46 357.782 1168.46 357.181C1165.45 355.577 1157.84 351.769 1147.82 349.364C1147.82 349.364 1077.08 319.098 1043.81 375.421C1040.41 381.233 1037 397.87 1054.03 400.275L1054.23 400.075C1048.82 410.497 1044.01 422.925 1039.8 437.557C1039.8 437.557 1029.38 453.391 996.92 453.992C996.92 453.992 1014.55 459.204 1019.77 461.008L1014.76 483.056C1014.76 483.056 1027.18 459.404 1048.02 450.986C1053.43 451.387 1060.45 451.788 1068.46 451.587C1063.25 456.999 1060.85 463.213 1060.85 463.213C1121.77 477.243 1143.81 425.731 1146.01 420.319C1157.24 408.092 1166.05 391.456 1170.46 368.806C1171.06 365.599 1166.66 364.397 1167.26 364.196C1172.07 362.192 1171.87 358.985 1170.46 358.183Z" fill="#231F20" fill-opacity="0.1"/>
<path d="M858.847 466.82C860.049 457.6 847.625 464.616 847.625 464.616C842.014 452.79 829.389 430.341 800.732 431.543C800.732 431.543 797.726 422.524 786.905 418.916C766.063 412.101 729.19 429.739 725.583 496.285C708.149 475.239 677.488 491.875 677.488 491.875C677.488 491.875 696.325 499.091 704.341 517.331C712.357 535.571 705.944 556.015 705.944 556.015C705.944 556.015 741.214 546.595 734.401 515.326C760.853 525.148 782.095 525.95 798.728 522.141C804.539 526.351 820.771 531.362 826.783 525.549C831.994 520.738 824.178 517.13 816.363 515.326C819.77 513.523 822.775 511.518 825.581 509.313C825.581 509.313 833.998 512.32 837.004 510.917C844.418 507.509 834.599 501.897 833.797 501.697C841.012 493.679 845.42 484.659 847.224 477.444C858.847 477.444 854.638 471.23 854.238 470.829C856.843 469.827 858.646 468.424 858.847 466.82Z" fill="#231F20" fill-opacity="0.1"/>
<path d="M426.592 718.771C452.443 718.972 478.695 712.758 496.129 692.313C497.332 693.516 498.534 694.518 499.937 694.518C500.137 694.518 503.344 694.719 503.143 691.512C503.143 690.71 502.542 689.908 501.941 689.507C500.939 688.705 501.139 689.106 501.741 688.305C502.342 687.703 502.542 686.901 502.542 686.1C502.141 682.893 499.135 683.694 498.935 683.694C497.532 683.895 496.53 685.098 495.528 686.501C488.715 679.485 468.876 662.849 433.205 665.655C433.205 665.655 403.146 665.655 379.499 658.038C376.493 657.036 373.687 656.034 371.082 654.831C371.082 654.831 377.294 685.899 341.223 697.324C333.808 697.926 325.392 697.124 316.374 692.915C312.566 690.509 308.759 688.104 305.552 686.1C299.541 682.492 294.731 679.886 291.324 681.089C295.132 683.694 298.338 687.102 300.543 691.111C302.947 695.119 304.35 699.73 304.751 704.54C305.552 714.362 301.945 723.582 295.332 729.996C298.138 730.397 301.344 728.593 305.152 725.786C308.959 722.98 313.168 718.972 317.977 715.163L318.177 715.364C333.408 705.342 350.04 706.344 359.259 707.948C386.112 715.163 397.534 732.601 397.534 732.601C399.538 730.998 401.743 729.595 403.747 728.192C415.169 721.176 426.592 718.771 426.592 718.771Z" fill="#231F20" fill-opacity="0.1"/>
<path d="M1033.99 196.63C1038.6 205.249 1039 215.271 1035.6 223.689C1038.2 223.088 1040.61 220.081 1043.01 215.872C1045.42 211.663 1047.62 206.451 1050.43 201.04H1050.63C1060.65 185.806 1076.28 179.994 1085.5 177.789C1112.95 173.78 1130.38 185.205 1130.38 185.205C1131.59 183 1132.99 180.795 1134.39 178.791C1141.81 168.368 1151.43 161.553 1151.43 161.553C1175.07 151.531 1196.72 135.296 1204.73 109.64C1206.33 110.442 1207.94 110.642 1209.14 110.041C1209.34 110.041 1212.35 108.838 1210.94 106.032C1210.54 105.23 1209.94 104.829 1209.14 104.629C1207.94 104.228 1208.34 104.629 1208.54 103.627C1208.74 102.825 1208.74 102.023 1208.34 101.221C1206.73 98.4152 1204.13 100.42 1203.93 100.42C1202.73 101.221 1202.33 102.624 1201.93 104.228C1192.91 100.42 1168.06 93.2038 1136.4 109.84C1136.4 109.84 1108.94 121.866 1083.89 124.071C1080.89 124.272 1077.88 124.472 1074.87 124.472C1074.87 124.472 1092.91 150.529 1064.45 175.383C1058.04 178.991 1049.82 181.597 1040.01 181.196C1035.6 180.595 1031.19 179.793 1027.38 179.192C1020.37 178.19 1014.96 177.789 1012.35 180.194C1016.76 181.196 1021.17 183 1024.78 185.606C1028.58 188.612 1031.79 192.22 1033.99 196.63Z" fill="#231F20" fill-opacity="0.1"/>
<path d="M52.6522 610.735C63.4736 611.136 77.9022 609.933 91.3287 604.321C110.166 612.339 128.602 616.548 145.436 618.753C145.436 618.753 144.233 622.561 139.023 626.97C139.023 626.97 148.842 626.77 154.654 619.755C157.259 619.955 159.664 620.156 162.069 620.156C162.069 620.156 156.458 627.371 148.642 630.779C148.642 630.779 167.279 634.387 175.094 620.556C199.142 620.356 215.174 616.548 215.174 616.548C214.973 615.746 214.572 614.944 214.172 613.942C212.969 610.535 211.366 607.528 209.963 604.722C204.152 594.299 196.136 587.484 187.118 583.275C145.837 536.373 85.1165 576.861 85.1165 576.861C87.5212 577.462 90.3268 579.066 92.9319 580.87C98.1422 584.678 102.952 589.489 103.152 589.689C99.1442 591.293 95.5371 592.696 92.5311 594.099C81.7097 586.482 66.8804 583.275 55.4578 581.672C45.2376 580.268 37.4221 580.469 37.4221 580.469L54.4558 597.105L34.817 608.731C34.6166 608.53 42.0312 610.334 52.6522 610.735Z" fill="#231F20" fill-opacity="0.1"/>
<path d="M711.756 586.883C708.55 584.277 705.544 582.072 702.337 580.268C690.714 573.454 679.091 571.249 667.869 572.251C601.137 549.601 564.665 623.363 564.665 623.363C567.27 622.561 570.877 622.561 574.484 622.761C581.699 623.363 589.113 625.567 589.514 625.567C586.508 629.376 583.903 632.783 581.699 635.79C566.869 634.387 550.637 639.598 538.413 644.609C527.592 649.219 520.177 653.629 520.177 653.629L546.229 660.243L533.604 682.692C533.604 682.692 541.82 680.287 552.441 674.474C563.262 668.662 576.689 659.642 586.508 646.413C609.353 643.607 629.794 637.393 647.429 629.977C647.429 629.977 648.431 634.387 645.625 641.602C645.625 641.602 655.044 635.99 656.847 625.768C659.452 624.565 661.857 623.363 664.262 622.16C664.262 622.16 662.859 632.382 657.048 639.999C657.048 639.999 677.087 632.984 677.087 615.145C700.534 601.515 713.76 588.687 713.76 588.687C713.359 588.086 712.557 587.484 711.756 586.883Z" fill="#231F20" fill-opacity="0.1"/>
<path d="M1407.73 200.639C1405.33 198.634 1402.92 197.031 1400.72 195.628C1391.9 190.416 1383.28 188.813 1374.67 189.615C1324.37 172.577 1296.71 228.299 1296.71 228.299C1298.72 227.698 1301.32 227.698 1304.13 227.898C1309.54 228.5 1315.15 230.103 1315.55 230.103C1313.35 232.909 1311.34 235.515 1309.54 237.92C1298.32 236.918 1286.09 240.726 1276.87 244.535C1268.66 247.942 1263.05 251.349 1263.05 251.349L1282.69 256.36L1273.07 273.398C1273.07 273.398 1279.28 271.594 1287.29 267.184C1295.51 262.774 1305.53 255.96 1312.95 245.938C1330.18 243.933 1345.61 239.123 1359.04 233.51C1359.04 233.51 1359.84 236.717 1357.83 242.33C1357.83 242.33 1365.05 238.121 1366.25 230.303C1368.25 229.301 1370.06 228.5 1371.86 227.497C1371.86 227.497 1370.66 235.114 1366.45 240.927C1366.45 240.927 1381.68 235.715 1381.48 222.086C1399.12 211.663 1409.14 202.042 1409.14 202.042C1408.93 201.641 1408.33 201.04 1407.73 200.639Z" fill="#231F20" fill-opacity="0.1"/>
<path d="M82.3109 779.303L86.3188 791.129C70.8883 791.53 53.8546 794.537 35.6186 801.552C35.6186 801.552 16.5809 792.532 -18.4885 785.918L-3.85951 802.955L-21.0936 815.382C-21.0936 815.382 -21.0936 815.382 -20.8932 815.382H-20.6928C-16.2841 815.783 16.7813 818.389 34.6166 812.376C45.0372 818.389 63.0729 827.409 85.5173 831.618L84.5153 847.252C91.9299 845.849 111.368 834.424 111.97 834.023C130.606 834.023 150.846 830.014 172.088 819.391C172.088 819.391 149.444 799.147 111.769 792.733C111.769 792.933 105.757 785.517 82.3109 779.303Z" fill="#231F20" fill-opacity="0.1"/>
<path d="M419.778 386.846C419.778 386.846 419.778 386.645 419.778 386.846C419.979 386.846 419.979 386.846 419.979 386.846C419.979 386.846 420.179 386.846 420.38 386.846H420.58C420.78 386.846 420.78 386.846 420.981 386.645C421.181 386.645 421.181 386.645 421.382 386.645C421.582 386.645 421.782 386.645 421.983 386.445C422.183 386.445 422.384 386.445 422.584 386.244C422.784 386.244 422.985 386.044 423.185 386.044C423.386 386.044 423.586 386.044 423.786 385.843C423.987 385.843 424.388 385.643 424.588 385.643C424.788 385.643 424.989 385.443 425.189 385.443C425.59 385.443 425.79 385.242 426.191 385.242C426.391 385.242 426.592 385.042 426.993 385.042C427.393 385.042 427.794 384.841 428.195 384.641C428.395 384.641 428.596 384.44 428.796 384.44C429.197 384.24 429.798 384.24 430.199 384.04C430.399 384.04 430.6 383.839 430.8 383.839C431.401 383.639 432.003 383.438 432.604 383.238C432.804 383.238 432.804 383.238 433.005 383.238C448.435 378.828 473.685 370.61 487.913 360.187C503.344 363.595 529.195 367.203 559.054 363.194L564.064 383.037C572.681 378.427 592.119 356.179 592.72 355.377C615.766 347.76 639.413 334.531 661.256 312.684C661.256 312.684 624.784 296.849 575.486 304.265C575.486 304.265 564.865 297.25 533.203 299.254L543.022 312.283C524.185 319.098 504.145 329.721 484.506 346.157C484.506 346.157 457.252 342.749 410.961 349.163L436.211 364.397L419.778 386.846Z" fill="#231F20" fill-opacity="0.1"/>
<path d="M414.969 435.552C398.737 440.964 381.503 449.583 364.269 463.213C364.269 463.213 341.023 459.805 301.545 464.215L322.787 477.644L308.358 496.485C308.358 496.485 308.358 496.485 308.558 496.485C308.558 496.485 308.759 496.485 308.959 496.485C309.16 496.485 309.36 496.485 309.56 496.285C309.761 496.285 309.961 496.084 310.362 496.084C310.763 496.084 310.963 495.884 311.364 495.884C311.364 495.884 311.364 495.884 311.564 495.884C321.384 493.679 351.644 486.263 366.874 475.239C379.9 478.446 401.943 482.054 427.594 479.248L431.602 496.285C439.217 492.477 456.451 473.435 456.651 473.234C476.491 467.221 496.931 456.398 515.969 438.158C515.969 438.158 485.108 423.927 443.024 429.339C443.024 429.339 434.207 423.125 407.153 424.328L414.969 435.552Z" fill="#231F20" fill-opacity="0.1"/>
<path d="M858.646 241.328L850.631 258.365C850.631 258.365 880.49 245.336 892.513 232.107C903.134 232.308 920.97 231.506 940.208 224.892L946.019 237.519C951.23 233.31 961.65 215.471 961.65 215.471C975.878 207.454 990.107 195.628 1001.73 178.39C1001.73 178.39 975.478 172.577 943.615 183.802C943.615 183.802 935.799 180.595 914.958 186.007L923.174 193.423C911.351 200.238 899.527 210.059 888.506 223.489C888.506 223.489 869.869 224.691 840.01 234.914L858.646 241.328Z" fill="#231F20" fill-opacity="0.1"/>
<path d="M179.303 810.171C179.503 810.171 179.503 810.171 179.704 810.171H179.904C180.104 810.171 180.104 810.171 180.305 810.171H180.505C180.706 810.171 180.906 810.171 181.106 810.171C181.307 810.171 181.307 810.171 181.507 810.171C181.707 810.171 181.908 810.171 182.309 810.171C182.509 810.171 182.509 810.171 182.709 810.171C183.11 810.171 183.311 810.171 183.711 810.171C183.912 810.171 183.912 810.171 184.112 810.171C184.513 810.171 184.914 810.171 185.315 809.971C185.515 809.971 185.715 809.971 185.916 809.971C186.317 809.971 186.717 809.971 187.319 809.77C187.519 809.77 187.719 809.77 187.92 809.77C188.321 809.77 188.922 809.57 189.323 809.57C189.523 809.57 189.723 809.57 189.924 809.57C190.525 809.57 191.126 809.369 191.727 809.369C191.928 809.369 191.928 809.369 192.128 809.369C192.729 809.369 193.531 809.169 194.132 809.169C194.332 809.169 194.332 809.169 194.332 809.169C196.737 808.768 199.342 808.567 202.148 808.167C202.95 807.966 203.952 807.966 204.753 807.766C204.953 807.766 205.154 807.766 205.354 807.766C206.156 807.565 206.757 807.565 207.559 807.365H207.759C221.186 805.16 236.416 801.552 246.636 796.14C260.463 801.552 284.31 808.768 312.767 809.57L314.57 828.812C323.388 825.805 344.63 807.966 345.632 807.164C368.277 803.356 392.324 794.537 416.171 777.499C416.171 777.499 384.308 757.255 337.215 756.854C337.215 756.854 328.398 748.837 298.539 746.031L305.753 759.66C287.116 763.068 266.876 770.083 245.834 782.51C245.834 782.51 220.785 775.295 176.497 774.292L197.739 792.332L179.303 810.171C179.102 810.171 179.303 810.171 179.303 810.171Z" fill="#231F20" fill-opacity="0.1"/>
<path d="M991.91 519.937C991.91 519.937 982.091 518.934 961.049 531.963L972.672 537.375C962.051 548.8 952.232 563.432 944.617 581.872C944.617 581.872 924.777 589.489 895.119 610.535L917.964 611.938L914.757 633.385C914.757 633.385 914.958 633.184 915.158 632.984C915.359 632.984 915.359 632.783 915.559 632.583L915.759 632.382C915.96 632.382 915.96 632.182 916.16 631.981C916.16 631.981 916.361 631.781 916.561 631.781C916.761 631.581 916.761 631.581 916.962 631.38C917.162 631.18 917.162 631.18 917.363 630.979C917.563 630.779 917.563 630.779 917.763 630.578C917.964 630.378 917.964 630.378 918.164 630.178C918.365 629.977 918.565 629.777 918.765 629.777C918.966 629.576 919.166 629.576 919.166 629.376C919.367 629.175 919.567 628.975 919.767 628.775C919.968 628.574 920.168 628.374 920.369 628.173C920.569 627.973 920.769 627.772 920.97 627.572C921.17 627.371 921.371 627.171 921.571 626.971C921.771 626.77 921.972 626.57 922.372 626.369C922.573 626.169 922.773 625.968 922.974 625.768C923.174 625.567 923.575 625.167 923.775 624.966C923.976 624.766 924.176 624.565 924.376 624.365C924.577 624.164 924.978 623.764 925.178 623.563C925.378 623.363 925.579 623.162 925.779 622.962C925.98 622.761 926.38 622.36 926.581 622.16C926.982 621.759 927.382 621.358 927.783 620.957C928.184 620.556 928.384 620.356 928.785 619.955C928.986 619.755 929.186 619.354 929.587 619.153C929.787 618.953 930.188 618.552 930.388 618.352C930.589 618.151 930.99 617.75 931.19 617.55C931.39 617.35 931.591 616.949 931.992 616.748L932.192 616.548C939.807 608.53 948.023 598.709 952.232 590.09C964.055 586.883 983.093 579.868 1002.13 566.238L1012.75 578.064C1016.96 571.65 1022.37 549.401 1022.57 548.599C1035.6 534.969 1047.02 517.331 1054.23 494.281C1053.83 494.481 1022.97 496.886 991.91 519.937Z" fill="#231F20" fill-opacity="0.1"/>
<path d="M242.227 404.885C242.628 405.887 242.828 407.691 243.029 408.693C244.231 424.328 230.404 449.382 230.404 449.382C230.404 449.382 234.612 448.981 238.82 441.766C248.64 425.53 259.261 418.114 268.279 415.107C270.483 414.306 272.687 413.905 274.691 413.504C275.293 413.504 275.894 413.304 276.495 413.304H276.695C277.297 413.304 277.697 413.304 278.299 413.103H278.499C279.1 413.103 279.501 413.103 279.902 413.103H280.102C280.503 413.103 281.104 413.103 281.505 413.103C281.505 413.103 281.505 413.103 281.705 413.103C283.308 413.103 284.511 413.304 285.713 413.504C289.922 415.508 294.531 417.312 299.34 419.116C304.15 435.953 311.164 439.16 311.164 439.16C333.408 438.559 343.227 428.537 346.433 424.127C350.842 423.125 355.251 421.722 359.259 419.517C362.465 417.713 365.671 415.709 368.677 413.103C369.479 412.502 370.281 411.7 371.082 410.898C371.683 410.297 372.284 409.696 372.886 409.094C372.886 409.094 372.886 408.894 373.086 408.894C373.687 408.293 374.288 407.691 374.89 406.89L375.09 406.689C375.691 406.088 376.292 405.286 376.693 404.484C376.693 404.484 376.693 404.284 376.894 404.284C377.495 403.482 378.096 402.68 378.497 401.879C382.104 396.667 385.31 390.253 388.116 382.636C388.517 381.634 385.511 378.026 385.511 378.026C385.511 378.026 390.521 375.822 390.921 375.02C390.921 375.02 377.294 358.183 352.646 354.976C351.644 354.776 350.642 354.776 349.64 354.776C344.83 353.573 333.808 348.963 313.969 329.32C302.346 317.895 288.118 319.298 287.316 323.507C287.316 323.708 287.316 323.908 287.316 324.109C287.316 324.109 287.316 324.109 287.316 324.309C287.316 324.509 287.517 324.71 287.517 324.91C287.717 325.111 287.918 325.311 288.118 325.712L288.318 325.913C288.519 326.113 288.719 326.514 289.12 326.714C296.735 332.727 308.558 362.392 292.527 374.018C289.521 376.222 286.314 378.628 283.108 381.233C282.908 381.434 282.707 381.634 282.507 381.835C281.705 382.637 279.902 383.839 277.297 385.042C275.493 386.044 273.289 386.846 270.683 387.647C270.683 387.647 270.684 387.647 270.483 387.647C269.882 387.848 269.281 388.048 268.68 388.048C268.68 388.048 268.68 388.048 268.479 388.048C267.878 388.249 267.076 388.249 266.275 388.449C264.872 388.65 263.269 388.85 261.465 388.85C252.247 389.051 240.223 386.044 225.995 375.421C219.382 370.41 215.374 371.612 215.374 371.612C215.374 371.612 237.418 390.053 242.227 404.885Z" fill="#231F20" fill-opacity="0.1"/>
<path d="M536.81 463.213C536.81 463.613 536.81 464.215 536.81 464.616C536.81 464.816 536.81 465.016 536.81 465.217C536.81 465.618 537.01 466.019 537.01 466.62C537.01 466.82 537.01 467.021 537.211 467.221C537.411 467.823 537.611 468.624 537.812 469.226C538.012 469.827 538.213 470.428 538.613 471.23C538.613 471.431 538.814 471.631 538.814 471.831C539.014 472.232 539.215 472.633 539.415 473.034C539.615 473.234 539.615 473.435 539.816 473.635C540.016 474.036 540.217 474.437 540.617 474.638C540.818 474.838 540.818 475.038 541.018 475.038C541.419 475.439 541.82 475.84 542.02 476.241C542.221 476.441 542.421 476.642 542.621 476.842C542.822 477.043 543.022 477.243 543.423 477.444C543.623 477.644 543.824 477.845 544.024 478.045C544.225 478.245 544.425 478.446 544.625 478.446C544.826 478.646 545.227 478.847 545.427 478.847C545.627 478.847 545.828 479.047 546.028 479.047C546.629 479.448 547.431 479.648 548.032 479.849C548.232 479.849 548.433 480.049 548.633 480.049C549.034 480.25 549.435 480.25 549.836 480.45C550.036 480.45 550.236 480.45 550.437 480.651C550.838 480.651 551.439 480.851 551.84 480.851C551.84 480.851 551.84 480.851 552.04 480.851C553.643 481.052 555.447 481.052 557.25 481.052C557.451 481.052 557.651 481.052 557.651 481.052C558.252 481.052 558.853 481.052 559.455 480.851C559.455 480.851 559.455 480.851 559.655 480.851C563.062 480.45 566.869 479.648 571.078 478.245C572.881 477.644 574.484 476.842 576.088 476.041L579.294 493.278C576.889 497.487 574.084 501.296 570.476 504.503C572.08 504.503 573.883 504.703 575.486 504.503H575.687C578.693 504.503 582.099 504.302 585.506 503.901H585.707C585.707 503.901 585.707 503.901 585.907 503.901C585.907 503.901 585.907 503.901 586.107 503.901C589.113 503.501 592.119 503.1 595.326 502.498C595.526 502.498 595.927 502.498 596.127 502.298C599.334 501.697 602.54 500.895 605.947 500.093C606.147 500.093 606.548 499.893 606.748 499.893C607.951 499.492 609.353 499.291 610.756 498.89C606.949 503.501 605.345 507.108 606.548 508.311C611.357 512.921 624.383 504.503 631.197 499.291C642.419 490.472 647.429 484.659 647.228 483.256C651.036 480.651 654.443 477.644 657.849 474.638C658.05 474.638 658.05 474.437 658.25 474.437C660.855 472.032 663.26 469.627 665.464 467.021C665.665 466.82 665.665 466.62 665.865 466.42C666.867 465.417 667.669 464.415 668.47 463.213C668.671 463.012 668.871 462.812 669.072 462.611C670.073 461.409 670.875 460.206 671.877 459.003C672.879 457.801 673.681 456.398 674.683 455.195L674.883 454.995C675.685 453.792 676.286 452.79 677.087 451.587C677.288 451.387 677.288 451.186 677.488 450.986C678.29 449.783 678.891 448.781 679.492 447.779C679.492 447.779 679.492 447.578 679.692 447.578C680.494 446.376 681.095 445.173 681.696 443.97C681.696 443.97 681.696 443.97 681.696 443.77C682.298 442.768 682.698 441.766 683.3 440.563C683.5 440.363 683.5 440.162 683.7 439.962C684.101 438.96 684.502 438.158 684.903 437.156C684.903 436.955 685.103 436.955 685.103 436.755C685.504 435.753 685.905 434.75 686.306 433.748C686.306 433.748 686.306 433.748 686.306 433.548C686.706 432.746 686.907 431.744 687.308 430.942C687.308 430.742 687.508 430.541 687.508 430.341C687.708 429.739 687.909 428.938 688.109 428.336C688.109 428.136 688.31 427.935 688.31 427.735C688.51 426.933 688.71 426.332 688.911 425.53C688.911 425.53 688.911 425.53 688.911 425.33C689.111 424.728 689.111 424.127 689.111 423.726C689.111 423.526 689.111 423.325 689.111 423.325C689.111 422.924 689.111 422.524 689.111 422.323C689.111 422.123 689.111 422.123 689.111 421.922C689.111 421.521 689.111 421.121 688.911 420.92C688.911 420.72 688.71 420.519 688.51 420.118C688.51 420.118 688.51 420.118 688.51 419.918C688.31 419.717 688.31 419.517 688.109 419.317C688.109 419.317 688.109 419.317 688.109 419.116C687.909 418.916 687.708 418.515 687.308 418.314C687.308 418.314 687.308 418.314 687.107 418.114L686.907 417.914C686.706 417.713 686.506 417.513 686.306 417.312L686.105 417.112C686.105 417.112 686.105 417.112 685.905 416.911C685.504 416.711 685.304 416.31 684.903 415.909C684.903 415.909 684.903 415.909 684.702 415.709C684.502 415.508 684.502 415.508 684.302 415.308C684.101 415.107 683.901 414.907 683.5 414.707C683.3 414.506 683.3 414.506 683.099 414.306C682.899 414.306 682.899 414.105 682.698 414.105C682.498 413.905 682.298 413.704 681.897 413.504C681.696 413.303 681.496 413.103 681.296 413.103C680.895 412.903 680.694 412.702 680.294 412.502C680.093 412.502 680.093 412.301 679.893 412.301C679.693 412.101 679.492 412.101 679.292 411.9C678.69 411.5 678.29 411.299 677.689 410.898C677.488 410.698 677.288 410.698 677.288 410.497C676.687 410.096 676.085 409.696 675.284 409.295C675.083 409.295 675.083 409.094 674.883 409.094C674.081 408.693 673.48 408.293 672.679 407.892C672.679 407.892 672.478 407.892 672.478 407.691C671.677 407.29 670.875 406.889 669.873 406.489C669.873 406.489 669.873 406.489 669.673 406.489C668.871 406.088 667.869 405.687 666.867 405.086C650.635 397.469 627.389 391.255 604.143 395.264C602.74 395.464 601.538 395.665 600.135 396.066C600.135 396.066 600.135 396.066 599.935 396.066C598.532 396.266 597.33 396.667 595.927 397.068C595.526 397.268 595.326 397.268 594.925 397.469C594.524 397.669 594.123 397.669 593.722 397.87C590.717 398.872 587.911 399.674 585.306 400.676C585.306 400.676 585.306 400.676 585.105 400.676C584.905 400.676 584.905 400.676 584.705 400.876C583.903 401.077 582.901 401.478 582.099 401.678C581.699 401.879 581.298 401.879 580.897 402.079C580.697 402.079 580.296 402.279 580.095 402.279C579.093 402.68 577.891 403.081 576.889 403.482C576.889 403.482 576.889 403.482 576.689 403.482C576.288 403.682 576.088 403.682 575.687 403.883C575.286 404.083 575.086 404.083 574.685 404.284C573.683 404.685 572.681 405.086 571.879 405.486C571.478 405.687 570.877 405.887 570.476 406.088C569.675 406.489 568.873 406.689 568.072 407.09C567.671 407.29 567.07 407.491 566.669 407.691C565.467 408.092 564.465 408.693 563.262 409.295C563.262 409.295 563.062 409.295 563.062 409.495C562.661 409.696 562.461 409.696 562.06 409.896C561.258 410.297 560.457 410.698 559.655 411.099C559.054 411.299 558.453 411.7 557.852 411.9C557.25 412.301 556.649 412.502 556.048 412.903C555.447 413.103 555.046 413.504 554.445 413.704C553.443 414.306 552.441 414.907 551.439 415.308C551.238 415.508 551.038 415.508 550.838 415.709C548.834 416.911 547.03 418.114 545.227 419.317C544.425 419.918 543.623 420.519 542.822 421.121C543.623 421.121 544.425 421.321 545.227 421.521C546.629 421.722 548.032 422.123 549.435 422.524C549.836 422.724 550.236 422.724 550.637 422.925C551.238 423.125 551.84 423.325 552.441 423.526C552.842 423.726 553.242 423.927 553.844 424.127C554.445 424.328 554.846 424.528 555.447 424.728C555.848 424.929 556.449 425.129 556.85 425.33C557.451 425.53 557.851 425.731 558.453 426.132C558.853 426.332 559.455 426.532 559.855 426.933C560.256 427.134 560.857 427.535 561.258 427.735C561.659 427.935 562.06 428.336 562.661 428.537C563.062 428.737 563.663 429.138 564.064 429.539C564.465 429.739 564.865 430.14 565.266 430.341C565.667 430.742 566.268 430.942 566.669 431.343C566.869 431.543 567.07 431.744 567.27 431.744L569.074 441.766C565.867 441.565 562.661 441.766 559.455 442.768C554.445 444.371 550.236 446.175 547.03 448.18H546.83C545.227 449.182 543.623 450.385 542.421 451.387C542.421 451.387 542.421 451.387 542.221 451.587C541.82 451.988 541.619 452.188 541.219 452.589C541.018 452.79 541.018 452.79 540.818 452.99C540.617 453.391 540.217 453.592 540.016 453.992C539.816 454.193 539.816 454.393 539.615 454.393C539.215 454.995 538.814 455.395 538.613 455.997C538.413 456.197 538.413 456.398 538.213 456.598C538.012 456.799 538.012 457.199 537.812 457.4C537.611 457.6 537.611 458.001 537.411 458.202C537.411 458.402 537.211 458.803 537.211 459.003C537.211 459.404 537.01 459.605 537.01 460.006C537.01 460.206 536.81 460.406 536.81 460.607C536.81 461.208 536.609 461.809 536.609 462.21C536.81 462.812 536.81 463.012 536.81 463.213Z" fill="#231F20" fill-opacity="0.1"/>
<path d="M1292.3 304.466C1292.3 303.864 1292.3 303.463 1292.1 303.062C1292.1 302.862 1292.1 302.862 1292.1 302.662C1292.1 302.261 1291.9 302.06 1291.9 301.86V301.659C1291.9 301.259 1291.7 301.058 1291.5 300.858C1291.3 300.657 1291.3 300.457 1291.1 300.256L1290.9 300.056L1290.7 299.855C1290.7 299.855 1290.7 299.855 1290.5 299.855C1290.3 299.855 1290.3 299.655 1290.1 299.655L1289.9 299.455C1289.9 299.455 1289.9 299.455 1289.7 299.455C1289.7 299.455 1289.5 299.455 1289.5 299.254C1289.3 299.054 1288.9 298.853 1288.7 298.653C1288.7 298.653 1288.7 298.653 1288.5 298.653C1288.5 298.653 1288.3 298.653 1288.3 298.452C1288.1 298.252 1287.7 298.252 1287.49 298.052C1287.29 298.052 1287.29 297.851 1287.09 297.851C1287.09 297.851 1287.09 297.851 1286.89 297.851C1286.69 297.851 1286.69 297.651 1286.49 297.651C1286.29 297.651 1286.09 297.45 1286.09 297.45C1285.89 297.45 1285.69 297.25 1285.49 297.25C1285.09 297.049 1284.89 297.049 1284.49 296.849C1284.29 296.849 1283.89 296.648 1283.69 296.648C1283.49 296.448 1283.09 296.448 1282.69 296.248C1282.48 296.248 1282.28 296.047 1282.08 296.047C1282.08 296.047 1282.08 296.047 1281.88 296.047C1281.68 296.047 1281.68 296.047 1281.48 295.847C1281.28 295.847 1280.88 295.646 1280.68 295.646C1280.28 295.446 1279.88 295.446 1279.48 295.245C1279.28 295.245 1279.08 295.045 1278.88 295.045C1278.28 294.845 1277.88 294.845 1277.27 294.644C1277.07 294.644 1276.87 294.644 1276.67 294.444C1276.07 294.243 1275.47 294.243 1274.87 294.043C1274.67 294.043 1274.67 294.043 1274.47 294.043C1273.87 293.842 1273.07 293.842 1272.47 293.642H1272.26C1271.46 293.441 1270.66 293.441 1269.86 293.241C1254.63 290.635 1234.19 291.237 1217.16 301.259C1216.96 301.459 1216.75 301.459 1216.55 301.659C1216.15 301.86 1215.75 302.06 1215.55 302.261C1214.55 302.862 1213.55 303.463 1212.75 304.065C1212.35 304.265 1211.95 304.666 1211.34 304.866L1211.14 305.067C1211.14 305.067 1210.94 305.267 1210.74 305.267C1210.14 305.668 1209.74 305.869 1209.14 306.27C1208.74 306.47 1208.34 306.871 1207.94 307.071C1207.54 307.272 1207.34 307.472 1206.94 307.673C1206.33 308.073 1205.73 308.474 1205.13 308.875C1204.93 308.875 1204.93 309.076 1204.73 309.076C1204.53 309.076 1204.53 309.276 1204.33 309.276C1204.13 309.477 1203.93 309.677 1203.53 309.677C1202.93 310.078 1202.33 310.479 1201.93 310.88C1201.52 311.28 1200.92 311.481 1200.52 311.882C1200.32 312.082 1200.12 312.283 1199.92 312.483C1198.52 313.485 1197.12 314.487 1195.91 315.69C1195.51 315.891 1195.31 316.291 1194.91 316.492C1194.51 316.692 1194.11 317.093 1193.91 317.294C1193.51 317.694 1193.11 318.095 1192.71 318.296C1192.31 318.697 1191.91 319.098 1191.5 319.298C1191.3 319.498 1190.9 319.899 1190.7 320.1C1189.9 320.701 1189.3 321.302 1188.7 322.104C1188.5 322.305 1188.5 322.305 1188.3 322.505C1187.7 323.106 1187.1 323.708 1186.49 324.509C1185.89 325.111 1185.49 325.712 1184.89 326.113C1184.89 326.113 1184.89 326.113 1184.69 326.313C1184.09 326.915 1183.69 327.516 1183.29 328.117C1183.69 328.117 1184.09 328.117 1184.49 327.917C1185.89 327.716 1187.1 327.716 1188.5 327.716C1188.7 327.716 1188.9 327.716 1189.3 327.716C1189.9 327.716 1190.5 327.716 1190.9 327.716C1191.3 327.716 1191.71 327.716 1192.11 327.917C1192.51 327.917 1192.91 328.117 1193.31 328.117C1193.71 328.117 1194.11 328.318 1194.51 328.318C1194.91 328.318 1195.31 328.518 1195.71 328.518C1196.11 328.518 1196.51 328.719 1196.92 328.719C1197.32 328.919 1197.72 328.919 1198.12 329.119C1198.52 329.32 1198.92 329.32 1199.32 329.52C1199.72 329.721 1200.12 329.721 1200.52 329.921C1200.92 330.122 1201.32 330.122 1201.52 330.322C1201.93 330.523 1202.33 330.723 1202.73 330.923C1202.93 330.923 1203.13 331.124 1203.33 331.124L1206.53 338.139C1204.13 338.54 1201.73 339.342 1199.52 340.745C1196.72 342.549 1194.31 344.353 1192.31 345.956C1191.91 346.357 1191.71 346.558 1191.3 346.958L1191.1 347.159C1190.1 348.161 1189.3 349.163 1188.7 350.165L1188.5 350.366C1188.3 350.566 1188.1 350.967 1187.9 351.168C1187.9 351.368 1187.7 351.569 1187.7 351.569C1187.5 351.769 1187.5 352.17 1187.3 352.37C1187.3 352.571 1187.1 352.771 1187.1 352.972C1186.9 353.372 1186.9 353.773 1186.7 354.174C1186.7 354.375 1186.49 354.575 1186.49 354.976C1186.49 355.176 1186.49 355.377 1186.29 355.577C1186.29 355.778 1186.29 355.978 1186.29 356.179C1186.29 356.379 1186.29 356.579 1186.29 356.78C1186.29 356.98 1186.29 357.381 1186.29 357.582C1186.29 357.782 1186.29 357.983 1186.29 358.183C1186.29 358.584 1186.29 358.985 1186.49 359.386C1186.49 359.586 1186.49 359.586 1186.7 359.786C1186.7 360.187 1186.9 360.388 1186.9 360.789C1186.9 360.989 1187.1 361.19 1187.1 361.39C1187.3 361.791 1187.3 361.991 1187.5 362.392C1187.5 362.593 1187.7 362.793 1187.7 362.793C1187.9 363.194 1188.1 363.795 1188.5 364.196C1188.9 364.797 1189.3 365.599 1189.9 366C1190.1 366.201 1190.1 366.201 1190.3 366.401C1190.7 367.002 1191.3 367.403 1191.91 368.004C1192.51 368.405 1193.11 368.806 1193.71 369.007L1193.91 369.207C1194.51 369.608 1195.31 369.808 1195.91 370.009C1196.72 370.209 1197.32 370.209 1198.12 370.41C1198.12 370.41 1198.12 370.41 1198.32 370.41C1202.73 370.61 1208.14 368.806 1214.55 364.797C1215.75 363.996 1216.75 363.194 1217.76 362.192L1223.37 374.418C1222.37 378.026 1220.96 381.233 1218.96 384.44C1220.76 384.039 1222.77 383.639 1224.77 383.037H1224.97C1225.57 382.837 1226.37 382.636 1226.97 382.436C1227.18 382.436 1227.38 382.236 1227.38 382.236C1228.58 381.835 1229.58 381.434 1230.78 381.033C1231.18 380.832 1231.78 380.632 1232.19 380.432C1233.19 380.031 1233.99 379.63 1234.99 379.229C1235.39 379.029 1235.99 378.828 1236.39 378.628C1237.8 378.026 1239 377.425 1240.4 376.623H1240.6C1240.8 376.423 1241 376.423 1241.2 376.222C1242.61 375.621 1243.81 374.819 1245.21 374.218C1245.81 374.018 1246.21 373.617 1246.81 373.416C1247.01 373.216 1247.42 373.216 1247.62 373.015C1245.61 377.024 1245.01 380.231 1246.21 380.832C1250.62 383.438 1258.84 374.819 1262.85 369.608C1269.46 360.989 1272.26 355.778 1271.86 354.776C1272.26 354.375 1272.67 353.974 1273.07 353.372C1273.07 353.372 1273.07 353.372 1273.07 353.172C1274.87 350.967 1276.47 348.562 1278.08 346.357C1278.08 346.157 1278.28 346.157 1278.28 345.956C1278.88 344.954 1279.68 343.751 1280.28 342.749C1280.28 342.749 1280.28 342.549 1280.48 342.549C1281.08 341.547 1281.68 340.344 1282.28 339.342C1282.48 339.141 1282.48 338.941 1282.69 338.74C1283.09 337.939 1283.49 336.937 1283.89 336.135C1284.09 335.934 1284.09 335.734 1284.29 335.533C1284.69 334.531 1285.29 333.529 1285.69 332.527C1286.09 331.324 1286.69 330.322 1287.09 329.119V328.919C1287.49 327.917 1287.9 326.915 1288.1 325.912C1288.1 325.712 1288.3 325.512 1288.3 325.512C1288.7 324.509 1288.9 323.507 1289.3 322.505C1289.9 320.501 1290.3 318.496 1290.9 316.692C1290.9 316.492 1290.9 316.492 1290.9 316.291C1291.1 315.49 1291.3 314.688 1291.3 313.886V313.686C1291.5 312.082 1291.9 310.479 1291.9 309.076C1291.9 308.875 1291.9 308.875 1291.9 308.675C1291.9 308.073 1291.9 307.472 1291.9 307.071C1291.9 306.871 1291.9 306.871 1291.9 306.67C1292.3 305.468 1292.3 304.866 1292.3 304.466Z" fill="#231F20" fill-opacity="0.1"/>
<path d="M1174.27 285.023C1175.47 285.023 1176.48 285.023 1177.68 284.823C1181.49 284.622 1185.29 284.221 1188.9 283.419C1188.9 283.419 1188.9 283.419 1189.1 283.419C1190.3 283.219 1191.5 283.019 1192.71 282.618C1192.91 282.618 1192.91 282.618 1193.11 282.618H1193.31C1194.11 282.417 1194.71 282.217 1195.31 282.217C1195.31 282.217 1197.52 288.631 1201.52 294.444C1201.52 294.444 1225.17 269.389 1225.57 268.988C1228.38 267.184 1231.18 265.18 1233.79 263.175C1233.99 263.175 1233.99 262.975 1234.19 262.975C1234.79 262.574 1235.39 261.973 1235.99 261.572C1236.19 261.371 1236.39 261.371 1236.59 261.171C1237.2 260.77 1237.6 260.369 1238.2 259.768C1238.4 259.567 1238.4 259.567 1238.6 259.367C1238.6 259.367 1238.6 259.367 1238.8 259.166C1239.8 258.365 1240.8 257.363 1241.6 256.561L1241.8 256.36C1244.81 253.554 1247.62 250.748 1250.02 248.142C1250.82 247.341 1251.62 246.338 1252.23 245.537C1252.23 245.336 1252.43 245.336 1252.43 245.136C1253.03 244.334 1253.83 243.532 1254.43 242.731C1254.63 242.53 1254.63 242.33 1254.83 242.33C1255.43 241.528 1256.03 240.927 1256.63 240.125C1256.83 239.924 1256.83 239.724 1257.03 239.724C1257.44 239.123 1258.04 238.521 1258.44 237.92C1258.44 237.72 1258.64 237.72 1258.64 237.519C1265.05 228.7 1268.26 222.085 1268.26 222.085C1266.45 221.885 1264.85 221.685 1263.05 221.284C1262.65 221.284 1262.04 221.083 1261.64 221.083C1260.44 220.883 1259.24 220.883 1257.84 220.682C1257.44 220.682 1257.03 220.682 1256.43 220.482C1254.83 220.281 1253.43 220.282 1251.82 220.081H1251.62C1250.02 220.081 1248.22 219.881 1246.61 219.881C1246.41 219.881 1246.21 219.881 1246.21 219.881C1244.81 219.881 1243.41 219.881 1242 219.881C1241.8 219.881 1241.6 219.881 1241.4 219.881C1235.39 220.081 1229.58 220.682 1224.17 221.685C1222.97 221.885 1221.97 222.085 1220.76 222.286C1220.56 222.286 1220.56 222.286 1220.36 222.286C1219.36 222.486 1218.36 222.687 1217.56 222.887C1217.36 222.887 1217.16 222.887 1216.96 223.088C1215.95 223.288 1214.95 223.689 1214.15 223.889H1213.95C1212.15 224.491 1210.34 225.092 1208.74 225.693H1208.54C1206.94 226.295 1205.33 226.896 1203.73 227.698C1203.53 227.698 1203.53 227.698 1203.33 227.898C1202.73 228.099 1201.93 228.499 1201.32 228.7C1186.49 232.909 1150.42 248.142 1150.42 248.142L1163.05 263.576C1159.84 268.988 1157.64 273.798 1156.24 277.406C1156.24 277.406 1132.99 277.807 1114.35 283.82C1114.15 283.82 1114.15 283.82 1113.95 284.021C1112.15 284.622 1110.14 285.424 1108.54 286.025C1108.34 286.025 1108.14 286.226 1107.94 286.226C1107.14 286.627 1106.34 287.027 1105.33 287.428L1123.57 297.25L1123.37 317.895C1123.37 317.895 1123.37 317.895 1123.57 317.895C1123.57 317.895 1123.57 317.895 1123.77 317.895C1123.97 317.895 1123.97 317.694 1124.17 317.694C1124.17 317.694 1124.37 317.494 1124.57 317.494C1124.57 317.494 1124.77 317.294 1124.97 317.294C1125.17 317.093 1125.57 316.893 1125.77 316.692C1125.98 316.692 1125.98 316.492 1126.18 316.492C1126.38 316.291 1126.58 316.091 1126.98 315.89C1126.98 315.89 1126.98 315.89 1127.18 315.89C1127.58 315.49 1128.18 315.089 1128.78 314.688C1128.98 314.487 1128.98 314.487 1129.18 314.287C1129.58 313.886 1130.18 313.485 1130.78 313.084C1130.99 312.884 1131.19 312.884 1131.39 312.683C1131.79 312.483 1131.99 312.283 1132.39 311.882C1132.79 311.681 1132.99 311.28 1133.39 311.08C1133.59 310.88 1133.79 310.679 1133.99 310.679C1142.21 304.265 1153.63 294.043 1159.84 283.62C1160.04 283.62 1160.04 283.62 1160.24 283.62C1161.04 283.62 1161.85 283.82 1162.65 283.82C1163.05 283.82 1163.65 283.82 1164.05 284.021C1164.85 284.021 1165.65 284.221 1166.46 284.221C1166.86 284.221 1167.26 284.221 1167.86 284.221C1168.66 284.221 1169.46 284.221 1170.26 284.221C1170.66 284.221 1171.06 284.221 1171.26 284.221C1172.27 284.221 1173.07 284.221 1174.07 284.221C1173.87 285.023 1174.07 285.023 1174.27 285.023Z" fill="#231F20" fill-opacity="0.1"/>
<path d="M710.954 393.661L733.599 353.573C733.599 353.573 731.595 400.075 751.835 399.072C771.073 398.07 807.746 379.429 825.982 362.392C828.387 361.19 830.992 359.786 833.196 358.383C833.196 361.19 832.795 367.804 827.986 376.222C827.986 376.222 842.414 361.59 845.621 348.963C846.623 347.961 847.424 347.159 848.426 346.157C848.426 346.157 850.831 355.377 847.825 362.593C847.825 362.593 856.041 348.362 854.638 337.738C856.041 335.133 857.244 332.727 858.246 330.122C863.656 313.485 872.073 310.88 880.89 302.862C889.708 294.845 881.492 294.243 881.492 294.243C874.678 294.043 849.027 293.241 843.416 281.215C838.607 270.792 828.988 262.774 816.764 258.966C735.403 206.05 701.536 282.618 700.534 298.853C698.931 325.712 723.98 334.932 724.18 334.932C724.581 336.937 724.982 338.74 725.583 340.544L694.522 331.926L681.496 328.318C681.095 328.518 691.315 375.822 710.954 393.661Z" fill="#231F20" fill-opacity="0.1"/>
<path d="M696.325 752.244C692.518 748.837 682.698 740.819 668.671 733.604C668.671 733.604 575.887 664.653 507.552 735.007C500.538 742.222 489.516 765.473 513.564 775.094H513.965C502.542 788.524 490.919 804.96 479.497 824.803C479.497 824.803 458.655 844.245 410.961 833.622C410.961 833.622 435.009 847.252 442.022 851.862L426.792 882.329C426.792 882.329 453.445 852.063 486.711 847.052C494.526 849.657 504.746 852.664 516.369 855.069C506.951 861.082 501.139 869.3 501.139 869.3C585.306 910.991 635.605 843.644 640.615 836.428C661.256 822.598 680.093 801.352 694.321 769.682C696.325 765.273 690.313 761.865 691.516 761.665C699.732 760.462 700.534 756.053 698.73 754.249C697.929 753.447 697.528 753.246 696.325 752.244Z" fill="#231F20" fill-opacity="0.1"/>
<path d="M873.476 615.746C873.476 615.746 877.283 613.742 877.083 610.935C876.682 604.722 871.672 606.927 871.672 606.927C871.672 606.927 857.043 614.543 828.787 601.114C823.777 598.709 818.968 597.105 814.158 596.303C812.355 595.702 757.246 575.057 727.387 588.286C727.387 588.286 759.45 607.728 755.242 641.202V641.402C755.242 642.404 755.042 643.406 754.841 644.409C754.641 646.213 754.44 647.816 754.44 649.62C754.44 656.034 754.04 661.646 753.438 666.056C748.629 665.054 743.819 664.653 739.01 664.653C717.968 664.853 696.927 674.073 683.5 681.089C696.325 683.895 707.948 691.912 714.762 704.34C723.78 720.575 722.377 739.817 712.758 754.249C724.381 748.236 750.432 733.203 764.661 710.954C766.865 707.346 768.869 703.538 770.472 699.73C783.097 706.745 799.129 714.562 812.956 718.17C832.996 723.582 829.99 742.824 829.99 742.824C853.837 722.179 868.666 654.431 869.067 652.627C875.279 636.792 877.684 622.561 877.885 617.75C877.684 615.345 873.476 615.746 873.476 615.746Z" fill="#231F20" fill-opacity="0.1"/>
<path d="M926.18 543.187C926.982 540.983 927.984 538.978 928.986 537.174C934.396 527.353 942.011 520.538 942.011 520.538C961.65 509.313 978.884 493.078 983.293 469.827C984.696 470.228 986.099 470.428 987.101 469.827C987.301 469.827 989.706 468.624 988.103 466.219C987.702 465.618 987.1 465.217 986.299 465.217C985.297 465.017 985.497 465.217 985.698 464.415C985.898 463.814 985.698 463.012 985.297 462.411C983.493 460.206 981.489 462.01 981.489 462.21C980.487 463.012 980.287 464.215 980.087 465.818C971.87 463.413 949.426 459.605 923.575 477.444C923.575 477.444 900.93 490.673 879.287 495.082C876.682 495.684 874.077 496.084 871.472 496.285C871.472 496.285 889.708 517.13 867.464 541.784C862.254 545.593 855.24 548.599 846.823 549.401C842.815 549.401 839.008 549 835.601 549C829.389 548.8 824.579 549 822.575 551.405C826.583 551.806 830.591 553.009 833.998 555.013C837.605 557.018 840.611 559.824 843.216 563.432C848.226 570.447 849.428 579.066 847.224 586.883C849.428 586.081 851.232 583.275 852.835 579.266C854.438 575.458 856.041 570.647 857.845 565.636H858.045C865.26 551.405 878.285 544.791 886.101 541.985C909.748 534.969 926.18 543.187 926.18 543.187Z" fill="#231F20" fill-opacity="0.1"/>
<path d="M1426.77 256.561C1425.97 256.36 1426.17 256.561 1426.37 255.959C1426.57 255.559 1426.57 254.957 1426.37 254.556C1425.57 252.752 1423.96 253.955 1423.76 253.955C1422.96 254.356 1422.76 255.158 1422.36 256.16C1417.15 253.554 1402.52 248.343 1382.88 257.162C1382.88 257.162 1366.05 263.376 1351.02 263.777C1349.22 263.777 1347.41 263.777 1345.61 263.576C1345.61 263.576 1355.43 279.812 1337.39 293.642C1333.39 295.446 1328.38 296.849 1322.56 296.248C1319.96 295.646 1317.35 295.045 1315.15 294.644C1311.14 293.842 1307.73 293.241 1306.13 294.644C1308.74 295.446 1311.34 296.648 1313.35 298.452C1315.55 300.256 1317.35 302.461 1318.56 305.267C1320.96 310.679 1320.76 316.492 1318.56 321.503C1320.16 321.302 1321.76 319.498 1323.17 317.093C1324.77 314.688 1326.37 311.681 1328.17 308.474C1334.79 299.855 1344.41 296.849 1349.82 295.847C1366.45 294.444 1376.47 301.86 1376.47 301.86C1377.27 300.457 1378.07 299.254 1379.08 298.051C1383.89 292.038 1389.9 288.43 1389.9 288.43C1404.53 283.219 1417.95 274.4 1423.56 259.367C1424.57 259.768 1425.37 260.169 1426.17 259.768C1426.37 259.768 1428.17 259.166 1427.37 257.363C1427.77 256.962 1427.37 256.761 1426.77 256.561Z" fill="#231F20" fill-opacity="0.1"/>
<path d="M314.771 857.875C314.771 857.875 308.558 849.858 283.709 843.444L287.918 855.871C271.685 856.272 253.85 859.278 234.612 866.895C234.612 866.895 223.39 861.483 201.948 855.871C194.934 854.067 186.918 852.263 177.7 850.459L193.13 868.498L174.894 881.527C174.894 881.527 213.37 885.135 233.61 878.52C244.432 884.934 263.469 894.155 287.116 898.765L285.914 915.201C293.729 913.798 313.969 901.771 314.771 901.37C334.209 901.37 355.652 897.161 377.896 886.137C378.096 885.937 354.249 864.49 314.771 857.875Z" fill="#231F20" fill-opacity="0.1"/>
<path d="M1.75159 382.035H1.95199H2.15239H2.35278C2.55318 382.035 2.55317 382.035 2.75357 382.035C2.95396 382.035 2.95397 382.035 3.15437 382.035C3.35477 382.035 3.35476 382.035 3.55516 382.035C3.75555 382.035 3.75556 382.035 3.95596 382.035C4.15635 382.035 4.35674 382.035 4.55714 382.035C4.75753 382.035 4.95794 382.035 5.15833 382.035C5.35873 382.035 5.55912 382.035 5.75951 382.035C5.95991 382.035 6.16031 382.035 6.36071 382.035C6.5611 382.035 6.76151 382.035 6.9619 382.035C7.1623 382.035 7.36268 382.035 7.76348 382.035C7.96387 382.035 8.16427 382.035 8.56506 382.035C8.76546 382.035 9.16626 382.035 9.36665 382.035C9.56705 382.035 9.76745 382.035 9.96785 382.035C10.3686 382.035 10.7694 382.035 11.1702 382.035C11.3706 382.035 11.571 382.035 11.7714 382.035C12.3726 382.035 12.9738 382.035 13.3746 382.035C13.3746 382.035 13.3746 382.035 13.575 382.035C25.9995 382.436 44.8368 382.436 56.8606 378.427C67.0808 384.44 85.1165 393.26 107.561 397.469L106.559 413.103C113.974 411.7 133.212 400.275 134.013 400.075C152.45 400.075 172.69 396.066 193.731 385.643C193.731 385.643 171.087 365.399 133.813 359.185C133.813 359.185 127.801 351.569 104.555 345.555L108.563 357.381C93.3327 357.782 76.299 360.789 58.063 367.804C58.063 367.804 47.442 362.793 27.2019 357.381C26.4003 357.181 25.5988 356.98 24.5968 356.78C23.7952 356.58 22.9936 356.379 21.9916 356.179C20.3885 355.778 18.7853 355.377 17.1821 354.976C16.9817 354.976 16.5809 354.776 16.3805 354.776C14.577 354.375 12.7734 353.974 10.9698 353.573C10.7694 353.573 10.569 353.573 10.3686 353.373C8.36467 352.972 6.16032 352.571 3.95596 352.17L18.5849 369.207L1.3508 381.434C1.5512 382.035 1.55119 382.035 1.75159 382.035Z" fill="#231F20" fill-opacity="0.1"/>
<path d="M1174.27 180.795C1174.27 180.996 1174.27 180.996 1174.27 180.795C1172.47 181.396 1170.66 181.998 1168.86 182.599C1168.66 182.599 1168.66 182.599 1168.46 182.8C1166.66 183.401 1164.85 184.002 1163.05 184.604C1162.85 184.604 1162.85 184.603 1162.65 184.804C1160.84 185.405 1158.84 186.207 1156.84 187.009L1178.08 194.024L1169.66 213.467C1169.66 213.467 1169.86 213.467 1170.06 213.266C1170.06 213.266 1170.26 213.266 1170.26 213.066C1170.26 213.066 1170.46 213.066 1170.46 212.865C1170.66 212.865 1170.66 212.665 1170.86 212.665H1171.06C1171.26 212.665 1171.47 212.464 1171.67 212.464C1171.87 212.464 1171.87 212.264 1172.07 212.264C1172.27 212.264 1172.47 212.064 1172.67 212.064C1172.87 212.064 1172.87 211.863 1173.07 211.863C1173.27 211.663 1173.47 211.663 1173.67 211.462C1173.87 211.462 1173.87 211.262 1174.07 211.262C1174.27 211.061 1174.47 211.061 1174.87 210.861C1175.07 210.861 1175.27 210.66 1175.47 210.66C1175.67 210.46 1176.07 210.46 1176.27 210.26C1176.48 210.059 1176.68 210.059 1176.88 209.859C1177.08 209.658 1177.48 209.658 1177.68 209.458C1177.88 209.257 1178.08 209.257 1178.48 209.057C1178.68 208.857 1178.88 208.857 1179.28 208.656C1179.68 208.456 1180.08 208.255 1180.28 208.055C1180.48 208.055 1180.68 207.854 1180.88 207.854C1191.71 201.841 1207.74 192.02 1215.95 182.198C1227.98 181.998 1247.82 180.194 1269.26 172.176L1276.47 186.007C1282.08 180.996 1292.7 161.353 1293.11 160.551C1308.74 150.93 1324.17 137.1 1336.59 117.056C1336.59 117.056 1306.73 111.444 1271.66 125.474C1271.66 125.474 1262.65 122.067 1239.6 129.082L1249.22 137.1C1236.39 145.318 1223.37 156.743 1211.54 172.176C1211.14 172.176 1197.32 173.579 1174.27 180.795Z" fill="#231F20" fill-opacity="0.1"/>
<path d="M1129.78 232.909C1104.33 227.898 1096.12 222.887 1072.47 230.304C1070.47 226.896 1067.06 224.892 1061.85 225.092C1058.04 225.092 1053.63 226.295 1048.22 228.7C1044.61 230.303 1040.81 232.508 1036.4 235.114C1032.39 237.72 1027.98 240.927 1023.17 244.735C1019.77 247.541 1016.16 250.548 1012.35 253.955C1008.74 257.162 1005.14 260.77 1001.13 264.578C997.722 267.986 994.114 271.794 990.307 275.803C987.702 278.609 984.896 281.616 982.091 284.823L999.325 288.831C994.916 294.444 990.507 300.056 986.099 305.468C967.061 305.067 946.019 302.461 933.996 310.278L968.063 322.305L959.847 356.98C973.674 350.967 981.089 331.926 990.708 315.69C1000.33 314.087 1013.55 311.681 1028.18 307.873L1014.15 323.507C1015.36 323.708 1039.6 325.311 1048.42 301.86C1086.9 289.232 1126.38 267.986 1129.78 232.909Z" fill="#231F20" fill-opacity="0.1"/>
</g>
<defs>
<clipPath id="clip0_88_690">
<rect width="1719" height="915" fill="white" transform="translate(-176)"/>
</clipPath>
</defs>
</svg>
