<svg width="1366" height="433" viewBox="0 0 1366 433" fill="none" xmlns="http://www.w3.org/2000/svg">
<g clip-path="url(#clip0_88_666)">
<path d="M1613 247.706C1613 248.942 1591.28 208.172 1484.75 193.347C1484.75 193.347 1445.06 187.478 1389.92 200.76C1389.92 200.76 1357.75 206.937 1348.14 206.628C1348.14 206.628 1320.16 186.243 1305.12 175.433C1305.12 175.433 1320.99 196.435 1324.75 201.995C1328.51 207.554 1333.11 212.805 1326 222.689C1326 222.689 1315.14 240.911 1312.64 244.309C1312.64 244.309 1330.6 235.043 1338.12 225.777C1341.04 221.762 1348.56 211.261 1351.9 211.261C1355.25 211.261 1374.46 212.496 1410.81 223.306C1565.38 272.724 1613 249.868 1613 247.706Z" fill="#231F20" fill-opacity="0.1"/>
<path d="M1374.88 110.881C1374.88 111.19 1356.08 85.2456 1262.09 88.9519C1262.09 88.9519 1227 89.8785 1178.12 106.248C1178.12 106.248 1149.29 114.587 1140.94 115.205C1140.94 115.205 1116.29 102.233 1102.92 95.1291C1102.92 95.1291 1116.71 109.954 1120.05 113.97C1123.39 117.985 1127.57 121.382 1121.3 129.722C1121.3 129.722 1111.7 144.856 1109.19 147.944C1109.19 147.944 1125.06 138.987 1131.75 130.957C1134.67 127.56 1140.94 118.603 1144.28 118.294C1147.21 117.985 1164.33 116.749 1196.5 121.073C1332.69 140.532 1375.3 112.116 1374.88 110.881Z" fill="#231F20" fill-opacity="0.1"/>
<path d="M1174.78 19.1494C1174.78 18.8405 1155.98 -2.16203 1042.35 1.5443C1042.35 1.85316 1000.16 1.85317 938.747 17.9139C938.747 17.9139 903.238 25.9443 892.794 26.2532C892.794 26.2532 865.222 9.88354 850.183 0C850.183 0 864.805 18.8405 868.147 23.7823C871.489 28.724 876.084 33.0481 867.311 42.3139C867.311 42.3139 853.525 59.6101 850.183 63.0076C850.183 63.0076 870.653 53.1241 879.844 44.1671C883.604 40.4608 892.794 30.2684 896.554 30.2684C900.314 29.9595 920.784 29.6506 958.381 34.5924C1118.8 53.7418 1174.78 18.5316 1174.78 19.1494Z" fill="#231F20" fill-opacity="0.1"/>
<path d="M1189.4 213.732C1189.4 214.04 1172.69 185.934 1078.69 195.818C1078.69 195.818 1043.6 198.906 993.89 220.835C993.89 220.835 964.648 231.954 956.293 232.881C956.293 232.881 932.899 218.365 920.366 210.025C920.366 210.025 932.898 227.322 935.823 231.954C938.747 236.587 942.507 240.603 935.823 250.795C935.823 250.795 924.961 269.018 922.455 272.415C922.455 272.415 939.165 261.605 946.267 252.03C949.191 248.015 956.293 237.205 959.635 236.587C962.559 236.278 979.687 234.116 1011.02 237.514C1144.7 253.266 1189.4 214.349 1189.4 213.732Z" fill="#231F20" fill-opacity="0.1"/>
<path d="M556.921 430.243C556.921 429.934 540.629 406.77 447.052 422.213C447.052 422.213 412.378 427.772 362.248 447.848C362.248 447.848 333.005 457.732 324.65 458.041C324.65 458.041 301.256 444.142 288.724 435.803C288.724 435.803 301.256 452.481 304.18 456.805C307.105 461.129 310.864 464.835 303.763 473.175C303.763 473.175 292.901 488 290.395 490.471C290.395 490.471 307.105 482.441 314.206 474.41C317.131 471.013 324.65 461.747 327.575 461.438C330.499 461.129 347.627 459.894 378.958 462.982C512.639 475.646 556.921 430.552 556.921 430.243Z" fill="#231F20" fill-opacity="0.1"/>
<path d="M115.774 471.63C115.774 470.704 95.304 444.142 -23.3378 435.185C-23.3378 435.185 -67.6196 431.479 -131.118 437.965C-131.118 437.965 -168.298 439.2 -178.742 436.42C-178.742 436.729 -208.402 408.005 -224.695 390.091C-224.695 390.091 -208.402 418.815 -205.06 425.61C-201.3 432.714 -196.287 439.509 -205.06 448.157C-205.06 448.157 -218.846 464.527 -222.188 467.306C-222.188 467.306 -200.883 462.365 -191.692 454.334C-187.932 450.937 -178.742 441.362 -174.982 441.98C-171.222 442.598 -149.499 448.466 -109.395 463.6C60.2128 520.739 115.774 469.16 115.774 471.63Z" fill="#231F20" fill-opacity="0.1"/>
<path d="M833.473 348.086C833.473 348.086 823.865 332.952 770.393 343.144C770.393 343.144 750.34 346.851 721.933 361.058C721.933 361.058 705.223 368.162 700.628 369.089C700.628 369.089 687.26 361.058 680.158 356.116C680.158 356.116 687.26 366.309 688.931 368.78C690.602 371.559 692.691 373.721 688.931 379.59C688.931 379.59 682.665 390.091 681.411 391.944C681.411 391.944 691.02 385.767 695.197 379.899C696.868 377.428 701.046 371.251 702.717 370.633C704.388 370.324 713.996 368.78 732.377 370.015C807.99 376.192 833.473 348.086 833.473 348.086Z" fill="#231F20" fill-opacity="0.1"/>
<path d="M858.956 84.0102C858.956 84.0102 849.348 71.038 795.458 77.2152C795.458 77.2152 775.406 79.0684 746.581 90.8051C746.581 90.8051 729.871 96.6734 724.858 96.9823C724.858 96.9823 711.49 88.3342 703.97 83.0836C703.97 83.0836 711.072 93.5848 712.743 96.0557C714.414 98.8355 716.503 100.997 712.743 106.557C712.743 106.557 706.477 116.441 705.223 118.294C705.223 118.294 714.832 112.425 719.009 107.175C720.68 105.013 724.858 99.1443 726.529 98.8355C728.2 98.5266 738.226 97.9089 756.189 99.762C833.473 107.792 858.956 83.7013 858.956 84.0102Z" fill="#231F20" fill-opacity="0.1"/>
<path d="M452.483 258.208C452.483 258.208 444.545 245.235 399.846 251.721C399.846 251.721 383.136 253.884 359.324 265.003C359.324 265.003 345.538 270.562 341.361 270.562C341.361 270.562 330.081 262.223 324.233 257.281C324.233 257.281 330.499 267.165 331.752 269.635C333.005 272.106 335.094 274.577 331.752 279.519C331.752 279.519 326.739 288.476 325.486 290.02C325.486 290.02 333.423 285.078 336.765 280.137C338.018 278.284 341.778 272.724 343.032 272.415C344.285 272.106 352.64 271.797 367.679 273.651C431.595 282.299 452.483 257.899 452.483 258.208Z" fill="#231F20" fill-opacity="0.1"/>
<path d="M1267.1 431.787C1267.1 431.787 1256.66 410.785 1200.26 413.256C1200.26 413.256 1179.37 413.873 1149.29 427.154C1149.29 427.154 1131.75 433.332 1126.74 433.64C1126.74 433.64 1112.53 420.977 1105.01 413.873C1105.01 413.873 1112.95 427.772 1114.62 431.478C1116.29 435.185 1118.8 438.582 1114.62 445.377C1114.62 445.377 1108.35 458.04 1106.68 460.203C1106.68 460.203 1116.71 453.716 1120.89 446.921C1122.56 444.142 1126.74 436.729 1128.82 436.42C1130.5 436.42 1140.94 436.111 1159.74 441.053C1240.78 461.747 1267.1 431.787 1267.1 431.787Z" fill="#231F20" fill-opacity="0.1"/>
<path d="M1417.49 344.997C1417.49 344.997 1409.55 329.246 1364.02 326.466C1364.02 326.466 1347.31 325.23 1323.08 332.952C1323.08 332.952 1309.29 336.349 1305.12 336.04C1305.12 336.04 1293.84 325.848 1287.57 320.289C1287.57 320.289 1293.84 331.099 1295.09 333.878C1296.34 336.658 1298.43 339.129 1295.09 344.071C1295.09 344.071 1290.08 353.028 1288.82 354.572C1288.82 354.572 1296.76 350.248 1300.1 345.615C1301.36 343.762 1305.12 338.511 1306.37 338.511C1307.62 338.511 1315.98 339.129 1331.02 343.762C1396.19 363.529 1417.49 344.997 1417.49 344.997Z" fill="#231F20" fill-opacity="0.1"/>
<path d="M181.361 185.625C181.361 185.316 165.069 154.43 76.0874 155.666C76.0874 155.357 43.0849 156.284 -4.53892 172.035C-4.53892 172.035 -32.1106 178.83 -40.0479 177.904C-40.0479 177.904 -62.6065 155.975 -74.7214 143.311C-74.7214 143.311 -62.1888 166.476 -59.6823 172.344C-56.758 178.213 -52.9982 183.772 -59.6823 193.038C-59.6823 193.038 -69.7083 209.716 -72.2149 212.496C-72.2149 212.496 -56.3403 205.392 -49.6562 196.744C-46.7319 193.038 -40.0479 182.537 -37.1236 182.846C-34.1994 182.846 -17.907 184.699 12.1712 194.582C140.004 235.97 181.361 185.008 181.361 185.625Z" fill="#231F20" fill-opacity="0.1"/>
<path d="M1153.89 358.896C1153.89 359.205 1136.76 326.466 1043.19 337.585C1043.19 337.585 1008.09 341.291 958.381 365.073C958.381 365.073 929.139 376.81 920.784 377.737C920.784 377.737 897.39 361.058 884.857 351.792C884.857 351.792 897.807 371.251 900.314 376.501C903.238 381.752 906.998 386.385 900.314 397.195C900.314 397.195 889.452 416.653 886.946 420.36C886.946 420.36 903.656 409.241 910.758 399.048C913.682 394.724 920.784 382.987 923.708 382.37C926.632 382.061 943.76 380.208 975.091 384.841C1109.61 406.461 1153.89 359.514 1153.89 358.896Z" fill="#231F20" fill-opacity="0.1"/>
<path d="M917.441 148.871C917.441 148.871 903.238 128.795 821.776 141.458C821.776 141.458 791.28 145.782 748.252 165.858C748.252 165.858 722.769 176.051 715.667 176.977C715.667 176.977 695.197 164.623 684.335 156.901C684.335 156.901 695.197 172.344 697.703 176.359C700.21 180.375 703.552 183.772 697.703 192.729C697.703 192.729 688.513 208.481 686.006 211.57C686.006 211.57 700.21 201.995 706.476 193.656C708.983 190.258 715.249 180.684 717.756 180.066C720.262 179.448 735.301 177.595 762.455 179.448C879.008 186.552 917.441 148.562 917.441 148.871Z" fill="#231F20" fill-opacity="0.1"/>
<path d="M628.357 119.838C628.357 119.838 608.304 87.7165 495.511 98.8355C495.511 98.8355 453.318 102.233 393.58 130.03C393.58 130.03 358.488 143.62 348.462 143.929C348.462 143.929 320.055 119.22 304.598 103.777C304.598 103.777 320.473 133.119 323.815 140.223C327.157 147.635 332.17 154.122 323.815 167.711C323.815 167.711 310.865 192.111 307.94 196.744C307.94 196.744 327.992 183.772 336.347 170.8C339.689 165.549 348.462 150.415 352.222 150.106C355.982 149.797 376.452 149.18 414.467 155.975C575.72 180.684 628.357 117.985 628.357 119.838Z" fill="#231F20" fill-opacity="0.1"/>
<path d="M267 332.643C267 332.025 244.442 297.124 116.609 300.522C116.609 300.213 68.9856 301.757 0.891878 319.053C0.891878 319.362 -39.2124 325.848 -50.4917 323.686C-50.4917 323.686 -82.6587 294.036 -100.204 276.122C-100.204 276.122 -82.6587 307.008 -78.8989 314.729C-75.1391 322.451 -69.7083 329.863 -78.8989 340.673C-78.8989 340.673 -93.938 360.441 -97.28 363.529C-97.28 363.529 -74.3036 356.734 -64.6953 346.233C-60.5178 342.218 -50.9095 329.554 -46.7319 330.172C-42.5544 330.481 -19.1603 334.805 23.8683 348.086C207.262 400.592 266.583 330.481 267 332.643Z" fill="#231F20" fill-opacity="0.1"/>
<path d="M663.448 315.347C663.448 315.347 647.573 291.565 557.756 309.17C557.756 309.17 524.336 315.347 476.712 338.511C476.712 338.511 448.723 349.939 440.786 350.866C440.786 350.866 418.227 336.658 406.112 328.01C406.112 328.01 418.227 345.924 421.151 350.248C424.075 354.881 427.835 358.896 421.151 368.162C421.151 368.162 410.707 385.149 408.201 387.929C408.201 387.929 424.076 378.046 431.177 369.089C434.102 365.382 440.786 354.881 443.71 354.263C446.634 353.646 462.926 351.792 493.005 353.954C621.255 363.22 663.448 315.347 663.448 315.347Z" fill="#231F20" fill-opacity="0.1"/>
</g>
<defs>
<clipPath id="clip0_88_666">
<rect width="1859" height="610" fill="white" transform="translate(-246)"/>
</clipPath>
</defs>
</svg>
