<svg width="1719" height="915" viewBox="0 0 1719 915" fill="none" xmlns="http://www.w3.org/2000/svg">
<g clip-path="url(#clip0_186_248)">
<path d="M218.833 490.673C258.511 520.538 143.283 510.115 143.283 510.115C143.283 510.115 266.728 553.009 371.134 526.15C362.918 532.965 353.098 539.179 353.098 539.179C353.098 539.179 380.152 537.174 398.188 517.331C398.789 517.13 399.59 516.73 400.392 516.529C417.626 513.322 430.251 509.113 437.065 506.307C438.267 508.111 440.271 509.514 441.874 509.714C451.092 510.716 444.68 503.3 444.68 503.3C444.68 503.3 451.693 497.287 443.678 496.886C441.273 496.686 439.67 497.688 438.467 499.091C427.245 488.668 415.221 480.45 402.797 474.036C304.001 409.896 151.099 427.935 151.099 427.935C151.099 427.935 267.329 438.759 221.438 461.208C187.571 443.77 140.478 450.986 140.478 450.986C140.478 450.986 169.535 465.818 175.748 472.633C175.748 472.633 154.305 484.659 137.272 487.866C136.47 487.866 180.357 501.095 218.833 490.673Z" fill="#231F20" fill-opacity="0.1"/>
<path d="M1716.6 97.8138C1716.6 97.8138 1719.4 92.8029 1714.59 94.206C1713.19 94.6068 1712.39 95.609 1711.99 96.6112C1703.17 93.0033 1694.55 90.9989 1685.93 89.9968C1614.59 74.563 1530.03 118.659 1530.03 118.659C1530.03 118.659 1599.76 99.4173 1578.12 122.468C1554.67 119.862 1529.02 134.494 1529.02 134.494C1529.02 134.494 1549.06 136.699 1554.27 139.305C1554.27 139.305 1544.45 151.13 1535.24 156.542C1535.24 156.542 1563.49 154.538 1583.53 140.106C1613.19 148.725 1544.05 167.967 1544.05 167.967C1544.05 167.967 1625.01 165.762 1679.52 127.278C1676.32 133.091 1671.91 138.703 1671.91 138.703C1671.91 138.703 1687.14 131.487 1693.15 116.254C1693.55 115.853 1693.75 115.653 1694.15 115.252C1703.57 109.64 1709.78 104.428 1713.19 101.221C1714.19 102.023 1715.79 102.424 1716.8 102.223C1722.01 100.62 1716.6 97.8138 1716.6 97.8138Z" fill="#231F20" fill-opacity="0.1"/>
<path d="M344.682 740.018C346.686 744.828 358.91 742.824 365.323 741.02C376.144 738.013 381.755 735.407 381.956 734.205C382.557 734.004 383.158 734.004 383.559 733.804H383.759C386.565 733.002 389.37 732.2 392.176 731.198C392.376 731.198 392.577 730.998 392.577 730.998C393.779 730.597 395.182 729.996 396.384 729.394C397.586 728.793 398.789 728.392 399.991 727.791C400.192 727.791 400.392 727.59 400.592 727.59C401.594 727.19 402.396 726.588 403.398 726.187C403.598 725.987 403.799 725.987 403.999 725.786C405.001 725.185 406.003 724.584 407.005 724.183C408.007 723.582 409.209 722.98 410.211 722.179L410.412 721.978C411.213 721.377 412.215 720.776 413.017 720.174C413.217 719.974 413.418 719.974 413.618 719.773C414.42 719.172 415.221 718.571 416.023 717.969C416.023 717.969 416.223 717.969 416.223 717.769C417.025 717.168 418.027 716.366 418.828 715.765C418.828 715.765 418.828 715.765 419.029 715.765C419.83 715.163 420.432 714.562 421.233 713.961C421.434 713.76 421.434 713.76 421.634 713.56C422.235 712.958 422.836 712.558 423.438 711.956L423.638 711.756C424.239 711.155 424.84 710.553 425.442 709.952C426.043 709.351 426.444 708.95 426.844 708.348C427.045 708.148 427.045 708.148 427.245 707.948C427.646 707.547 428.047 707.146 428.247 706.745C428.247 706.544 428.448 706.544 428.448 706.344C428.848 705.943 429.249 705.342 429.45 704.941C429.45 704.941 429.45 704.941 429.45 704.74C429.65 704.34 430.051 703.939 430.251 703.538C430.251 703.337 430.451 703.337 430.451 703.137C430.652 702.937 430.652 702.536 430.852 702.335C430.852 702.335 430.852 702.135 431.053 702.135C431.253 701.734 431.253 701.533 431.253 701.333C431.253 701.133 431.253 700.932 431.253 700.531V700.331V700.13C431.253 699.93 431.253 699.93 431.253 699.73C431.253 699.529 431.053 699.329 431.053 699.128V698.928V698.727C431.053 698.527 430.852 698.326 430.852 697.926C430.852 697.725 430.652 697.725 430.652 697.525V697.324C430.451 697.124 430.451 696.923 430.251 696.723C430.251 696.523 430.051 696.523 430.051 696.322C429.85 696.122 429.85 695.921 429.65 695.721V695.52C429.65 695.52 429.65 695.32 429.45 695.32C429.45 695.32 429.449 695.119 429.249 695.119C429.049 694.719 428.848 694.318 428.448 693.917C428.448 693.917 428.448 693.716 428.247 693.716C428.047 693.316 427.646 692.714 427.245 692.313C418.428 679.285 396.985 658.439 369.731 655.633C369.531 655.633 369.331 655.633 369.13 655.633C368.729 655.633 368.529 655.633 368.329 655.633C366.926 655.433 365.323 655.433 363.92 655.232C363.519 655.232 363.319 655.232 362.918 655.232C359.912 655.032 356.906 654.831 354.1 654.831C353.9 654.831 353.7 654.831 353.7 654.831C352.698 654.831 351.696 654.831 350.894 654.831C350.493 654.831 350.293 654.831 349.892 654.831C349.291 654.831 348.489 654.831 347.888 654.831C346.285 654.831 344.882 654.831 343.279 654.831C342.678 654.831 342.277 654.831 341.876 654.831C341.475 654.831 341.075 654.831 340.473 654.831C339.872 654.831 339.472 654.831 338.87 655.032C338.269 655.032 337.668 655.032 336.866 655.232C336.466 655.232 336.265 655.232 335.864 655.232C334.862 655.433 333.86 655.433 332.858 655.633H332.658C330.854 655.834 329.051 656.234 327.247 656.635C326.446 656.836 325.644 657.036 325.043 657.237C325.644 657.638 326.245 657.838 326.646 658.239C327.648 658.84 328.65 659.441 329.452 660.243C329.852 660.644 330.253 660.845 330.654 661.245C330.854 661.446 331.055 661.646 331.456 661.847C331.856 662.248 332.057 662.448 332.458 662.849C332.658 663.049 333.059 663.45 333.259 663.651C333.66 664.052 333.86 664.252 334.261 664.653C334.462 664.853 334.662 665.254 335.063 665.455C335.464 665.855 335.664 666.256 335.864 666.457C336.065 666.657 336.265 667.058 336.466 667.259C336.666 667.659 337.067 668.06 337.267 668.461C337.468 668.862 337.668 669.063 337.868 669.463C338.069 669.864 338.47 670.265 338.67 670.666C338.87 671.067 339.071 671.267 339.271 671.668C339.471 671.869 339.471 672.069 339.672 672.47L338.069 680.287C335.864 679.084 333.259 678.283 330.654 678.082C327.247 677.681 324.241 677.681 321.436 678.082C319.231 678.283 317.227 678.684 315.424 679.285C314.622 679.686 313.821 679.886 313.019 680.287C313.019 680.287 312.819 680.287 312.819 680.487C312.218 680.888 311.616 681.289 311.015 681.69C311.015 681.69 311.015 681.69 310.815 681.69C310.214 682.091 309.813 682.692 309.412 683.294C309.412 683.494 309.212 683.494 309.212 683.694C308.811 684.296 308.41 684.897 308.21 685.498C308.21 685.498 308.21 685.498 308.21 685.699C307.809 686.3 307.608 687.102 307.408 687.703C307.408 687.904 307.408 688.104 307.208 688.305C307.007 689.106 306.807 689.908 306.807 690.71C306.807 691.512 306.807 692.313 306.807 693.115C306.807 693.315 306.807 693.516 306.807 693.716C306.807 694.518 307.007 695.119 307.208 695.921V696.122C307.408 696.723 307.608 697.525 308.009 698.126C308.009 698.326 308.21 698.326 308.21 698.527C308.61 699.128 309.011 699.73 309.412 700.331C309.813 700.932 310.414 701.533 311.015 701.934C311.015 701.934 311.015 701.934 311.216 702.135C314.823 705.141 320.434 706.945 328.049 707.547C329.452 707.747 331.055 707.547 332.257 707.547L329.452 721.176C326.446 723.582 323.239 725.386 319.632 726.789C320.835 727.39 322.037 727.791 323.239 728.392C323.44 728.392 323.44 728.392 323.64 728.593C325.845 729.394 328.45 730.397 331.055 730.998C331.255 730.998 331.255 730.998 331.456 730.998C333.66 731.599 336.065 732.201 338.469 732.802C338.67 732.802 339.071 733.002 339.271 733.002C340.473 733.203 341.475 733.403 342.678 733.604H342.878C343.079 733.604 343.279 733.604 343.479 733.804C344.481 734.004 345.684 734.205 346.886 734.405C347.087 734.405 347.487 734.405 347.688 734.606C348.69 734.806 349.692 735.007 350.894 735.007C346.686 736.41 344.281 738.615 344.682 740.018Z" fill="#231F20" fill-opacity="0.1"/>
<path d="M1122.02 432.546C1124.22 430.541 1126.23 428.537 1128.23 426.332C1128.43 426.131 1128.43 426.132 1128.63 425.931C1129.43 424.929 1130.24 423.927 1131.04 422.924L1131.24 422.724C1132.04 421.722 1132.84 420.72 1133.44 419.717C1133.64 419.517 1133.84 419.317 1133.84 419.116C1134.44 418.314 1135.05 417.513 1135.45 416.711C1135.65 416.51 1135.85 416.31 1135.85 415.909C1136.45 414.907 1137.05 414.105 1137.65 413.103C1137.65 413.103 1137.65 412.903 1137.85 412.903C1138.45 411.9 1139.05 410.898 1139.65 409.896C1139.65 409.696 1139.85 409.696 1139.85 409.495C1140.26 408.693 1140.86 407.691 1141.26 406.889C1141.46 406.689 1141.46 406.489 1141.66 406.288C1142.06 405.486 1142.46 404.484 1143.06 403.682C1143.06 403.682 1143.06 403.482 1143.26 403.482C1143.66 402.48 1144.26 401.478 1144.66 400.475V400.275C1145.06 399.473 1145.27 398.671 1145.67 397.87C1145.67 397.669 1145.87 397.469 1145.87 397.268C1146.07 396.467 1146.47 395.865 1146.67 395.064C1146.67 394.863 1146.87 394.863 1146.87 394.663C1147.07 393.861 1147.47 393.059 1147.67 392.257V392.057C1147.87 391.456 1148.07 390.854 1148.27 390.053C1148.27 389.852 1148.27 389.652 1148.47 389.451C1148.67 388.85 1148.67 388.449 1148.87 388.048C1148.87 387.848 1148.87 387.647 1149.07 387.447C1149.27 386.846 1149.27 386.244 1149.27 385.843V385.643C1149.27 385.242 1149.27 384.841 1149.27 384.44C1149.27 384.24 1149.27 384.24 1149.27 384.04C1149.27 383.639 1149.27 383.438 1149.27 383.238C1149.27 383.037 1149.27 383.037 1149.27 382.837C1149.27 382.436 1149.07 382.236 1149.07 382.035C1149.07 381.835 1148.87 381.634 1148.67 381.434C1148.67 381.434 1148.67 381.233 1148.47 381.233L1148.27 381.033L1148.07 380.832C1148.07 380.632 1147.87 380.632 1147.67 380.432C1147.67 380.432 1147.67 380.432 1147.47 380.231L1147.27 380.031C1147.27 380.031 1147.27 380.031 1147.07 379.83C1146.87 379.63 1146.67 379.63 1146.67 379.429C1146.47 379.229 1146.47 379.229 1146.27 379.029C1146.27 379.029 1146.07 379.029 1146.07 378.828C1146.07 378.828 1146.07 378.828 1145.87 378.828C1145.67 378.628 1145.67 378.628 1145.47 378.427C1145.27 378.227 1145.27 378.227 1145.06 378.026C1144.86 377.826 1144.66 377.826 1144.46 377.625L1144.26 377.425C1144.06 377.425 1144.06 377.225 1143.86 377.225C1143.46 377.024 1143.06 376.824 1142.66 376.623C1142.46 376.623 1142.46 376.423 1142.26 376.423C1141.86 376.222 1141.26 375.822 1140.86 375.621C1140.86 375.621 1140.66 375.621 1140.66 375.421C1140.05 375.22 1139.65 374.819 1139.05 374.619C1124.62 367.403 1096.77 359.987 1072.52 370.209H1072.32C1070.72 370.811 1069.11 371.612 1067.51 372.214C1067.31 372.214 1067.11 372.414 1066.91 372.414C1064.1 373.617 1061.5 374.819 1059.09 376.022C1058.89 376.222 1058.49 376.222 1058.29 376.423C1057.69 376.824 1056.89 377.024 1056.29 377.425C1055.89 377.625 1055.49 377.826 1054.89 378.026C1054.49 378.227 1054.08 378.427 1053.68 378.628C1052.28 379.429 1050.68 380.231 1049.48 381.033C1049.08 381.233 1048.67 381.434 1048.27 381.835C1047.87 382.035 1047.47 382.236 1047.07 382.636C1046.67 382.837 1046.07 383.238 1045.67 383.438C1045.27 383.639 1044.67 384.039 1044.27 384.24C1043.86 384.44 1043.46 384.641 1043.26 384.841C1042.46 385.443 1041.66 385.843 1040.86 386.445C1040.66 386.645 1040.46 386.645 1040.46 386.846C1039.06 387.848 1037.65 388.85 1036.45 390.053C1036.45 390.053 1036.45 390.053 1036.25 390.253C1035.65 390.654 1035.25 391.055 1034.85 391.456L1034.65 391.656C1035.25 391.656 1035.65 391.656 1036.25 391.857C1037.25 391.857 1038.45 392.057 1039.46 392.257C1039.66 392.257 1039.86 392.257 1040.06 392.257C1040.46 392.257 1040.86 392.458 1041.26 392.458C1041.66 392.458 1042.06 392.658 1042.46 392.658C1042.86 392.859 1043.26 392.859 1043.66 393.059C1044.07 393.26 1044.47 393.26 1044.87 393.46C1045.27 393.661 1045.67 393.661 1046.07 393.861C1046.47 394.061 1046.87 394.061 1047.27 394.262C1047.67 394.462 1048.07 394.663 1048.47 394.663C1048.87 394.863 1049.28 395.064 1049.68 395.264C1050.08 395.464 1050.48 395.665 1050.88 395.865C1051.28 396.066 1051.68 396.266 1052.08 396.467C1052.48 396.667 1052.88 396.868 1053.08 397.068C1053.48 397.268 1053.88 397.469 1054.29 397.669C1054.49 397.87 1054.69 397.87 1054.89 398.07L1057.09 405.887C1054.49 405.887 1051.88 406.288 1049.48 407.29C1045.67 408.894 1042.46 410.698 1040.06 412.502C1040.06 412.502 1040.06 412.502 1039.86 412.502C1038.65 413.504 1037.65 414.306 1036.65 415.308C1036.65 415.308 1036.65 415.308 1036.45 415.508C1036.25 415.709 1036.05 416.11 1035.85 416.31C1035.65 416.51 1035.65 416.51 1035.45 416.711C1035.25 416.911 1035.05 417.312 1034.85 417.513C1034.65 417.713 1034.65 417.914 1034.45 418.114C1034.25 418.515 1034.05 418.715 1033.85 419.116C1033.64 419.317 1033.64 419.717 1033.44 419.918C1033.44 420.118 1033.24 420.319 1033.24 420.519C1033.24 420.72 1033.04 421.121 1033.04 421.321C1033.04 421.521 1033.04 421.722 1032.84 421.922C1032.84 422.123 1032.84 422.524 1032.64 422.924C1032.64 423.125 1032.64 423.325 1032.64 423.325C1032.64 423.726 1032.64 424.328 1032.64 424.728C1032.64 424.929 1032.64 424.929 1032.64 425.129C1032.64 425.53 1032.64 425.931 1032.84 426.332C1032.84 426.532 1032.84 426.733 1032.84 426.733C1032.84 427.134 1033.04 427.535 1033.04 427.735C1033.04 427.935 1033.04 427.935 1033.24 428.136C1033.44 428.737 1033.64 429.138 1033.85 429.739C1034.25 430.541 1034.45 431.142 1034.85 431.944C1034.85 432.145 1035.05 432.345 1035.05 432.345C1035.45 432.946 1035.85 433.548 1036.45 434.149C1036.85 434.75 1037.45 435.151 1038.05 435.552L1038.25 435.753C1038.85 436.153 1039.46 436.554 1040.26 436.755C1041.06 437.156 1041.66 437.356 1042.46 437.556C1042.46 437.556 1042.46 437.556 1042.66 437.556C1047.07 438.559 1052.88 437.556 1060.1 434.55C1061.5 433.949 1062.7 433.347 1063.9 432.546L1067.71 445.774C1066.11 449.182 1064.1 452.389 1061.5 455.195C1062.9 455.195 1064.31 454.995 1065.71 454.794C1067.31 454.594 1069.11 454.393 1070.92 453.992C1072.12 453.792 1073.12 453.592 1074.32 453.391C1074.93 453.191 1075.33 453.191 1075.93 452.99C1076.33 452.79 1076.93 452.79 1077.33 452.589C1077.93 452.389 1078.53 452.389 1078.93 452.188C1079.33 451.988 1079.94 451.988 1080.34 451.788C1081.34 451.587 1082.34 451.186 1083.34 450.986C1083.94 450.785 1084.55 450.585 1085.15 450.385C1085.35 450.385 1085.55 450.184 1085.75 450.184C1087.15 449.783 1088.75 449.182 1090.16 448.781C1090.76 448.581 1091.36 448.38 1091.96 448.18C1092.16 448.18 1092.56 447.979 1092.76 447.979C1090.16 451.788 1088.95 454.794 1090.16 455.796C1094.16 459.204 1103.98 451.587 1108.99 446.977C1117.21 439.36 1120.82 434.349 1120.62 433.347C1121.02 432.946 1121.42 432.546 1121.82 432.145C1121.82 432.746 1122.02 432.546 1122.02 432.546Z" fill="#231F20" fill-opacity="0.1"/>
<path d="M683.752 598.709C684.955 598.308 686.157 597.707 687.36 597.306C687.76 597.105 687.961 597.105 688.362 596.905C688.562 596.905 688.562 596.905 688.762 596.704C691.167 595.702 693.371 594.9 695.576 593.898C695.776 593.898 695.977 593.698 696.177 593.698C705.596 589.489 714.413 585.079 722.028 580.469C722.229 580.469 722.429 580.268 722.629 580.268C724.433 579.266 726.236 578.064 727.84 577.061C728.04 576.861 728.24 576.861 728.441 576.661C730.244 575.658 731.848 574.456 733.451 573.454C733.451 573.454 733.651 573.454 733.651 573.253C736.457 571.449 739.062 569.645 741.667 567.841C741.867 567.841 741.867 567.641 742.068 567.641C742.869 567.04 743.671 566.639 744.272 566.037C744.673 565.837 745.074 565.436 745.475 565.236C745.875 564.835 746.276 564.634 746.877 564.233C747.278 563.833 747.679 563.632 748.28 563.231C748.681 563.031 749.082 562.63 749.282 562.429C749.683 562.029 750.084 561.828 750.685 561.427C750.885 561.227 751.286 561.026 751.486 560.826C753.09 559.623 754.492 558.421 755.695 557.419C755.895 557.218 756.296 557.018 756.496 556.817C756.697 556.617 757.097 556.416 757.298 556.015C757.699 555.815 757.899 555.414 758.3 555.214C758.5 555.013 758.701 554.813 758.901 554.813C759.302 554.412 759.703 554.211 760.103 553.811L760.304 553.61C763.711 550.604 765.715 548.599 765.715 548.599C763.51 547.397 761.306 546.394 759.302 545.192C758.701 544.791 758.099 544.59 757.298 544.19C755.294 543.187 753.29 542.185 751.486 541.383C750.885 541.183 750.284 540.782 749.683 540.582C748.08 539.98 746.677 539.179 745.074 538.577C744.272 538.176 743.471 537.776 742.669 537.575C741.066 536.974 739.463 536.172 737.859 535.571C736.857 535.17 735.655 534.769 734.653 534.368C733.651 533.967 732.649 533.566 731.647 533.165C730.645 532.765 729.643 532.364 728.441 531.963C727.439 531.562 726.637 531.362 725.836 530.961C724.032 530.359 722.229 529.758 720.225 529.157C719.623 528.956 719.022 528.756 718.621 528.555C714.413 527.152 710.405 526.15 706.397 525.148H706.197C697.179 522.743 688.362 521.139 679.945 520.137H679.745C677.54 519.937 675.336 519.736 673.131 519.536C673.131 519.536 673.131 519.536 672.931 519.536C665.116 518.934 657.701 518.734 650.487 519.135C650.286 519.135 650.086 519.135 650.086 519.135C648.483 519.135 647.08 519.335 645.477 519.335C645.276 519.335 644.876 519.335 644.675 519.335C643.272 519.536 641.87 519.536 640.467 519.736C610.808 518.133 536.06 522.743 536.06 522.743L549.286 558.822C539.868 566.639 532.854 574.055 528.245 579.266C528.044 579.266 490.17 566.639 454.299 564.434C452.495 564.233 450.491 564.233 448.687 564.233C448.287 564.233 447.886 564.233 447.485 564.233C445.682 564.233 443.878 564.233 442.074 564.233H441.874C440.07 564.233 438.267 564.434 436.463 564.434C436.063 564.434 435.662 564.434 435.061 564.434C433.257 564.634 431.453 564.634 429.85 565.035L456.503 594.299L443.076 631.581C443.076 631.581 443.076 631.581 443.277 631.581C443.277 631.581 443.277 631.581 443.477 631.581C443.477 631.581 443.678 631.581 443.878 631.581C443.878 631.581 443.878 631.581 444.078 631.581C444.279 631.581 444.479 631.38 444.68 631.38C444.68 631.38 444.68 631.38 444.88 631.38C446.082 630.979 448.086 630.578 450.691 629.777C453.297 628.975 456.503 627.973 460.11 626.971C460.912 626.77 461.713 626.369 462.715 626.169C462.916 626.169 462.916 626.169 463.116 625.968C463.918 625.768 464.719 625.367 465.521 625.167C465.721 625.167 465.721 625.167 465.922 624.966C466.122 624.966 466.322 624.766 466.523 624.766C485.56 618.151 512.414 607.127 530.449 592.094C530.65 592.295 530.85 592.295 531.251 592.495C532.654 593.097 534.056 593.898 535.459 594.5C536.261 594.9 537.263 595.301 538.064 595.702C539.467 596.304 540.87 596.905 542.072 597.506C542.874 597.907 543.675 598.107 544.477 598.508C545.88 599.11 547.483 599.711 548.886 600.112C549.487 600.312 550.088 600.513 550.89 600.914C552.493 601.515 554.296 602.116 555.9 602.718C556.3 602.918 556.701 602.918 557.102 603.118C566.521 606.125 575.538 608.33 584.556 609.733C584.757 609.733 584.757 609.733 584.957 609.733C587.362 610.134 589.767 610.535 592.171 610.735C592.372 610.735 592.572 610.735 592.772 610.735C592.973 610.735 592.973 610.735 593.173 610.735C594.576 610.936 595.979 611.136 597.382 611.136C597.382 611.136 597.382 624.164 600.788 637.193C600.788 637.193 659.304 606.726 660.506 606.526C666.919 604.922 672.931 603.319 678.943 601.314C679.143 601.314 679.344 601.114 679.544 601.114C680.947 600.713 682.55 600.112 683.953 599.511C682.951 598.909 683.352 598.709 683.752 598.709Z" fill="#231F20" fill-opacity="0.1"/>
<path d="M1440.65 65.3428C1440.45 65.3428 1440.25 65.3428 1440.05 65.3428C1439.25 65.5433 1438.45 65.5433 1437.64 65.7437L1450.87 78.9726L1445.26 96.8116C1445.26 96.8116 1445.26 96.8116 1445.46 96.8116C1445.46 96.8116 1445.46 96.8116 1445.66 96.8116C1445.86 96.8116 1445.86 96.8116 1446.06 96.6112H1446.26C1446.46 96.6112 1446.66 96.4107 1446.86 96.4107C1447.06 96.4107 1447.26 96.2103 1447.46 96.2103C1447.66 96.2103 1447.86 96.0099 1448.06 96.0099C1448.26 96.0099 1448.46 95.8094 1448.67 95.8094C1449.07 95.609 1449.47 95.609 1449.67 95.4086C1449.87 95.4086 1450.07 95.2081 1450.27 95.2081C1450.47 95.0077 1450.87 95.0077 1451.07 94.8072C1451.47 94.6068 1451.67 94.6068 1452.07 94.4064C1452.47 94.2059 1452.87 94.2059 1453.27 94.0055C1453.47 94.0055 1453.88 93.8051 1454.08 93.6046C1454.68 93.4042 1455.08 93.2037 1455.68 93.0033C1455.68 93.0033 1455.88 93.0033 1455.88 92.8029C1464.7 89.195 1477.12 83.3823 1485.34 75.9661C1485.54 75.9661 1485.54 76.1665 1485.74 76.1665C1486.34 76.3669 1487.14 76.7678 1487.74 76.9683C1488.14 77.1687 1488.54 77.3691 1488.94 77.3691C1489.55 77.5696 1490.15 77.77 1490.95 78.1709C1491.35 78.3713 1491.75 78.3713 1492.15 78.5718C1492.95 78.7722 1493.55 78.9726 1494.16 79.1731C1494.56 79.1731 1494.76 79.3735 1495.16 79.3735C1495.96 79.5739 1496.76 79.7744 1497.56 80.1753C1497.76 80.1753 1497.96 80.3757 1498.16 80.3757C1502.57 81.5783 1506.98 82.3801 1511.19 82.9814H1511.39C1512.59 83.1818 1513.59 83.1818 1514.6 83.3823C1514.8 83.3823 1514.8 83.3823 1515 83.3823H1515.2C1515.8 83.3823 1516.6 83.3823 1517.2 83.5827C1517.2 83.5827 1517.4 89.7963 1519.41 95.8094C1519.41 95.8094 1546.46 80.1753 1546.86 79.9748C1549.87 79.1731 1552.67 78.1709 1555.48 76.9683H1555.68C1556.48 76.7678 1557.08 76.3669 1557.88 76.1665C1558.08 76.1665 1558.08 75.9661 1558.28 75.9661C1558.88 75.7656 1559.48 75.3647 1560.09 75.1643C1560.09 75.1643 1560.29 75.1643 1560.49 74.9639C1560.49 74.9639 1560.49 74.9639 1560.69 74.9639C1561.89 74.3626 1562.89 73.9617 1563.89 73.3604C1583.73 63.5389 1595.76 50.31 1595.76 50.31C1594.35 49.7087 1592.95 48.9069 1591.55 48.3056C1591.15 48.1052 1590.75 47.9047 1590.55 47.9047C1589.34 47.5038 1588.34 46.9025 1587.34 46.5017C1586.94 46.3012 1586.74 46.3012 1586.34 46.1008C1583.53 44.8981 1580.73 44.0964 1577.92 43.0942H1577.72C1576.32 42.6933 1575.12 42.2925 1573.71 41.8916C1573.51 41.8916 1573.51 41.8916 1573.31 41.8916C1566.7 40.0876 1560.49 39.0854 1554.67 38.6846C1553.67 38.6846 1552.67 38.4841 1551.47 38.4841C1548.66 38.4841 1545.86 38.4841 1543.25 38.6846C1541.65 38.885 1540.05 38.885 1538.44 39.0854H1538.24C1537.64 39.0854 1536.84 39.2859 1536.24 39.2859C1522.21 39.0854 1486.94 43.0942 1486.94 43.0942L1493.95 59.931C1490.15 63.3385 1487.34 66.7459 1485.14 69.1512C1484.94 69.552 1484.74 69.7525 1484.34 69.9529C1484.34 69.9529 1466.1 64.7415 1449.07 64.7415C1448.26 64.7415 1447.26 64.7415 1446.46 64.7415C1446.26 64.7415 1446.06 64.7415 1445.86 64.7415C1444.06 64.942 1442.25 65.1424 1440.65 65.3428Z" fill="#231F20" fill-opacity="0.1"/>
<path d="M208.412 759.66C232.66 756.854 258.712 746.632 285.565 725.185C289.172 722.179 285.565 716.566 286.567 716.967C294.182 719.573 296.987 715.965 296.186 713.56C295.785 712.357 295.585 711.956 294.983 710.553C293.18 705.743 288.17 694.318 279.152 681.69C279.152 681.69 228.452 579.467 136.871 610.735C127.452 613.942 107.412 629.576 124.246 648.618H124.647C108.615 655.232 90.98 664.653 72.1427 676.88C72.1427 676.88 45.0892 684.697 8.01585 654.03C8.01585 654.03 23.0456 676.88 27.0535 684.095L0 704.139C0 704.139 36.8729 689.507 68.3352 699.93C73.9463 705.743 81.5613 712.958 90.98 720.375C79.9582 721.577 71.3411 725.987 71.3411 725.987C126.45 800.55 200.797 763.87 208.412 759.66Z" fill="#231F20" fill-opacity="0.1"/>
<path d="M1346.46 358.183C1345.66 357.782 1345.46 357.782 1344.46 357.181C1341.45 355.577 1333.84 351.769 1323.82 349.364C1323.82 349.364 1253.08 319.098 1219.81 375.421C1216.41 381.233 1213 397.87 1230.03 400.275L1230.23 400.075C1224.82 410.497 1220.01 422.925 1215.8 437.557C1215.8 437.557 1205.38 453.391 1172.92 453.992C1172.92 453.992 1190.55 459.204 1195.77 461.008L1190.76 483.056C1190.76 483.056 1203.18 459.404 1224.02 450.986C1229.43 451.387 1236.45 451.788 1244.46 451.587C1239.25 456.999 1236.85 463.213 1236.85 463.213C1297.77 477.243 1319.81 425.731 1322.02 420.319C1333.24 408.092 1342.05 391.456 1346.46 368.806C1347.06 365.599 1342.66 364.397 1343.26 364.196C1348.07 362.192 1347.87 358.985 1346.46 358.183Z" fill="#231F20" fill-opacity="0.1"/>
<path d="M1034.85 466.82C1036.05 457.6 1023.62 464.616 1023.62 464.616C1018.01 452.79 1005.39 430.341 976.732 431.543C976.732 431.543 973.726 422.524 962.904 418.916C942.063 412.101 905.19 429.739 901.583 496.285C884.149 475.239 853.488 491.875 853.488 491.875C853.488 491.875 872.325 499.091 880.341 517.331C888.357 535.571 881.944 556.015 881.944 556.015C881.944 556.015 917.214 546.595 910.401 515.326C936.853 525.148 958.095 525.95 974.728 522.141C980.539 526.351 996.771 531.362 1002.78 525.549C1007.99 520.738 1000.18 517.13 992.363 515.326C995.769 513.523 998.775 511.518 1001.58 509.313C1001.58 509.313 1010 512.32 1013 510.917C1020.42 507.509 1010.6 501.897 1009.8 501.697C1017.01 493.679 1021.42 484.659 1023.22 477.444C1034.85 477.444 1030.64 471.23 1030.24 470.829C1032.84 469.827 1034.65 468.424 1034.85 466.82Z" fill="#231F20" fill-opacity="0.1"/>
<path d="M1614.79 45.0986C1616.2 57.1249 1608.58 67.7481 1608.58 67.7481C1608.58 67.7481 1630.63 68.7503 1632.43 49.5083C1645.86 59.931 1658.08 64.3407 1668.3 65.1424C1670.91 68.5499 1679.32 74.3626 1683.93 72.1578C1687.74 70.3538 1683.93 66.9464 1679.72 64.3407C1681.93 63.9398 1684.13 63.3385 1686.14 62.5367C1686.14 62.5367 1690.34 65.7438 1692.55 65.5433C1697.56 64.942 1692.75 59.931 1692.55 59.5302C1698.16 56.1227 1702.37 51.9135 1704.77 47.9048C1711.39 50.1096 1710.18 45.6999 1709.98 45.2991C1711.39 45.0986 1712.79 44.6977 1713.19 43.6956C1715.59 38.4842 1707.18 40.2881 1707.18 40.2881C1706.17 32.471 1702.97 17.2377 1686.14 12.6277C1686.14 12.6277 1686.14 6.81495 1680.52 2.80618C1669.7 -4.81047 1645.25 -1.60345 1631.03 36.2793C1624.81 20.8456 1603.97 25.0548 1603.97 25.0548C1603.97 25.0548 1613.59 33.0723 1614.79 45.0986Z" fill="#231F20" fill-opacity="0.1"/>
<path d="M602.592 718.771C628.443 718.972 654.695 712.758 672.129 692.313C673.332 693.516 674.534 694.518 675.937 694.518C676.137 694.518 679.344 694.719 679.143 691.512C679.143 690.71 678.542 689.908 677.941 689.507C676.939 688.705 677.139 689.106 677.741 688.305C678.342 687.703 678.542 686.901 678.542 686.1C678.141 682.893 675.135 683.694 674.935 683.694C673.532 683.895 672.53 685.098 671.528 686.501C664.715 679.485 644.876 662.849 609.205 665.655C609.205 665.655 579.146 665.655 555.499 658.038C552.493 657.036 549.687 656.034 547.082 654.831C547.082 654.831 553.294 685.899 517.223 697.324C509.808 697.926 501.392 697.124 492.374 692.915C488.566 690.509 484.759 688.104 481.552 686.1C475.541 682.492 470.731 679.886 467.324 681.089C471.132 683.694 474.338 687.102 476.543 691.111C478.947 695.119 480.35 699.73 480.751 704.54C481.552 714.362 477.945 723.582 471.332 729.996C474.138 730.397 477.344 728.593 481.152 725.786C484.959 722.98 489.168 718.972 493.977 715.163L494.177 715.364C509.408 705.342 526.04 706.344 535.259 707.948C562.112 715.163 573.534 732.601 573.534 732.601C575.538 730.998 577.743 729.595 579.747 728.192C591.169 721.176 602.592 718.771 602.592 718.771Z" fill="#231F20" fill-opacity="0.1"/>
<path d="M1209.99 196.63C1214.6 205.249 1215 215.271 1211.6 223.689C1214.2 223.088 1216.61 220.081 1219.01 215.872C1221.42 211.663 1223.62 206.451 1226.43 201.039H1226.63C1236.65 185.806 1252.28 179.993 1261.5 177.789C1288.95 173.78 1306.38 185.205 1306.38 185.205C1307.59 183 1308.99 180.795 1310.39 178.791C1317.81 168.368 1327.43 161.553 1327.43 161.553C1351.07 151.531 1372.72 135.296 1380.73 109.64C1382.33 110.441 1383.94 110.642 1385.14 110.041C1385.34 110.041 1388.35 108.838 1386.94 106.032C1386.54 105.23 1385.94 104.829 1385.14 104.629C1383.94 104.228 1384.34 104.629 1384.54 103.627C1384.74 102.825 1384.74 102.023 1384.34 101.221C1382.73 98.4152 1380.13 100.42 1379.93 100.42C1378.73 101.221 1378.33 102.624 1377.93 104.228C1368.91 100.42 1344.06 93.2038 1312.4 109.84C1312.4 109.84 1284.94 121.866 1259.89 124.071C1256.89 124.272 1253.88 124.472 1250.87 124.472C1250.87 124.472 1268.91 150.529 1240.45 175.383C1234.04 178.991 1225.82 181.597 1216.01 181.196C1211.6 180.595 1207.19 179.793 1203.38 179.192C1196.37 178.19 1190.96 177.789 1188.35 180.194C1192.76 181.196 1197.17 183 1200.78 185.606C1204.58 188.612 1207.79 192.22 1209.99 196.63Z" fill="#231F20" fill-opacity="0.1"/>
<path d="M228.652 610.735C239.474 611.136 253.902 609.933 267.329 604.321C286.166 612.339 304.602 616.548 321.436 618.753C321.436 618.753 320.233 622.561 315.023 626.97C315.023 626.97 324.842 626.77 330.654 619.755C333.259 619.955 335.664 620.156 338.069 620.156C338.069 620.156 332.458 627.371 324.642 630.779C324.642 630.779 343.279 634.387 351.094 620.556C375.142 620.356 391.174 616.548 391.174 616.548C390.973 615.746 390.572 614.944 390.172 613.942C388.969 610.535 387.366 607.528 385.963 604.722C380.152 594.299 372.136 587.484 363.118 583.275C321.837 536.373 261.116 576.861 261.116 576.861C263.521 577.462 266.327 579.066 268.932 580.87C274.142 584.678 278.952 589.489 279.152 589.689C275.144 591.293 271.537 592.696 268.531 594.099C257.71 586.482 242.88 583.275 231.458 581.672C221.238 580.268 213.422 580.469 213.422 580.469L230.456 597.105L210.817 608.731C210.617 608.53 218.031 610.334 228.652 610.735Z" fill="#231F20" fill-opacity="0.1"/>
<path d="M887.756 586.883C884.55 584.277 881.544 582.072 878.337 580.268C866.714 573.454 855.091 571.249 843.869 572.251C777.137 549.601 740.665 623.363 740.665 623.363C743.27 622.561 746.877 622.561 750.484 622.761C757.699 623.363 765.113 625.567 765.514 625.567C762.508 629.376 759.903 632.783 757.699 635.79C742.869 634.387 726.637 639.598 714.413 644.609C703.592 649.219 696.177 653.629 696.177 653.629L722.229 660.243L709.604 682.692C709.604 682.692 717.82 680.287 728.441 674.474C739.262 668.662 752.689 659.642 762.508 646.413C785.353 643.607 805.794 637.393 823.429 629.977C823.429 629.977 824.431 634.387 821.625 641.602C821.625 641.602 831.044 635.99 832.847 625.768C835.452 624.565 837.857 623.363 840.262 622.16C840.262 622.16 838.859 632.382 833.048 639.999C833.048 639.999 853.087 632.984 853.087 615.145C876.534 601.515 889.76 588.687 889.76 588.687C889.359 588.086 888.557 587.484 887.756 586.883Z" fill="#231F20" fill-opacity="0.1"/>
<path d="M1583.73 200.639C1581.33 198.634 1578.92 197.031 1576.72 195.628C1567.9 190.416 1559.28 188.813 1550.67 189.615C1500.37 172.577 1472.71 228.299 1472.71 228.299C1474.72 227.698 1477.32 227.698 1480.13 227.898C1485.54 228.5 1491.15 230.103 1491.55 230.103C1489.35 232.909 1487.34 235.515 1485.54 237.92C1474.32 236.918 1462.09 240.726 1452.87 244.535C1444.66 247.942 1439.05 251.349 1439.05 251.349L1458.69 256.36L1449.07 273.398C1449.07 273.398 1455.28 271.594 1463.29 267.184C1471.51 262.774 1481.53 255.96 1488.95 245.938C1506.18 243.933 1521.61 239.123 1535.04 233.51C1535.04 233.51 1535.84 236.717 1533.83 242.33C1533.83 242.33 1541.05 238.121 1542.25 230.303C1544.25 229.301 1546.06 228.5 1547.86 227.497C1547.86 227.497 1546.66 235.114 1542.45 240.927C1542.45 240.927 1557.68 235.715 1557.48 222.086C1575.12 211.663 1585.14 202.042 1585.14 202.042C1584.93 201.641 1584.33 201.04 1583.73 200.639Z" fill="#231F20" fill-opacity="0.1"/>
<path d="M258.311 779.303L262.319 791.129C246.888 791.53 229.855 794.537 211.619 801.552C211.619 801.552 192.581 792.532 157.512 785.918L172.14 802.955L154.906 815.382C154.906 815.382 154.906 815.382 155.107 815.382H155.307C159.716 815.783 192.781 818.389 210.617 812.376C221.037 818.389 239.073 827.409 261.517 831.618L260.515 847.252C267.93 845.849 287.368 834.424 287.97 834.023C306.606 834.023 326.846 830.014 348.088 819.391C348.088 819.391 325.444 799.147 287.769 792.733C287.769 792.933 281.757 785.517 258.311 779.303Z" fill="#231F20" fill-opacity="0.1"/>
<path d="M595.778 386.846C595.778 386.846 595.778 386.645 595.778 386.846C595.979 386.846 595.979 386.846 595.979 386.846C595.979 386.846 596.179 386.846 596.38 386.846H596.58C596.78 386.846 596.78 386.846 596.981 386.645C597.181 386.645 597.181 386.645 597.382 386.645C597.582 386.645 597.782 386.645 597.983 386.445C598.183 386.445 598.384 386.445 598.584 386.244C598.784 386.244 598.985 386.044 599.185 386.044C599.386 386.044 599.586 386.044 599.786 385.843C599.987 385.843 600.388 385.643 600.588 385.643C600.788 385.643 600.989 385.443 601.189 385.443C601.59 385.443 601.79 385.242 602.191 385.242C602.391 385.242 602.592 385.042 602.993 385.042C603.393 385.042 603.794 384.841 604.195 384.641C604.395 384.641 604.596 384.44 604.796 384.44C605.197 384.24 605.798 384.24 606.199 384.04C606.399 384.04 606.6 383.839 606.8 383.839C607.401 383.639 608.003 383.438 608.604 383.238C608.804 383.238 608.804 383.238 609.005 383.238C624.435 378.828 649.685 370.61 663.913 360.187C679.344 363.595 705.195 367.203 735.054 363.194L740.064 383.037C748.681 378.427 768.119 356.179 768.72 355.377C791.766 347.76 815.413 334.531 837.256 312.684C837.256 312.684 800.784 296.849 751.486 304.265C751.486 304.265 740.865 297.25 709.203 299.254L719.022 312.283C700.185 319.098 680.145 329.721 660.506 346.157C660.506 346.157 633.252 342.749 586.961 349.163L612.211 364.397L595.778 386.846Z" fill="#231F20" fill-opacity="0.1"/>
<path d="M590.969 435.552C574.737 440.964 557.503 449.583 540.269 463.213C540.269 463.213 517.023 459.805 477.545 464.215L498.787 477.644L484.358 496.485C484.358 496.485 484.358 496.485 484.558 496.485C484.558 496.485 484.759 496.485 484.959 496.485C485.16 496.485 485.36 496.485 485.56 496.285C485.761 496.285 485.961 496.084 486.362 496.084C486.763 496.084 486.963 495.884 487.364 495.884C487.364 495.884 487.364 495.884 487.564 495.884C497.384 493.679 527.644 486.263 542.874 475.239C555.9 478.446 577.943 482.054 603.594 479.248L607.602 496.285C615.217 492.477 632.451 473.435 632.651 473.234C652.491 467.221 672.931 456.398 691.969 438.158C691.969 438.158 661.108 423.927 619.024 429.339C619.024 429.339 610.207 423.125 583.153 424.328L590.969 435.552Z" fill="#231F20" fill-opacity="0.1"/>
<path d="M1034.65 241.328L1026.63 258.365C1026.63 258.365 1056.49 245.336 1068.51 232.107C1079.13 232.308 1096.97 231.506 1116.21 224.892L1122.02 237.519C1127.23 233.31 1137.65 215.471 1137.65 215.471C1151.88 207.454 1166.11 195.628 1177.73 178.39C1177.73 178.39 1151.48 172.577 1119.61 183.802C1119.61 183.802 1111.8 180.595 1090.96 186.007L1099.17 193.423C1087.35 200.238 1075.53 210.059 1064.51 223.489C1064.51 223.489 1045.87 224.691 1016.01 234.914L1034.65 241.328Z" fill="#231F20" fill-opacity="0.1"/>
<path d="M355.303 810.171C355.503 810.171 355.503 810.171 355.704 810.171H355.904C356.104 810.171 356.104 810.171 356.305 810.171H356.505C356.706 810.171 356.906 810.171 357.106 810.171C357.307 810.171 357.307 810.171 357.507 810.171C357.707 810.171 357.908 810.171 358.309 810.171C358.509 810.171 358.509 810.171 358.709 810.171C359.11 810.171 359.311 810.171 359.711 810.171C359.912 810.171 359.912 810.171 360.112 810.171C360.513 810.171 360.914 810.171 361.315 809.971C361.515 809.971 361.715 809.971 361.916 809.971C362.317 809.971 362.717 809.971 363.319 809.77C363.519 809.77 363.719 809.77 363.92 809.77C364.321 809.77 364.922 809.57 365.323 809.57C365.523 809.57 365.723 809.57 365.924 809.57C366.525 809.57 367.126 809.369 367.727 809.369C367.928 809.369 367.928 809.369 368.128 809.369C368.729 809.369 369.531 809.169 370.132 809.169C370.332 809.169 370.332 809.169 370.332 809.169C372.737 808.768 375.342 808.567 378.148 808.167C378.95 807.966 379.952 807.966 380.753 807.766C380.953 807.766 381.154 807.766 381.354 807.766C382.156 807.565 382.757 807.565 383.559 807.365H383.759C397.186 805.16 412.416 801.552 422.636 796.14C436.463 801.552 460.31 808.768 488.767 809.57L490.57 828.812C499.388 825.805 520.63 807.966 521.632 807.164C544.277 803.356 568.324 794.537 592.171 777.499C592.171 777.499 560.308 757.255 513.215 756.854C513.215 756.854 504.398 748.837 474.539 746.031L481.753 759.66C463.116 763.068 442.876 770.083 421.834 782.51C421.834 782.51 396.785 775.295 352.497 774.292L373.739 792.332L355.303 810.171C355.303 810.171 355.102 810.171 355.303 810.171Z" fill="#231F20" fill-opacity="0.1"/>
<path d="M1167.91 519.937C1167.91 519.937 1158.09 518.934 1137.05 531.963L1148.67 537.375C1138.05 548.8 1128.23 563.432 1120.62 581.872C1120.62 581.872 1100.78 589.489 1071.12 610.535L1093.96 611.938L1090.76 633.385C1090.76 633.385 1090.96 633.184 1091.16 632.984C1091.36 632.984 1091.36 632.783 1091.56 632.583L1091.76 632.382C1091.96 632.382 1091.96 632.182 1092.16 631.981C1092.16 631.981 1092.36 631.781 1092.56 631.781C1092.76 631.581 1092.76 631.581 1092.96 631.38C1093.16 631.18 1093.16 631.18 1093.36 630.979C1093.56 630.779 1093.56 630.779 1093.76 630.578C1093.96 630.378 1093.96 630.378 1094.16 630.178C1094.36 629.977 1094.56 629.777 1094.77 629.777C1094.97 629.576 1095.17 629.576 1095.17 629.376C1095.37 629.175 1095.57 628.975 1095.77 628.775C1095.97 628.574 1096.17 628.374 1096.37 628.173C1096.57 627.973 1096.77 627.772 1096.97 627.572C1097.17 627.371 1097.37 627.171 1097.57 626.971C1097.77 626.77 1097.97 626.57 1098.37 626.369C1098.57 626.169 1098.77 625.968 1098.97 625.768C1099.17 625.567 1099.57 625.167 1099.78 624.966C1099.98 624.766 1100.18 624.565 1100.38 624.365C1100.58 624.164 1100.98 623.764 1101.18 623.563C1101.38 623.363 1101.58 623.162 1101.78 622.962C1101.98 622.761 1102.38 622.36 1102.58 622.16C1102.98 621.759 1103.38 621.358 1103.78 620.957C1104.18 620.556 1104.38 620.356 1104.79 619.955C1104.99 619.755 1105.19 619.354 1105.59 619.153C1105.79 618.953 1106.19 618.552 1106.39 618.352C1106.59 618.151 1106.99 617.75 1107.19 617.55C1107.39 617.35 1107.59 616.949 1107.99 616.748L1108.19 616.548C1115.81 608.53 1124.02 598.709 1128.23 590.09C1140.05 586.883 1159.09 579.868 1178.13 566.238L1188.75 578.064C1192.96 571.65 1198.37 549.401 1198.57 548.599C1211.6 534.969 1223.02 517.331 1230.23 494.281C1229.83 494.481 1198.97 496.886 1167.91 519.937Z" fill="#231F20" fill-opacity="0.1"/>
<path d="M418.227 404.885C418.628 405.887 418.828 407.691 419.029 408.693C420.231 424.328 406.404 449.382 406.404 449.382C406.404 449.382 410.612 448.981 414.821 441.766C424.64 425.53 435.261 418.114 444.279 415.107C446.483 414.306 448.687 413.905 450.691 413.504C451.293 413.504 451.894 413.303 452.495 413.303H452.695C453.297 413.303 453.697 413.303 454.299 413.103H454.499C455.1 413.103 455.501 413.103 455.902 413.103H456.102C456.503 413.103 457.104 413.103 457.505 413.103C457.505 413.103 457.505 413.103 457.705 413.103C459.308 413.103 460.511 413.303 461.713 413.504C465.922 415.508 470.531 417.312 475.34 419.116C480.15 435.953 487.164 439.16 487.164 439.16C509.408 438.559 519.227 428.537 522.433 424.127C526.842 423.125 531.251 421.722 535.259 419.517C538.465 417.713 541.671 415.709 544.677 413.103C545.479 412.502 546.281 411.7 547.082 410.898C547.683 410.297 548.284 409.696 548.886 409.094C548.886 409.094 548.886 408.894 549.086 408.894C549.687 408.293 550.288 407.691 550.89 406.889L551.09 406.689C551.691 406.088 552.292 405.286 552.693 404.484C552.693 404.484 552.693 404.284 552.894 404.284C553.495 403.482 554.096 402.68 554.497 401.878C558.104 396.667 561.31 390.253 564.116 382.636C564.517 381.634 561.511 378.026 561.511 378.026C561.511 378.026 566.521 375.822 566.921 375.02C566.921 375.02 553.294 358.183 528.646 354.976C527.644 354.776 526.642 354.776 525.64 354.776C520.83 353.573 509.808 348.963 489.969 329.32C478.346 317.895 464.118 319.298 463.316 323.507C463.316 323.708 463.316 323.908 463.316 324.109C463.316 324.109 463.316 324.109 463.316 324.309C463.316 324.509 463.517 324.71 463.517 324.91C463.717 325.111 463.918 325.311 464.118 325.712L464.318 325.912C464.519 326.113 464.719 326.514 465.12 326.714C472.735 332.727 484.558 362.392 468.527 374.018C465.521 376.222 462.314 378.628 459.108 381.233C458.908 381.434 458.707 381.634 458.507 381.835C457.705 382.636 455.902 383.839 453.297 385.042C451.493 386.044 449.289 386.846 446.684 387.647C446.684 387.647 446.684 387.647 446.483 387.647C445.882 387.848 445.281 388.048 444.68 388.048C444.68 388.048 444.68 388.048 444.479 388.048C443.878 388.249 443.076 388.249 442.275 388.449C440.872 388.65 439.269 388.85 437.465 388.85C428.247 389.05 416.223 386.044 401.995 375.421C395.382 370.41 391.374 371.612 391.374 371.612C391.374 371.612 413.418 390.053 418.227 404.885Z" fill="#231F20" fill-opacity="0.1"/>
<path d="M712.81 463.213C712.81 463.613 712.81 464.215 712.81 464.616C712.81 464.816 712.81 465.016 712.81 465.217C712.81 465.618 713.01 466.019 713.01 466.62C713.01 466.82 713.01 467.021 713.211 467.221C713.411 467.823 713.611 468.624 713.812 469.226C714.012 469.827 714.213 470.428 714.613 471.23C714.613 471.431 714.814 471.631 714.814 471.831C715.014 472.232 715.215 472.633 715.415 473.034C715.615 473.234 715.615 473.435 715.816 473.635C716.016 474.036 716.217 474.437 716.617 474.638C716.818 474.838 716.818 475.038 717.018 475.038C717.419 475.439 717.82 475.84 718.02 476.241C718.22 476.441 718.421 476.642 718.621 476.842C718.822 477.043 719.022 477.243 719.423 477.444C719.623 477.644 719.824 477.845 720.024 478.045C720.224 478.245 720.425 478.446 720.625 478.446C720.826 478.646 721.226 478.847 721.427 478.847C721.627 478.847 721.828 479.047 722.028 479.047C722.629 479.448 723.431 479.648 724.032 479.849C724.232 479.849 724.433 480.049 724.633 480.049C725.034 480.25 725.435 480.25 725.836 480.45C726.036 480.45 726.236 480.45 726.437 480.651C726.838 480.651 727.439 480.851 727.84 480.851C727.84 480.851 727.839 480.851 728.04 480.851C729.643 481.052 731.447 481.052 733.25 481.052C733.451 481.052 733.651 481.052 733.651 481.052C734.252 481.052 734.853 481.052 735.455 480.851C735.455 480.851 735.455 480.851 735.655 480.851C739.062 480.45 742.869 479.648 747.078 478.245C748.881 477.644 750.484 476.842 752.087 476.041L755.294 493.278C752.889 497.487 750.083 501.296 746.476 504.503C748.08 504.503 749.883 504.703 751.486 504.503H751.687C754.693 504.503 758.099 504.302 761.506 503.901H761.706C761.706 503.901 761.706 503.901 761.907 503.901C761.907 503.901 761.907 503.901 762.107 503.901C765.113 503.501 768.119 503.1 771.325 502.498C771.526 502.498 771.927 502.498 772.127 502.298C775.333 501.697 778.54 500.895 781.947 500.093C782.147 500.093 782.548 499.893 782.748 499.893C783.95 499.492 785.353 499.291 786.756 498.89C782.949 503.501 781.345 507.108 782.548 508.311C787.357 512.921 800.383 504.503 807.196 499.291C818.419 490.472 823.429 484.659 823.228 483.256C827.036 480.651 830.442 477.644 833.849 474.638C834.05 474.638 834.05 474.437 834.25 474.437C836.855 472.032 839.26 469.627 841.464 467.021C841.665 466.82 841.665 466.62 841.865 466.42C842.867 465.417 843.669 464.415 844.47 463.213C844.671 463.012 844.871 462.812 845.071 462.611C846.073 461.409 846.875 460.206 847.877 459.003C848.879 457.801 849.68 456.398 850.682 455.195L850.883 454.995C851.684 453.792 852.286 452.79 853.087 451.587C853.288 451.387 853.288 451.186 853.488 450.986C854.29 449.783 854.891 448.781 855.492 447.779C855.492 447.779 855.492 447.578 855.692 447.578C856.494 446.376 857.095 445.173 857.696 443.97C857.696 443.97 857.696 443.97 857.696 443.77C858.298 442.768 858.698 441.766 859.299 440.563C859.5 440.363 859.5 440.162 859.7 439.962C860.101 438.96 860.502 438.158 860.903 437.156C860.903 436.955 861.103 436.955 861.103 436.755C861.504 435.753 861.905 434.75 862.305 433.748C862.305 433.748 862.305 433.748 862.305 433.548C862.706 432.746 862.907 431.744 863.307 430.942C863.307 430.742 863.508 430.541 863.508 430.341C863.708 429.739 863.909 428.938 864.109 428.336C864.109 428.136 864.309 427.935 864.309 427.735C864.51 426.933 864.71 426.332 864.911 425.53C864.911 425.53 864.911 425.53 864.911 425.33C865.111 424.728 865.111 424.127 865.111 423.726C865.111 423.526 865.111 423.325 865.111 423.325C865.111 422.924 865.111 422.524 865.111 422.323C865.111 422.123 865.111 422.123 865.111 421.922C865.111 421.521 865.111 421.121 864.911 420.92C864.911 420.72 864.71 420.519 864.51 420.118C864.51 420.118 864.51 420.118 864.51 419.918C864.309 419.717 864.309 419.517 864.109 419.317C864.109 419.317 864.109 419.317 864.109 419.116C863.909 418.916 863.708 418.515 863.307 418.314C863.307 418.314 863.307 418.314 863.107 418.114L862.907 417.914C862.706 417.713 862.506 417.513 862.305 417.312L862.105 417.112C862.105 417.112 862.105 417.112 861.905 416.911C861.504 416.711 861.303 416.31 860.903 415.909C860.903 415.909 860.903 415.909 860.702 415.709C860.502 415.508 860.502 415.508 860.301 415.308C860.101 415.107 859.901 414.907 859.5 414.707C859.299 414.506 859.3 414.506 859.099 414.306C858.899 414.306 858.899 414.105 858.698 414.105C858.498 413.905 858.298 413.704 857.897 413.504C857.696 413.303 857.496 413.103 857.296 413.103C856.895 412.903 856.694 412.702 856.294 412.502C856.093 412.502 856.093 412.301 855.893 412.301C855.692 412.101 855.492 412.101 855.292 411.9C854.69 411.5 854.29 411.299 853.688 410.898C853.488 410.698 853.288 410.698 853.288 410.497C852.686 410.096 852.085 409.696 851.284 409.295C851.083 409.295 851.083 409.094 850.883 409.094C850.081 408.693 849.48 408.293 848.678 407.892C848.678 407.892 848.478 407.892 848.478 407.691C847.677 407.29 846.875 406.889 845.873 406.489C845.873 406.489 845.873 406.489 845.673 406.489C844.871 406.088 843.869 405.687 842.867 405.086C826.635 397.469 803.389 391.255 780.143 395.264C778.74 395.464 777.538 395.665 776.135 396.066C776.135 396.066 776.135 396.066 775.935 396.066C774.532 396.266 773.329 396.667 771.927 397.068C771.526 397.268 771.326 397.268 770.925 397.469C770.524 397.669 770.123 397.669 769.722 397.87C766.716 398.872 763.911 399.674 761.306 400.676C761.306 400.676 761.306 400.676 761.105 400.676C760.905 400.676 760.905 400.676 760.705 400.876C759.903 401.077 758.901 401.478 758.099 401.678C757.699 401.879 757.298 401.879 756.897 402.079C756.697 402.079 756.296 402.279 756.095 402.279C755.093 402.68 753.891 403.081 752.889 403.482C752.889 403.482 752.889 403.482 752.689 403.482C752.288 403.682 752.087 403.682 751.687 403.883C751.286 404.083 751.085 404.083 750.685 404.284C749.683 404.685 748.681 405.086 747.879 405.486C747.478 405.687 746.877 405.887 746.476 406.088C745.675 406.489 744.873 406.689 744.072 407.09C743.671 407.29 743.07 407.491 742.669 407.691C741.466 408.092 740.464 408.693 739.262 409.295C739.262 409.295 739.062 409.295 739.062 409.495C738.661 409.696 738.46 409.696 738.06 409.896C737.258 410.297 736.457 410.698 735.655 411.099C735.054 411.299 734.453 411.7 733.851 411.9C733.25 412.301 732.649 412.502 732.048 412.903C731.447 413.103 731.046 413.504 730.445 413.704C729.443 414.306 728.441 414.907 727.439 415.308C727.238 415.508 727.038 415.508 726.838 415.709C724.834 416.911 723.03 418.114 721.226 419.317C720.425 419.918 719.623 420.519 718.822 421.121C719.623 421.121 720.425 421.321 721.226 421.521C722.629 421.722 724.032 422.123 725.435 422.524C725.836 422.724 726.236 422.724 726.637 422.925C727.238 423.125 727.839 423.325 728.441 423.526C728.841 423.726 729.242 423.927 729.843 424.127C730.445 424.328 730.845 424.528 731.447 424.728C731.847 424.929 732.449 425.129 732.849 425.33C733.451 425.53 733.851 425.731 734.453 426.132C734.853 426.332 735.455 426.532 735.855 426.933C736.256 427.134 736.857 427.535 737.258 427.735C737.659 427.935 738.06 428.336 738.661 428.537C739.062 428.737 739.663 429.138 740.064 429.539C740.464 429.739 740.865 430.14 741.266 430.341C741.667 430.742 742.268 430.942 742.669 431.343C742.869 431.543 743.07 431.744 743.27 431.744L745.074 441.766C741.867 441.565 738.661 441.766 735.455 442.768C730.445 444.371 726.236 446.175 723.03 448.18H722.83C721.226 449.182 719.623 450.385 718.421 451.387C718.421 451.387 718.421 451.387 718.22 451.587C717.82 451.988 717.619 452.188 717.218 452.589C717.018 452.79 717.018 452.79 716.818 452.99C716.617 453.391 716.216 453.592 716.016 453.992C715.816 454.193 715.816 454.393 715.615 454.393C715.215 454.995 714.814 455.395 714.613 455.997C714.413 456.197 714.413 456.398 714.213 456.598C714.012 456.799 714.012 457.199 713.812 457.4C713.611 457.6 713.611 458.001 713.411 458.202C713.411 458.402 713.211 458.803 713.211 459.003C713.211 459.404 713.01 459.605 713.01 460.006C713.01 460.206 712.81 460.406 712.81 460.607C712.81 461.208 712.609 461.809 712.609 462.21C712.81 462.812 712.81 463.012 712.81 463.213Z" fill="#231F20" fill-opacity="0.1"/>
<path d="M1468.3 304.466C1468.3 303.864 1468.3 303.463 1468.1 303.062C1468.1 302.862 1468.1 302.862 1468.1 302.662C1468.1 302.261 1467.9 302.06 1467.9 301.86V301.659C1467.9 301.259 1467.7 301.058 1467.5 300.858C1467.3 300.657 1467.3 300.457 1467.1 300.256L1466.9 300.056L1466.7 299.855C1466.7 299.855 1466.7 299.855 1466.5 299.855C1466.3 299.855 1466.3 299.655 1466.1 299.655L1465.9 299.455C1465.9 299.455 1465.9 299.455 1465.7 299.455C1465.7 299.455 1465.5 299.455 1465.5 299.254C1465.3 299.054 1464.9 298.853 1464.7 298.653C1464.7 298.653 1464.7 298.653 1464.5 298.653C1464.5 298.653 1464.3 298.653 1464.3 298.452C1464.1 298.252 1463.7 298.252 1463.49 298.052C1463.29 298.052 1463.29 297.851 1463.09 297.851C1463.09 297.851 1463.09 297.851 1462.89 297.851C1462.69 297.851 1462.69 297.651 1462.49 297.651C1462.29 297.651 1462.09 297.45 1462.09 297.45C1461.89 297.45 1461.69 297.25 1461.49 297.25C1461.09 297.049 1460.89 297.049 1460.49 296.849C1460.29 296.849 1459.89 296.648 1459.69 296.648C1459.49 296.448 1459.09 296.448 1458.69 296.248C1458.48 296.248 1458.28 296.047 1458.08 296.047C1458.08 296.047 1458.08 296.047 1457.88 296.047C1457.68 296.047 1457.68 296.047 1457.48 295.847C1457.28 295.847 1456.88 295.646 1456.68 295.646C1456.28 295.446 1455.88 295.446 1455.48 295.245C1455.28 295.245 1455.08 295.045 1454.88 295.045C1454.28 294.845 1453.88 294.845 1453.27 294.644C1453.07 294.644 1452.87 294.644 1452.67 294.444C1452.07 294.243 1451.47 294.243 1450.87 294.043C1450.67 294.043 1450.67 294.043 1450.47 294.043C1449.87 293.842 1449.07 293.842 1448.47 293.642H1448.26C1447.46 293.441 1446.66 293.441 1445.86 293.241C1430.63 290.635 1410.19 291.237 1393.16 301.259C1392.96 301.459 1392.75 301.459 1392.55 301.659C1392.15 301.86 1391.75 302.06 1391.55 302.261C1390.55 302.862 1389.55 303.463 1388.75 304.065C1388.35 304.265 1387.95 304.666 1387.34 304.866L1387.14 305.067C1387.14 305.067 1386.94 305.267 1386.74 305.267C1386.14 305.668 1385.74 305.869 1385.14 306.27C1384.74 306.47 1384.34 306.871 1383.94 307.071C1383.54 307.272 1383.34 307.472 1382.94 307.673C1382.33 308.073 1381.73 308.474 1381.13 308.875C1380.93 308.875 1380.93 309.076 1380.73 309.076C1380.53 309.076 1380.53 309.276 1380.33 309.276C1380.13 309.477 1379.93 309.677 1379.53 309.677C1378.93 310.078 1378.33 310.479 1377.93 310.88C1377.52 311.28 1376.92 311.481 1376.52 311.882C1376.32 312.082 1376.12 312.283 1375.92 312.483C1374.52 313.485 1373.12 314.487 1371.91 315.69C1371.51 315.891 1371.31 316.291 1370.91 316.492C1370.51 316.692 1370.11 317.093 1369.91 317.294C1369.51 317.694 1369.11 318.095 1368.71 318.296C1368.31 318.697 1367.91 319.098 1367.5 319.298C1367.3 319.498 1366.9 319.899 1366.7 320.1C1365.9 320.701 1365.3 321.302 1364.7 322.104C1364.5 322.305 1364.5 322.305 1364.3 322.505C1363.7 323.106 1363.1 323.708 1362.49 324.509C1361.89 325.111 1361.49 325.712 1360.89 326.113C1360.89 326.113 1360.89 326.113 1360.69 326.313C1360.09 326.915 1359.69 327.516 1359.29 328.117C1359.69 328.117 1360.09 328.117 1360.49 327.917C1361.89 327.716 1363.1 327.716 1364.5 327.716C1364.7 327.716 1364.9 327.716 1365.3 327.716C1365.9 327.716 1366.5 327.716 1366.9 327.716C1367.3 327.716 1367.71 327.716 1368.11 327.917C1368.51 327.917 1368.91 328.117 1369.31 328.117C1369.71 328.117 1370.11 328.318 1370.51 328.318C1370.91 328.318 1371.31 328.518 1371.71 328.518C1372.11 328.518 1372.51 328.719 1372.92 328.719C1373.32 328.919 1373.72 328.919 1374.12 329.119C1374.52 329.32 1374.92 329.32 1375.32 329.52C1375.72 329.721 1376.12 329.721 1376.52 329.921C1376.92 330.122 1377.32 330.122 1377.52 330.322C1377.93 330.523 1378.33 330.723 1378.73 330.923C1378.93 330.923 1379.13 331.124 1379.33 331.124L1382.53 338.139C1380.13 338.54 1377.73 339.342 1375.52 340.745C1372.72 342.549 1370.31 344.353 1368.31 345.956C1367.91 346.357 1367.71 346.558 1367.3 346.958L1367.1 347.159C1366.1 348.161 1365.3 349.163 1364.7 350.165L1364.5 350.366C1364.3 350.566 1364.1 350.967 1363.9 351.168C1363.9 351.368 1363.7 351.569 1363.7 351.569C1363.5 351.769 1363.5 352.17 1363.3 352.37C1363.3 352.571 1363.1 352.771 1363.1 352.972C1362.9 353.372 1362.9 353.773 1362.7 354.174C1362.7 354.375 1362.49 354.575 1362.49 354.976C1362.49 355.176 1362.49 355.377 1362.29 355.577C1362.29 355.778 1362.29 355.978 1362.29 356.179C1362.29 356.379 1362.29 356.579 1362.29 356.78C1362.29 356.98 1362.29 357.381 1362.29 357.582C1362.29 357.782 1362.29 357.983 1362.29 358.183C1362.29 358.584 1362.29 358.985 1362.49 359.386C1362.49 359.586 1362.49 359.586 1362.7 359.786C1362.7 360.187 1362.9 360.388 1362.9 360.789C1362.9 360.989 1363.1 361.19 1363.1 361.39C1363.3 361.791 1363.3 361.991 1363.5 362.392C1363.5 362.593 1363.7 362.793 1363.7 362.793C1363.9 363.194 1364.1 363.795 1364.5 364.196C1364.9 364.797 1365.3 365.599 1365.9 366C1366.1 366.201 1366.1 366.201 1366.3 366.401C1366.7 367.002 1367.3 367.403 1367.91 368.004C1368.51 368.405 1369.11 368.806 1369.71 369.007L1369.91 369.207C1370.51 369.608 1371.31 369.808 1371.91 370.009C1372.72 370.209 1373.32 370.209 1374.12 370.41C1374.12 370.41 1374.12 370.41 1374.32 370.41C1378.73 370.61 1384.14 368.806 1390.55 364.797C1391.75 363.996 1392.75 363.194 1393.76 362.192L1399.37 374.418C1398.37 378.026 1396.96 381.233 1394.96 384.44C1396.76 384.039 1398.77 383.639 1400.77 383.037H1400.97C1401.57 382.837 1402.37 382.636 1402.97 382.436C1403.18 382.436 1403.38 382.236 1403.38 382.236C1404.58 381.835 1405.58 381.434 1406.78 381.033C1407.18 380.832 1407.78 380.632 1408.19 380.432C1409.19 380.031 1409.99 379.63 1410.99 379.229C1411.39 379.029 1411.99 378.828 1412.39 378.628C1413.8 378.026 1415 377.425 1416.4 376.623H1416.6C1416.8 376.423 1417 376.423 1417.2 376.222C1418.61 375.621 1419.81 374.819 1421.21 374.218C1421.81 374.018 1422.21 373.617 1422.81 373.416C1423.01 373.216 1423.42 373.216 1423.62 373.015C1421.61 377.024 1421.01 380.231 1422.21 380.832C1426.62 383.438 1434.84 374.819 1438.85 369.608C1445.46 360.989 1448.26 355.778 1447.86 354.776C1448.26 354.375 1448.67 353.974 1449.07 353.372C1449.07 353.372 1449.07 353.372 1449.07 353.172C1450.87 350.967 1452.47 348.562 1454.08 346.357C1454.08 346.157 1454.28 346.157 1454.28 345.956C1454.88 344.954 1455.68 343.751 1456.28 342.749C1456.28 342.749 1456.28 342.549 1456.48 342.549C1457.08 341.547 1457.68 340.344 1458.28 339.342C1458.48 339.141 1458.48 338.941 1458.69 338.74C1459.09 337.939 1459.49 336.937 1459.89 336.135C1460.09 335.934 1460.09 335.734 1460.29 335.533C1460.69 334.531 1461.29 333.529 1461.69 332.527C1462.09 331.324 1462.69 330.322 1463.09 329.119V328.919C1463.49 327.917 1463.9 326.915 1464.1 325.912C1464.1 325.712 1464.3 325.512 1464.3 325.512C1464.7 324.509 1464.9 323.507 1465.3 322.505C1465.9 320.501 1466.3 318.496 1466.9 316.692C1466.9 316.492 1466.9 316.492 1466.9 316.291C1467.1 315.49 1467.3 314.688 1467.3 313.886V313.686C1467.5 312.082 1467.9 310.479 1467.9 309.076C1467.9 308.875 1467.9 308.875 1467.9 308.675C1467.9 308.073 1467.9 307.472 1467.9 307.071C1467.9 306.871 1467.9 306.871 1467.9 306.67C1468.3 305.468 1468.3 304.866 1468.3 304.466Z" fill="#231F20" fill-opacity="0.1"/>
<path d="M1350.27 285.023C1351.47 285.023 1352.48 285.023 1353.68 284.823C1357.49 284.622 1361.29 284.221 1364.9 283.42C1364.9 283.42 1364.9 283.42 1365.1 283.42C1366.3 283.219 1367.5 283.019 1368.71 282.618C1368.91 282.618 1368.91 282.618 1369.11 282.618H1369.31C1370.11 282.417 1370.71 282.217 1371.31 282.217C1371.31 282.217 1373.52 288.631 1377.52 294.444C1377.52 294.444 1401.17 269.389 1401.57 268.988C1404.38 267.184 1407.18 265.18 1409.79 263.175C1409.99 263.175 1409.99 262.975 1410.19 262.975C1410.79 262.574 1411.39 261.973 1411.99 261.572C1412.19 261.371 1412.39 261.371 1412.59 261.171C1413.2 260.77 1413.6 260.369 1414.2 259.768C1414.4 259.567 1414.4 259.567 1414.6 259.367C1414.6 259.367 1414.6 259.367 1414.8 259.167C1415.8 258.365 1416.8 257.363 1417.6 256.561L1417.8 256.36C1420.81 253.554 1423.62 250.748 1426.02 248.142C1426.82 247.341 1427.62 246.339 1428.23 245.537C1428.23 245.336 1428.43 245.336 1428.43 245.136C1429.03 244.334 1429.83 243.532 1430.43 242.731C1430.63 242.53 1430.63 242.33 1430.83 242.33C1431.43 241.528 1432.03 240.927 1432.63 240.125C1432.83 239.924 1432.83 239.724 1433.03 239.724C1433.44 239.123 1434.04 238.521 1434.44 237.92C1434.44 237.72 1434.64 237.72 1434.64 237.519C1441.05 228.7 1444.26 222.086 1444.26 222.086C1442.45 221.885 1440.85 221.685 1439.05 221.284C1438.65 221.284 1438.04 221.083 1437.64 221.083C1436.44 220.883 1435.24 220.883 1433.84 220.682C1433.44 220.682 1433.03 220.682 1432.43 220.482C1430.83 220.282 1429.43 220.282 1427.82 220.081H1427.62C1426.02 220.081 1424.22 219.881 1422.61 219.881C1422.41 219.881 1422.21 219.881 1422.21 219.881C1420.81 219.881 1419.41 219.881 1418 219.881C1417.8 219.881 1417.6 219.881 1417.4 219.881C1411.39 220.081 1405.58 220.682 1400.17 221.685C1398.97 221.885 1397.97 222.086 1396.76 222.286C1396.56 222.286 1396.56 222.286 1396.36 222.286C1395.36 222.486 1394.36 222.687 1393.56 222.887C1393.36 222.887 1393.16 222.887 1392.96 223.088C1391.95 223.288 1390.95 223.689 1390.15 223.889H1389.95C1388.15 224.491 1386.34 225.092 1384.74 225.693H1384.54C1382.94 226.295 1381.33 226.896 1379.73 227.698C1379.53 227.698 1379.53 227.698 1379.33 227.898C1378.73 228.099 1377.93 228.5 1377.32 228.7C1362.49 232.909 1326.42 248.142 1326.42 248.142L1339.05 263.576C1335.84 268.988 1333.64 273.799 1332.24 277.406C1332.24 277.406 1308.99 277.807 1290.35 283.82C1290.15 283.82 1290.15 283.82 1289.95 284.021C1288.15 284.622 1286.14 285.424 1284.54 286.025C1284.34 286.025 1284.14 286.226 1283.94 286.226C1283.14 286.627 1282.34 287.027 1281.33 287.428L1299.57 297.25L1299.37 317.895C1299.37 317.895 1299.37 317.895 1299.57 317.895C1299.57 317.895 1299.57 317.895 1299.77 317.895C1299.97 317.895 1299.97 317.694 1300.17 317.694C1300.17 317.694 1300.37 317.494 1300.57 317.494C1300.57 317.494 1300.77 317.294 1300.97 317.294C1301.17 317.093 1301.57 316.893 1301.77 316.692C1301.98 316.692 1301.98 316.492 1302.18 316.492C1302.38 316.291 1302.58 316.091 1302.98 315.891C1302.98 315.891 1302.98 315.891 1303.18 315.891C1303.58 315.49 1304.18 315.089 1304.78 314.688C1304.98 314.487 1304.98 314.487 1305.18 314.287C1305.58 313.886 1306.18 313.485 1306.78 313.084C1306.99 312.884 1307.19 312.884 1307.39 312.684C1307.79 312.483 1307.99 312.283 1308.39 311.882C1308.79 311.681 1308.99 311.28 1309.39 311.08C1309.59 310.88 1309.79 310.679 1309.99 310.679C1318.21 304.265 1329.63 294.043 1335.84 283.62C1336.04 283.62 1336.04 283.62 1336.24 283.62C1337.04 283.62 1337.85 283.82 1338.65 283.82C1339.05 283.82 1339.65 283.82 1340.05 284.021C1340.85 284.021 1341.65 284.221 1342.46 284.221C1342.86 284.221 1343.26 284.221 1343.86 284.221C1344.66 284.221 1345.46 284.221 1346.26 284.221C1346.66 284.221 1347.06 284.221 1347.26 284.221C1348.27 284.221 1349.07 284.221 1350.07 284.221C1349.87 285.023 1350.07 285.023 1350.27 285.023Z" fill="#231F20" fill-opacity="0.1"/>
<path d="M886.954 393.661L909.599 353.573C909.599 353.573 907.595 400.075 927.835 399.072C947.073 398.07 983.746 379.429 1001.98 362.392C1004.39 361.19 1006.99 359.786 1009.2 358.383C1009.2 361.19 1008.8 367.804 1003.99 376.222C1003.99 376.222 1018.41 361.59 1021.62 348.963C1022.62 347.961 1023.42 347.159 1024.43 346.157C1024.43 346.157 1026.83 355.377 1023.82 362.593C1023.82 362.593 1032.04 348.362 1030.64 337.738C1032.04 335.133 1033.24 332.727 1034.25 330.122C1039.66 313.485 1048.07 310.88 1056.89 302.862C1065.71 294.845 1057.49 294.243 1057.49 294.243C1050.68 294.043 1025.03 293.241 1019.42 281.215C1014.61 270.792 1004.99 262.774 992.763 258.966C911.403 206.05 877.536 282.618 876.534 298.853C874.93 325.712 899.98 334.932 900.18 334.932C900.581 336.937 900.982 338.74 901.583 340.544L870.522 331.926L857.496 328.318C857.095 328.518 867.315 375.822 886.954 393.661Z" fill="#231F20" fill-opacity="0.1"/>
<path d="M872.325 752.244C868.518 748.837 858.698 740.819 844.671 733.604C844.671 733.604 751.887 664.653 683.552 735.007C676.538 742.222 665.516 765.473 689.564 775.094H689.965C678.542 788.524 666.919 804.96 655.497 824.803C655.497 824.803 634.655 844.245 586.961 833.622C586.961 833.622 611.009 847.252 618.022 851.862L602.792 882.329C602.792 882.329 629.445 852.063 662.711 847.052C670.526 849.657 680.746 852.664 692.369 855.069C682.951 861.082 677.139 869.3 677.139 869.3C761.306 910.991 811.605 843.644 816.615 836.428C837.256 822.598 856.093 801.352 870.321 769.682C872.325 765.273 866.313 761.865 867.516 761.665C875.732 760.462 876.534 756.053 874.73 754.249C873.929 753.447 873.528 753.246 872.325 752.244Z" fill="#231F20" fill-opacity="0.1"/>
<path d="M1049.48 615.746C1049.48 615.746 1053.28 613.742 1053.08 610.935C1052.68 604.722 1047.67 606.927 1047.67 606.927C1047.67 606.927 1033.04 614.543 1004.79 601.114C999.777 598.709 994.968 597.105 990.158 596.303C988.355 595.702 933.246 575.057 903.387 588.286C903.387 588.286 935.45 607.728 931.242 641.202V641.402C931.242 642.404 931.042 643.406 930.841 644.409C930.641 646.213 930.44 647.816 930.44 649.62C930.44 656.034 930.04 661.646 929.438 666.056C924.629 665.054 919.819 664.653 915.01 664.653C893.968 664.853 872.927 674.073 859.5 681.089C872.325 683.895 883.948 691.912 890.762 704.34C899.78 720.575 898.377 739.817 888.758 754.249C900.381 748.236 926.432 733.203 940.661 710.954C942.865 707.346 944.869 703.538 946.472 699.73C959.097 706.745 975.129 714.562 988.956 718.17C1009 723.582 1005.99 742.824 1005.99 742.824C1029.84 722.179 1044.67 654.431 1045.07 652.627C1051.28 636.792 1053.68 622.561 1053.88 617.75C1053.68 615.345 1049.48 615.746 1049.48 615.746Z" fill="#231F20" fill-opacity="0.1"/>
<path d="M1697.16 193.022C1697.16 193.022 1689.34 194.425 1678.12 184.002C1676.12 182.198 1674.11 180.795 1672.11 179.593C1671.51 178.991 1648.86 161.553 1633.03 163.157C1633.03 163.157 1645.05 176.786 1638.24 191.819C1638.24 191.819 1638.24 191.819 1638.24 192.02C1638.04 192.421 1637.84 192.822 1637.64 193.222C1637.24 194.024 1637.04 194.826 1636.64 195.628C1635.64 198.634 1634.63 201.039 1633.83 203.044C1631.83 201.841 1629.62 201.039 1627.42 200.238C1617.6 197.231 1606.58 198.434 1599.36 199.837C1604.97 203.044 1609.18 208.456 1610.59 215.271C1612.39 224.09 1608.98 232.709 1602.37 238.121C1608.58 237.118 1623.01 233.911 1632.63 225.693C1634.23 224.29 1635.64 222.887 1636.84 221.284C1641.65 226.295 1648.06 232.308 1653.87 236.116C1662.49 241.528 1658.08 249.946 1658.08 249.946C1672.11 243.933 1688.94 214.669 1689.34 213.867C1694.55 207.453 1697.76 201.24 1698.56 199.035C1698.96 198.033 1696.96 197.632 1696.96 197.632C1696.96 197.632 1698.96 197.231 1699.36 196.029C1699.76 192.822 1697.16 193.022 1697.16 193.022Z" fill="#231F20" fill-opacity="0.1"/>
<path d="M1102.18 543.187C1102.98 540.983 1103.98 538.978 1104.99 537.174C1110.4 527.353 1118.01 520.538 1118.01 520.538C1137.65 509.313 1154.88 493.078 1159.29 469.827C1160.7 470.228 1162.1 470.428 1163.1 469.827C1163.3 469.827 1165.71 468.624 1164.1 466.219C1163.7 465.618 1163.1 465.217 1162.3 465.217C1161.3 465.017 1161.5 465.217 1161.7 464.415C1161.9 463.814 1161.7 463.012 1161.3 462.411C1159.49 460.206 1157.49 462.01 1157.49 462.21C1156.49 463.012 1156.29 464.215 1156.09 465.818C1147.87 463.413 1125.43 459.605 1099.57 477.444C1099.57 477.444 1076.93 490.673 1055.29 495.082C1052.68 495.684 1050.08 496.084 1047.47 496.285C1047.47 496.285 1065.71 517.13 1043.46 541.784C1038.25 545.593 1031.24 548.599 1022.82 549.401C1018.82 549.401 1015.01 549 1011.6 549C1005.39 548.8 1000.58 549 998.575 551.405C1002.58 551.806 1006.59 553.009 1010 555.013C1013.6 557.018 1016.61 559.824 1019.22 563.432C1024.23 570.447 1025.43 579.066 1023.22 586.883C1025.43 586.081 1027.23 583.275 1028.84 579.266C1030.44 575.458 1032.04 570.647 1033.85 565.636H1034.05C1041.26 551.405 1054.29 544.791 1062.1 541.985C1085.75 534.969 1102.18 543.187 1102.18 543.187Z" fill="#231F20" fill-opacity="0.1"/>
<path d="M1602.77 256.561C1601.97 256.36 1602.17 256.561 1602.37 255.96C1602.57 255.559 1602.57 254.957 1602.37 254.556C1601.57 252.753 1599.96 253.955 1599.76 253.955C1598.96 254.356 1598.76 255.158 1598.36 256.16C1593.15 253.554 1578.52 248.343 1558.88 257.162C1558.88 257.162 1542.05 263.376 1527.02 263.777C1525.22 263.777 1523.41 263.777 1521.61 263.576C1521.61 263.576 1531.43 279.812 1513.39 293.642C1509.39 295.446 1504.38 296.849 1498.56 296.248C1495.96 295.646 1493.35 295.045 1491.15 294.644C1487.14 293.842 1483.73 293.241 1482.13 294.644C1484.74 295.446 1487.34 296.648 1489.35 298.452C1491.55 300.256 1493.35 302.461 1494.56 305.267C1496.96 310.679 1496.76 316.492 1494.56 321.503C1496.16 321.302 1497.76 319.498 1499.17 317.093C1500.77 314.688 1502.37 311.681 1504.17 308.474C1510.79 299.855 1520.41 296.849 1525.82 295.847C1542.45 294.444 1552.47 301.86 1552.47 301.86C1553.27 300.457 1554.07 299.254 1555.08 298.052C1559.89 292.038 1565.9 288.431 1565.9 288.431C1580.53 283.219 1593.95 274.4 1599.56 259.367C1600.57 259.768 1601.37 260.169 1602.17 259.768C1602.37 259.768 1604.17 259.167 1603.37 257.363C1603.77 256.962 1603.37 256.761 1602.77 256.561Z" fill="#231F20" fill-opacity="0.1"/>
<path d="M490.771 857.875C490.771 857.875 484.558 849.858 459.709 843.444L463.918 855.871C447.685 856.272 429.85 859.278 410.612 866.895C410.612 866.895 399.39 861.483 377.948 855.871C370.934 854.067 362.918 852.263 353.7 850.459L369.13 868.498L350.894 881.527C350.894 881.527 389.37 885.135 409.61 878.52C420.432 884.934 439.469 894.155 463.116 898.765L461.914 915.201C469.729 913.797 489.969 901.771 490.771 901.37C510.209 901.37 531.652 897.161 553.896 886.137C554.096 885.937 530.249 864.49 490.771 857.875Z" fill="#231F20" fill-opacity="0.1"/>
<path d="M177.752 382.035H177.952H178.152H178.353C178.553 382.035 178.553 382.035 178.754 382.035C178.954 382.035 178.954 382.035 179.154 382.035C179.355 382.035 179.355 382.035 179.555 382.035C179.756 382.035 179.756 382.035 179.956 382.035C180.156 382.035 180.357 382.035 180.557 382.035C180.758 382.035 180.958 382.035 181.158 382.035C181.359 382.035 181.559 382.035 181.76 382.035C181.96 382.035 182.16 382.035 182.361 382.035C182.561 382.035 182.762 382.035 182.962 382.035C183.162 382.035 183.363 382.035 183.764 382.035C183.964 382.035 184.164 382.035 184.565 382.035C184.765 382.035 185.166 382.035 185.367 382.035C185.567 382.035 185.767 382.035 185.968 382.035C186.369 382.035 186.769 382.035 187.17 382.035C187.371 382.035 187.571 382.035 187.771 382.035C188.373 382.035 188.974 382.035 189.375 382.035C189.375 382.035 189.375 382.035 189.575 382.035C202 382.436 220.837 382.436 232.861 378.427C243.081 384.44 261.117 393.26 283.561 397.469L282.559 413.103C289.974 411.7 309.212 400.275 310.013 400.075C328.45 400.075 348.69 396.066 369.731 385.643C369.731 385.643 347.087 365.399 309.813 359.185C309.813 359.185 303.801 351.569 280.555 345.555L284.563 357.381C269.333 357.782 252.299 360.789 234.063 367.804C234.063 367.804 223.442 362.793 203.202 357.381C202.4 357.181 201.599 356.98 200.597 356.78C199.795 356.579 198.994 356.379 197.992 356.179C196.388 355.778 194.785 355.377 193.182 354.976C192.982 354.976 192.581 354.776 192.381 354.776C190.577 354.375 188.773 353.974 186.97 353.573C186.769 353.573 186.569 353.573 186.369 353.372C184.365 352.972 182.16 352.571 179.956 352.17L194.585 369.207L177.351 381.434C177.551 382.035 177.551 382.035 177.752 382.035Z" fill="#231F20" fill-opacity="0.1"/>
<path d="M1350.27 180.795C1350.27 180.996 1350.27 180.996 1350.27 180.795C1348.47 181.397 1346.66 181.998 1344.86 182.599C1344.66 182.599 1344.66 182.599 1344.46 182.8C1342.66 183.401 1340.85 184.002 1339.05 184.604C1338.85 184.604 1338.85 184.604 1338.65 184.804C1336.84 185.405 1334.84 186.207 1332.84 187.009L1354.08 194.024L1345.66 213.467C1345.66 213.467 1345.86 213.467 1346.06 213.266C1346.06 213.266 1346.26 213.266 1346.26 213.066C1346.26 213.066 1346.46 213.066 1346.46 212.865C1346.66 212.865 1346.66 212.665 1346.86 212.665H1347.06C1347.26 212.665 1347.47 212.464 1347.67 212.464C1347.87 212.464 1347.87 212.264 1348.07 212.264C1348.27 212.264 1348.47 212.064 1348.67 212.064C1348.87 212.064 1348.87 211.863 1349.07 211.863C1349.27 211.663 1349.47 211.663 1349.67 211.462C1349.87 211.462 1349.87 211.262 1350.07 211.262C1350.27 211.061 1350.47 211.061 1350.87 210.861C1351.07 210.861 1351.27 210.661 1351.47 210.661C1351.67 210.46 1352.07 210.46 1352.27 210.26C1352.48 210.059 1352.68 210.059 1352.88 209.859C1353.08 209.658 1353.48 209.658 1353.68 209.458C1353.88 209.257 1354.08 209.257 1354.48 209.057C1354.68 208.857 1354.88 208.857 1355.28 208.656C1355.68 208.456 1356.08 208.255 1356.28 208.055C1356.48 208.055 1356.68 207.854 1356.88 207.854C1367.71 201.841 1383.74 192.02 1391.95 182.198C1403.98 181.998 1423.82 180.194 1445.26 172.176L1452.47 186.007C1458.08 180.996 1468.7 161.353 1469.11 160.551C1484.74 150.93 1500.17 137.1 1512.59 117.056C1512.59 117.056 1482.73 111.444 1447.66 125.474C1447.66 125.474 1438.65 122.067 1415.6 129.082L1425.22 137.1C1412.39 145.318 1399.37 156.743 1387.54 172.176C1387.14 172.176 1373.32 173.579 1350.27 180.795Z" fill="#231F20" fill-opacity="0.1"/>
<path d="M1305.78 232.909C1280.33 227.898 1272.12 222.887 1248.47 230.303C1246.47 226.896 1243.06 224.892 1237.85 225.092C1234.04 225.092 1229.63 226.295 1224.22 228.7C1220.61 230.303 1216.81 232.508 1212.4 235.114C1208.39 237.72 1203.98 240.927 1199.17 244.735C1195.77 247.541 1192.16 250.548 1188.35 253.955C1184.74 257.162 1181.14 260.77 1177.13 264.578C1173.72 267.986 1170.11 271.794 1166.31 275.803C1163.7 278.609 1160.9 281.616 1158.09 284.823L1175.32 288.831C1170.92 294.444 1166.51 300.056 1162.1 305.468C1143.06 305.067 1122.02 302.461 1110 310.278L1144.06 322.305L1135.85 356.98C1149.67 350.967 1157.09 331.926 1166.71 315.69C1176.33 314.087 1189.55 311.681 1204.18 307.873L1190.15 323.507C1191.36 323.708 1215.6 325.311 1224.42 301.86C1262.9 289.232 1302.38 267.986 1305.78 232.909Z" fill="#231F20" fill-opacity="0.1"/>
</g>
<defs>
<clipPath id="clip0_186_248">
<rect width="1719" height="915" fill="white"/>
</clipPath>
</defs>
</svg>
