<svg width="1366" height="55" viewBox="0 0 1366 55" fill="none" xmlns="http://www.w3.org/2000/svg">
<path fill-rule="evenodd" clip-rule="evenodd" d="M0 0V54.3789L11.3833 53.1037C13.2125 52.8833 15.3357 52.6362 17.7055 52.3603C30.0834 50.9197 49.1917 48.6957 68.3 45.4038C91.0667 41.6261 113.833 36.3325 136.6 30.0042C139.835 29.0913 143.07 28.1527 146.305 27.2141C165.837 21.547 185.368 15.8799 204.9 15.8799C215.413 15.8799 225.925 17.5216 236.438 19.1634L236.438 19.1634C248.692 21.0771 260.946 22.9908 273.2 22.3044C283.121 21.7067 293.042 19.4504 302.963 17.194C315.809 14.2726 328.654 11.3512 341.5 12.03C353.534 12.6659 365.568 16.5961 377.602 20.5263C388.335 24.0314 399.068 27.5365 409.8 28.7049C422.814 30.1766 435.828 28.2911 448.842 26.4057C458.594 24.9927 468.347 23.5797 478.1 23.5797C491.769 23.5797 505.437 26.3551 519.106 29.1305C528.204 30.9779 537.302 32.8252 546.4 33.8541C569.167 36.3325 591.933 33.9263 614.7 30.0042C617.916 29.4706 621.132 28.9067 624.348 28.3428C643.899 24.9149 663.449 21.4869 683 24.855C691.898 26.3314 700.795 29.2153 709.693 32.0993C723.562 36.5947 737.431 41.0901 751.3 40.2546C762.683 39.617 774.067 35.4482 785.45 31.2795C796.833 27.1108 808.217 22.942 819.6 22.3044C830.055 21.6746 840.51 24.0742 850.965 26.4738C863.277 29.2995 875.589 32.1252 887.9 30.0042C899.283 28.1154 910.667 21.9976 922.05 15.8799C933.433 9.76214 944.817 3.64439 956.2 1.75554C974.533 -1.4028 992.867 6.40788 1011.2 14.2186C1015.63 16.1073 1020.07 17.9961 1024.5 19.7298C1047.27 28.6327 1070.03 33.9263 1092.8 36.4047C1115.57 38.9793 1138.33 38.9793 1161.1 35.1294C1166.79 34.1669 1172.48 32.9638 1178.17 31.7607C1195.25 28.1514 1212.33 24.5422 1229.4 27.4296C1238.31 28.9357 1247.21 32.2093 1256.12 35.4829C1269.98 40.5774 1283.84 45.6719 1297.7 44.1045C1320.06 41.6703 1342.42 21.6654 1354 11.3093L1354.62 10.7547L1366 0.480255V0H0Z" fill="white"/>
</svg>
