<svg width="1366" height="87" viewBox="0 0 1366 87" fill="none" xmlns="http://www.w3.org/2000/svg">
<path fill-rule="evenodd" clip-rule="evenodd" d="M1 59.1861L12.3833 57.7711C14.2121 57.5267 16.3346 57.2526 18.7036 56.9466L18.7054 56.9464C31.0833 55.3479 50.1917 52.8803 69.3 49.2278C92.0667 45.0362 114.833 39.1627 137.6 32.1411C140.835 31.1282 144.07 30.0868 147.305 29.0453C166.837 22.7574 186.368 16.4694 205.9 16.4694C216.413 16.4694 226.926 18.291 237.438 20.1127C249.692 22.236 261.946 24.3593 274.2 23.5977C284.121 22.9346 294.042 20.431 303.963 17.9275C316.809 14.686 329.654 11.4445 342.5 12.1977C354.534 12.9033 366.568 17.2641 378.602 21.6249C389.335 25.514 400.068 29.4031 410.8 30.6994C423.814 32.3323 436.828 30.2403 449.842 28.1483C459.594 26.5805 469.347 25.0127 479.1 25.0127C492.769 25.0127 506.437 28.0922 520.106 31.1716C529.204 33.2214 538.302 35.2712 547.4 36.4128C570.167 39.1627 592.933 36.4929 615.7 32.1411C618.916 31.549 622.132 30.9234 625.348 30.2977C644.899 26.4942 664.449 22.6907 684 26.4277C692.898 28.0659 701.795 31.2658 710.693 34.4657C724.562 39.4536 738.431 44.4415 752.3 43.5144C763.683 42.8069 775.067 38.1815 786.45 33.5561C797.833 28.9307 809.217 24.3052 820.6 23.5977C831.055 22.8989 841.51 25.5614 851.965 28.2239C864.277 31.3591 876.589 34.4944 888.9 32.1411C900.283 30.0453 911.667 23.2573 923.05 16.4694C934.433 9.68143 945.817 2.89347 957.2 0.79768C975.533 -2.70666 993.867 5.95969 1012.2 14.6261C1016.63 16.7218 1021.07 18.8175 1025.5 20.7411C1048.27 30.6193 1071.03 36.4929 1093.8 39.2427C1116.57 42.0994 1139.33 42.0994 1162.1 37.8278C1167.79 36.7598 1173.48 35.4249 1179.17 34.09C1196.25 30.0853 1213.32 26.0807 1230.4 29.2844C1239.31 30.9555 1248.21 34.5877 1257.12 38.2199C1270.98 43.8726 1284.84 49.5252 1298.7 47.7861C1321.06 45.0853 1343.42 22.889 1355 11.3983L1355.62 10.7827L1366 0.384157V67.7295V86.3827H0V60.205H1V59.1861Z" fill="white"/>
</svg>
