<svg width="24" height="24" viewBox="0 0 24 24" fill="none" xmlns="http://www.w3.org/2000/svg">
<path fill-rule="evenodd" clip-rule="evenodd" d="M3.49999 12C3.49999 10.3189 3.99851 8.67547 4.9325 7.27765C5.86649 5.87984 7.19401 4.79037 8.74718 4.14702C10.3004 3.50368 12.0094 3.33535 13.6583 3.66333C15.3071 3.9913 16.8217 4.80085 18.0104 5.98959C19.1991 7.17834 20.0087 8.69289 20.3367 10.3417C20.6646 11.9906 20.4963 13.6996 19.853 15.2528C19.2096 16.806 18.1202 18.1335 16.7223 19.0675C15.3245 20.0015 13.6811 20.5 12 20.5C10.3918 20.5029 8.81622 20.047 7.45799 19.186C7.33717 19.1096 7.20137 19.0599 7.05975 19.0404C6.91812 19.021 6.77396 19.0321 6.63699 19.073L3.75699 19.932L4.84199 17.395C4.90506 17.2473 4.93162 17.0866 4.91944 16.9264C4.90725 16.7663 4.85668 16.6115 4.77199 16.475C3.93792 15.1316 3.49724 13.5813 3.49999 12ZM12 1.5C6.20099 1.5 1.49999 6.201 1.49999 12C1.49999 13.838 1.97299 15.568 2.80499 17.073L1.07999 21.107C1.00533 21.2817 0.982004 21.4741 1.01275 21.6617C1.04349 21.8492 1.12702 22.0241 1.25357 22.1658C1.38011 22.3076 1.54443 22.4104 1.72728 22.4621C1.91012 22.5139 2.10392 22.5124 2.28599 22.458L6.78599 21.116C8.37302 22.0255 10.1709 22.5027 12 22.5C17.799 22.5 22.5 17.799 22.5 12C22.5 6.201 17.799 1.5 12 1.5ZM14.293 14.182L12.978 15.108C12.2535 14.6912 11.5882 14.1789 11 13.585C10.3685 12.9544 9.82253 12.2437 9.37599 11.471L10.211 10.762C10.385 10.6144 10.5033 10.4117 10.5462 10.1876C10.5891 9.96351 10.5541 9.73147 10.447 9.53L9.38299 7.53C9.31218 7.39718 9.21231 7.28205 9.09081 7.1932C8.96931 7.10436 8.82932 7.04408 8.68128 7.01688C8.53324 6.98967 8.38097 6.99624 8.23582 7.03608C8.09067 7.07593 7.95639 7.14803 7.84299 7.247L7.52699 7.522C6.76799 8.184 6.31899 9.272 6.69099 10.374C7.2895 12.1171 8.2799 13.6997 9.58599 15C11.399 16.813 13.241 17.527 14.319 17.805C15.187 18.028 16.008 17.729 16.587 17.257L17.178 16.775C17.3026 16.6734 17.4009 16.5432 17.4645 16.3956C17.5281 16.2479 17.5551 16.0871 17.5433 15.9268C17.5316 15.7664 17.4813 15.6113 17.3968 15.4745C17.3123 15.3377 17.1961 15.2233 17.058 15.141L15.38 14.141C15.2141 14.042 15.023 13.9932 14.8299 14.0004C14.6368 14.0077 14.45 14.0708 14.292 14.182H14.293Z" fill="white"/>
</svg>
