<svg width="48" height="48" viewBox="0 0 48 48" fill="none" xmlns="http://www.w3.org/2000/svg">
<rect width="48" height="47.9999" rx="12" fill="white"/>
<path fill-rule="evenodd" clip-rule="evenodd" d="M6 6H17.1778C16.5931 7.00205 16.1511 9.25435 17.2813 14.3128C18.2865 18.8092 21.1912 23.5005 24.2221 27.2082L20.4137 30.3343L6 12.2246V6H6ZM22.3225 6H42V10.7682C40.4779 9.87897 37.7024 9.01948 33.6264 10.6492C27.0509 13.28 26.4878 20.9825 26.4878 20.9825C22.8497 16.5887 20.4568 9.38461 22.3225 6ZM42 17.0933V31.2841C37.5281 32.9815 31.2571 28.5692 29.6807 23.3302C27.3975 15.7384 32.7813 12.9979 36.6327 13.7497C39.5107 14.3108 41.1815 16.0266 42 17.0933ZM42 33.6143V41.9999H29.9402L32.3577 40.0153C30.7802 40.2071 27.6806 39.4656 26.1719 37.5692L21.9266 32.2348L25.8077 29.0492C28.1924 31.6779 30.4633 33.5671 31.7474 34.1333C34.4972 35.3466 37.5947 35.9323 42 33.6143ZM23.2056 41.9999H10.0309L18.2393 35.2615C18.9111 36.1056 19.5604 36.921 20.1758 37.6953C21.3851 39.2143 22.4005 40.7148 23.2056 41.9999ZM6.20308 41.9999H6V19.8831C9.13445 23.8215 13.1397 28.8533 16.7265 33.361L6.20308 41.9999Z" fill="#EC6722"/>
</svg>
