<svg width="48" height="48" viewBox="0 0 48 48" fill="none" xmlns="http://www.w3.org/2000/svg">
<rect width="47.1724" height="48" rx="12" fill="white"/>
<path fill-rule="evenodd" clip-rule="evenodd" d="M22.1861 6.06531C16.2294 6.62833 11.402 9.7804 8.47016 14.6459C6.56496 17.8073 5.6694 21.5527 5.94557 25.3964C6.62133 34.8 14.7074 42.7615 25.0572 41.9418C34.3434 41.2062 42.0052 32.8576 41.2204 22.5894C40.9329 18.83 39.6254 15.7315 37.5297 12.9338C36.5808 11.6671 36.3937 11.6464 35.4027 10.6094C34.174 9.32306 31.5753 7.84635 29.917 7.19301C27.6932 6.31665 24.8618 5.81231 22.1861 6.06531Z" fill="#108DE8"/>
<path fill-rule="evenodd" clip-rule="evenodd" d="M13.3415 18.7543C13.1157 19.406 13.2502 26.6519 13.2502 27.9959C13.2502 29.45 12.963 29.904 15.2391 30.682C21.2655 32.7417 27.2329 25.7579 33.2254 29.2133C33.5032 29.3733 33.8414 29.7017 33.9208 29.1713L33.9231 19.85C33.9235 18.8473 34.0132 18.5333 33.3478 18.0703C27.9854 14.3369 22.1794 20.7227 16.7383 20.0064C14.7247 19.7414 13.8909 18.7147 13.3415 18.7543Z" fill="white"/>
</svg>
