<svg width="329" height="371" viewBox="0 0 329 371" fill="none" xmlns="http://www.w3.org/2000/svg">
<path d="M328.783 0L322.405 10.8103L315.883 0H307.622L301.209 10.8103L294.832 0H286.571L280.049 10.8103L273.671 0H265.41L258.997 10.8103L252.62 0H244.359L237.837 10.8103L231.459 0H223.198L216.676 10.8103L210.299 0H202.038L195.625 10.8103L189.247 0H180.986L174.464 10.8103L168.087 0H159.826L153.413 10.8103L147.035 0H138.774L132.252 10.8103L125.875 0H117.614L111.092 10.8103L104.715 0H96.4535L90.0402 10.8103L83.6631 0H75.4019L68.8798 10.8103L62.5028 0H54.2415L47.8282 10.8103L41.4511 0H33.1899L26.6678 10.8103L20.2907 0H12.0295L5.61619 10.8103L0 1.26765V145.71V171.204V224.762V239.305V368.112L4.42048 360.612L5.61619 358.57L6.84813 360.612L13.0078 371H19.2762L25.8345 360.612L27.1026 358.57L27.8273 359.802L28.3346 360.612L34.4943 371H40.7989L46.9586 360.612L48.1543 358.57L49.3862 360.612L55.5459 371H61.8506L68.0102 360.612L69.2059 358.57L70.4379 360.612L76.5976 371H82.9022L89.0619 360.612L90.2576 358.57L91.4895 360.612L97.6492 371H103.954L110.114 360.612L111.309 358.57L112.541 360.612L118.701 371H124.969L131.165 360.612L132.361 358.57L133.593 360.612L139.753 371H146.057L152.579 360.612L153.847 358.57L155.079 360.612L161.239 371H167.544L173.703 360.612L174.935 358.57L176.131 360.612L182.291 371H188.595L194.755 360.612L195.951 358.57L197.183 360.612L203.342 371H209.647L215.807 360.612L217.002 358.57L218.234 360.612L224.394 371H230.699L236.858 360.612L238.09 358.57L239.286 360.612L245.446 371H251.75L257.91 360.612L259.106 358.57L260.338 360.612L266.497 371H272.802L278.962 360.612L280.157 358.57L281.389 360.612L287.549 371H293.854L300.013 360.612L301.173 358.64L301.209 358.57L302.441 360.612L308.601 371H315.014L321.174 360.612L322.405 358.57L323.601 360.612L329 369.732V239.305V224.656V171.098V145.71V0H328.783Z" fill="#113D79"/>
</svg>
