<svg width="48" height="48" viewBox="0 0 48 48" fill="none" xmlns="http://www.w3.org/2000/svg">
<rect width="47.1724" height="48" rx="12" fill="white"/>
<path d="M23.5861 6C33.3557 6 41.2758 14.0587 41.2758 24.0006C41.2758 33.9413 33.3557 42 23.5861 42C13.8165 42 5.89648 33.9413 5.89648 24.0006C5.89648 14.0587 13.8165 6 23.5861 6Z" fill="#00AED6"/>
<path fill-rule="evenodd" clip-rule="evenodd" d="M33.9057 23.4457C33.771 21.1541 31.8536 19.3976 29.6012 19.4997H18.4272C18.0199 19.4997 17.6894 19.1641 17.6894 18.7499C17.6894 18.3357 18.0199 18.0001 18.4272 18.0001H29.7481C29.6825 16.4477 28.6409 15.1148 27.1686 14.7006C23.8679 14.0998 20.4893 14.0998 17.1886 14.7006C15.3124 15.1687 13.9102 16.7575 13.6509 18.7053C13.1346 22.2359 13.1346 25.8241 13.6509 29.3548C14.046 31.4164 15.6552 33.0122 17.6894 33.3607C21.7813 33.8852 25.9222 33.8852 30.0141 33.3607C31.8369 32.984 33.2157 31.4598 33.4338 29.5801C33.8078 27.5584 33.9658 25.5014 33.9057 23.4457ZM30.22 25.9649V26.6255C30.22 27.0397 29.8906 27.3753 29.4833 27.3753C29.076 27.3753 28.7455 27.0397 28.7455 26.6255V25.9649C28.5073 25.7537 28.3727 25.4463 28.3771 25.1248C28.3771 24.5041 28.8723 24.0007 29.4833 24.0007C30.0931 24.0007 30.5883 24.5041 30.5883 25.1248C30.585 25.4451 30.4514 25.749 30.22 25.9649Z" fill="white"/>
</svg>
