<svg width="1366" height="915" viewBox="0 0 1366 915" fill="none" xmlns="http://www.w3.org/2000/svg">
<g clip-path="url(#clip0_257_505)">
<path d="M-45.1671 490.673C-5.48865 520.538 -120.717 510.115 -120.717 510.115C-120.717 510.115 2.72762 553.009 107.134 526.15C98.9179 532.965 89.0984 539.179 89.0984 539.179C89.0984 539.179 116.152 537.174 134.188 517.331C134.789 517.131 135.59 516.73 136.392 516.529C153.626 513.322 166.251 509.113 173.065 506.307C174.267 508.111 176.271 509.514 177.874 509.714C187.092 510.717 180.68 503.3 180.68 503.3C180.68 503.3 187.693 497.287 179.678 496.886C177.273 496.686 175.67 497.688 174.467 499.091C163.245 488.668 151.221 480.45 138.797 474.036C40.0013 409.896 -112.901 427.936 -112.901 427.936C-112.901 427.936 3.3288 438.759 -42.562 461.208C-76.429 443.77 -123.522 450.986 -123.522 450.986C-123.522 450.986 -94.4646 465.818 -88.2523 472.633C-88.2523 472.633 -109.695 484.66 -126.728 487.867C-127.53 487.867 -83.6432 501.095 -45.1671 490.673Z" fill="#231F20" fill-opacity="0.1"/>
<path d="M1452.6 97.8136C1452.6 97.8136 1455.4 92.8026 1450.59 94.2057C1449.19 94.6066 1448.39 95.6088 1447.99 96.611C1439.17 93.0031 1430.55 90.9987 1421.93 89.9965C1350.59 74.5628 1266.03 118.659 1266.03 118.659C1266.03 118.659 1335.76 99.4171 1314.12 122.467C1290.68 119.862 1265.02 134.494 1265.02 134.494C1265.02 134.494 1285.06 136.699 1290.27 139.304C1290.27 139.304 1280.45 151.13 1271.24 156.542C1271.24 156.542 1299.49 154.538 1319.53 140.106C1349.19 148.725 1280.05 167.967 1280.05 167.967C1280.05 167.967 1361.01 165.762 1415.52 127.278C1412.32 133.091 1407.91 138.703 1407.91 138.703C1407.91 138.703 1423.14 131.487 1429.15 116.254C1429.55 115.853 1429.75 115.653 1430.15 115.252C1439.57 109.639 1445.78 104.428 1449.19 101.221C1450.19 102.023 1451.79 102.424 1452.8 102.223C1458.01 100.62 1452.6 97.8136 1452.6 97.8136Z" fill="#231F20" fill-opacity="0.1"/>
<path d="M80.6818 740.017C82.6858 744.828 94.91 742.823 101.323 741.019C112.144 738.013 117.755 735.407 117.956 734.204C118.557 734.004 119.158 734.004 119.559 733.804H119.759C122.565 733.002 125.37 732.2 128.176 731.198C128.376 731.198 128.577 730.998 128.577 730.998C129.779 730.597 131.182 729.995 132.384 729.394C133.586 728.793 134.789 728.392 135.991 727.791C136.192 727.791 136.392 727.59 136.592 727.59C137.594 727.189 138.396 726.588 139.398 726.187C139.598 725.987 139.799 725.987 139.999 725.786C141.001 725.185 142.003 724.583 143.005 724.183C144.007 723.581 145.209 722.98 146.211 722.178L146.412 721.978C147.213 721.377 148.215 720.775 149.017 720.174C149.217 719.973 149.418 719.973 149.618 719.773C150.42 719.172 151.221 718.57 152.023 717.969C152.023 717.969 152.223 717.969 152.223 717.769C153.025 717.167 154.027 716.366 154.828 715.764C154.828 715.764 154.828 715.764 155.029 715.764C155.83 715.163 156.432 714.562 157.233 713.96C157.434 713.76 157.434 713.76 157.634 713.559C158.235 712.958 158.836 712.557 159.438 711.956L159.638 711.755C160.239 711.154 160.84 710.553 161.442 709.952C162.043 709.35 162.444 708.949 162.844 708.348C163.045 708.148 163.045 708.148 163.245 707.947C163.646 707.546 164.047 707.145 164.247 706.745C164.247 706.544 164.448 706.544 164.448 706.344C164.848 705.943 165.249 705.341 165.45 704.941C165.45 704.941 165.45 704.941 165.45 704.74C165.65 704.339 166.051 703.938 166.251 703.537C166.251 703.337 166.451 703.337 166.451 703.137C166.652 702.936 166.652 702.535 166.852 702.335C166.852 702.335 166.852 702.134 167.053 702.134C167.253 701.734 167.253 701.533 167.253 701.333C167.253 701.132 167.253 700.932 167.253 700.531V700.33V700.13C167.253 699.93 167.253 699.93 167.253 699.729C167.253 699.529 167.053 699.328 167.053 699.128V698.927V698.727C167.053 698.527 166.852 698.326 166.852 697.925C166.852 697.725 166.652 697.725 166.652 697.524V697.324C166.451 697.123 166.451 696.923 166.251 696.723C166.251 696.522 166.051 696.522 166.051 696.322C165.85 696.121 165.85 695.921 165.65 695.72V695.52C165.65 695.52 165.65 695.32 165.45 695.32C165.45 695.32 165.449 695.119 165.249 695.119C165.049 694.718 164.848 694.317 164.448 693.916C164.448 693.916 164.448 693.716 164.247 693.716C164.047 693.315 163.646 692.714 163.245 692.313C154.428 679.284 132.985 658.439 105.731 655.633C105.531 655.633 105.331 655.633 105.13 655.633C104.729 655.633 104.529 655.633 104.329 655.633C102.926 655.432 101.323 655.432 99.9199 655.232C99.5191 655.232 99.3187 655.232 98.9179 655.232C95.9119 655.031 92.906 654.831 90.1004 654.831C89.9 654.831 89.6996 654.831 89.6996 654.831C88.6977 654.831 87.6957 654.831 86.8941 654.831C86.4933 654.831 86.2929 654.831 85.8921 654.831C85.2909 654.831 84.4893 654.831 83.8882 654.831C82.285 654.831 80.8822 654.831 79.279 654.831C78.6778 654.831 78.2771 654.831 77.8763 654.831C77.4755 654.831 77.0747 654.831 76.4735 654.831C75.8723 654.831 75.4715 654.831 74.8703 655.031C74.2691 655.031 73.6679 655.031 72.8664 655.232C72.4656 655.232 72.2652 655.232 71.8644 655.232C70.8624 655.432 69.8604 655.432 68.8584 655.633H68.658C66.8544 655.833 65.0509 656.234 63.2473 656.635C62.4457 656.835 61.6441 657.036 61.0429 657.236C61.6441 657.637 62.2453 657.838 62.6461 658.238C63.6481 658.84 64.6501 659.441 65.4517 660.243C65.8525 660.644 66.2533 660.844 66.654 661.245C66.8544 661.445 67.0548 661.646 67.4556 661.846C67.8564 662.247 68.0568 662.448 68.4576 662.849C68.658 663.049 69.0588 663.45 69.2592 663.65C69.66 664.051 69.8604 664.252 70.2612 664.653C70.4616 664.853 70.662 665.254 71.0628 665.454C71.4636 665.855 71.664 666.256 71.8644 666.456C72.0648 666.657 72.2651 667.058 72.4655 667.258C72.6659 667.659 73.0667 668.06 73.2671 668.461C73.4675 668.862 73.6679 669.062 73.8683 669.463C74.0687 669.864 74.4695 670.265 74.6699 670.666C74.8703 671.067 75.0707 671.267 75.2711 671.668C75.4715 671.868 75.4715 672.069 75.6719 672.47L74.0687 680.287C71.8644 679.084 69.2592 678.282 66.654 678.082C63.2473 677.681 60.2414 677.681 57.4358 678.082C55.2314 678.282 53.2275 678.683 51.4239 679.284C50.6223 679.685 49.8207 679.886 49.0192 680.287C49.0192 680.287 48.8188 680.287 48.8188 680.487C48.2176 680.888 47.6164 681.289 47.0152 681.69C47.0152 681.69 47.0152 681.69 46.8148 681.69C46.2136 682.091 45.8128 682.692 45.412 683.293C45.412 683.494 45.2116 683.494 45.2116 683.694C44.8108 684.295 44.4101 684.897 44.2097 685.498C44.2097 685.498 44.2097 685.498 44.2097 685.699C43.8089 686.3 43.6084 687.102 43.408 687.703C43.408 687.903 43.4081 688.104 43.2077 688.304C43.0073 689.106 42.8069 689.908 42.8069 690.709C42.8069 691.511 42.8069 692.313 42.8069 693.115C42.8069 693.315 42.8069 693.516 42.8069 693.716C42.8069 694.518 43.0073 695.119 43.2077 695.921V696.121C43.4081 696.723 43.6085 697.524 44.0092 698.126C44.0092 698.326 44.2097 698.326 44.2097 698.527C44.6104 699.128 45.0112 699.729 45.412 700.33C45.8128 700.932 46.414 701.533 47.0152 701.934C47.0152 701.934 47.0152 701.934 47.2156 702.134C50.8227 705.141 56.4338 706.945 64.0489 707.546C65.4517 707.747 67.0548 707.546 68.2572 707.546L65.4517 721.176C62.4457 723.581 59.2394 725.385 55.6322 726.788C56.8346 727.39 58.037 727.79 59.2394 728.392C59.4398 728.392 59.4398 728.392 59.6402 728.592C61.8445 729.394 64.4497 730.396 67.0548 730.998C67.2552 730.998 67.2552 730.998 67.4556 730.998C69.66 731.599 72.0647 732.2 74.4695 732.801C74.6699 732.801 75.0707 733.002 75.2711 733.002C76.4735 733.202 77.4755 733.403 78.6778 733.603H78.8782C79.0786 733.603 79.279 733.603 79.4794 733.804C80.4814 734.004 81.6838 734.205 82.8862 734.405C83.0866 734.405 83.4874 734.405 83.6877 734.605C84.6897 734.806 85.6917 735.006 86.8941 735.006C82.6858 736.409 80.281 738.614 80.6818 740.017Z" fill="#231F20" fill-opacity="0.1"/>
<path d="M858.019 432.546C860.224 430.541 862.228 428.537 864.232 426.332C864.432 426.131 864.432 426.132 864.632 425.931C865.434 424.929 866.236 423.927 867.037 422.924L867.238 422.724C868.039 421.722 868.841 420.72 869.442 419.717C869.642 419.517 869.843 419.317 869.843 419.116C870.444 418.314 871.045 417.513 871.446 416.711C871.646 416.51 871.847 416.31 871.847 415.909C872.448 414.907 873.049 414.105 873.65 413.103C873.65 413.103 873.65 412.903 873.851 412.903C874.452 411.9 875.053 410.898 875.654 409.896C875.654 409.696 875.855 409.696 875.855 409.495C876.255 408.693 876.857 407.691 877.257 406.889C877.458 406.689 877.458 406.489 877.658 406.288C878.059 405.486 878.46 404.484 879.061 403.682C879.061 403.682 879.061 403.482 879.261 403.482C879.662 402.48 880.263 401.478 880.664 400.475V400.275C881.065 399.473 881.265 398.671 881.666 397.87C881.666 397.669 881.866 397.469 881.866 397.268C882.067 396.467 882.468 395.865 882.668 395.064C882.668 394.863 882.868 394.863 882.868 394.663C883.069 393.861 883.47 393.059 883.67 392.257V392.057C883.87 391.456 884.071 390.854 884.271 390.053C884.271 389.852 884.271 389.652 884.472 389.451C884.672 388.85 884.672 388.449 884.872 388.048C884.872 387.848 884.872 387.647 885.073 387.447C885.273 386.846 885.273 386.244 885.273 385.843V385.643C885.273 385.242 885.273 384.841 885.273 384.44C885.273 384.24 885.273 384.24 885.273 384.04C885.273 383.639 885.273 383.438 885.273 383.238C885.273 383.037 885.273 383.037 885.273 382.837C885.273 382.436 885.073 382.236 885.073 382.035C885.073 381.835 884.872 381.634 884.672 381.434C884.672 381.434 884.672 381.233 884.472 381.233L884.271 381.033L884.071 380.832C884.071 380.632 883.87 380.632 883.67 380.432C883.67 380.432 883.67 380.432 883.47 380.231L883.269 380.031C883.269 380.031 883.269 380.031 883.069 379.83C882.868 379.63 882.668 379.63 882.668 379.429C882.468 379.229 882.468 379.229 882.267 379.029C882.267 379.029 882.067 379.029 882.067 378.828C882.067 378.828 882.067 378.828 881.866 378.828C881.666 378.628 881.666 378.628 881.466 378.427C881.265 378.227 881.265 378.227 881.065 378.026C880.865 377.826 880.664 377.826 880.464 377.625L880.263 377.425C880.063 377.425 880.063 377.225 879.862 377.225C879.462 377.024 879.061 376.824 878.66 376.623C878.46 376.623 878.46 376.423 878.259 376.423C877.859 376.222 877.257 375.822 876.857 375.621C876.857 375.621 876.656 375.621 876.656 375.421C876.055 375.22 875.654 374.819 875.053 374.619C860.625 367.403 832.769 359.987 808.521 370.209H808.321C806.718 370.811 805.115 371.612 803.512 372.214C803.311 372.214 803.111 372.414 802.91 372.414C800.105 373.617 797.5 374.819 795.095 376.022C794.895 376.222 794.494 376.222 794.293 376.423C793.692 376.824 792.89 377.024 792.289 377.425C791.889 377.625 791.488 377.826 790.887 378.026C790.486 378.227 790.085 378.427 789.684 378.628C788.281 379.429 786.678 380.231 785.476 381.033C785.075 381.233 784.674 381.434 784.273 381.835C783.873 382.035 783.472 382.236 783.071 382.636C782.67 382.837 782.069 383.238 781.668 383.438C781.268 383.639 780.666 384.039 780.266 384.24C779.865 384.44 779.464 384.641 779.264 384.841C778.462 385.443 777.66 385.843 776.859 386.445C776.658 386.645 776.458 386.645 776.458 386.846C775.055 387.848 773.653 388.85 772.45 390.053C772.45 390.053 772.45 390.053 772.25 390.253C771.648 390.654 771.248 391.055 770.847 391.456L770.647 391.656C771.248 391.656 771.648 391.656 772.25 391.857C773.252 391.857 774.454 392.057 775.456 392.257C775.656 392.257 775.857 392.257 776.057 392.257C776.458 392.257 776.859 392.458 777.26 392.458C777.66 392.458 778.061 392.658 778.462 392.658C778.863 392.859 779.264 392.859 779.664 393.059C780.065 393.26 780.466 393.26 780.867 393.46C781.268 393.661 781.668 393.661 782.069 393.861C782.47 394.061 782.871 394.061 783.271 394.262C783.672 394.462 784.073 394.663 784.474 394.663C784.875 394.863 785.275 395.064 785.676 395.264C786.077 395.464 786.478 395.665 786.879 395.865C787.279 396.066 787.68 396.266 788.081 396.467C788.482 396.667 788.883 396.868 789.083 397.068C789.484 397.268 789.885 397.469 790.285 397.669C790.486 397.87 790.686 397.87 790.887 398.07L793.091 405.887C790.486 405.887 787.881 406.288 785.476 407.29C781.668 408.894 778.462 410.698 776.057 412.502C776.057 412.502 776.057 412.502 775.857 412.502C774.655 413.504 773.652 414.306 772.651 415.308C772.651 415.308 772.651 415.308 772.45 415.508C772.25 415.709 772.049 416.11 771.849 416.31C771.649 416.51 771.649 416.51 771.448 416.711C771.248 416.911 771.047 417.312 770.847 417.513C770.647 417.713 770.647 417.914 770.446 418.114C770.246 418.515 770.045 418.715 769.845 419.116C769.645 419.317 769.645 419.717 769.444 419.918C769.444 420.118 769.244 420.319 769.244 420.519C769.244 420.72 769.043 421.121 769.043 421.321C769.043 421.521 769.043 421.722 768.843 421.922C768.843 422.123 768.843 422.524 768.643 422.924C768.643 423.125 768.643 423.325 768.643 423.325C768.643 423.726 768.643 424.328 768.643 424.728C768.643 424.929 768.643 424.929 768.643 425.129C768.643 425.53 768.643 425.931 768.843 426.332C768.843 426.532 768.843 426.733 768.843 426.733C768.843 427.134 769.043 427.535 769.043 427.735C769.043 427.935 769.043 427.935 769.244 428.136C769.444 428.737 769.645 429.138 769.845 429.739C770.246 430.541 770.446 431.142 770.847 431.944C770.847 432.145 771.047 432.345 771.047 432.345C771.448 432.946 771.849 433.548 772.45 434.149C772.851 434.75 773.452 435.151 774.053 435.552L774.254 435.753C774.855 436.153 775.456 436.554 776.258 436.755C777.059 437.156 777.66 437.356 778.462 437.556C778.462 437.556 778.462 437.556 778.662 437.556C783.071 438.559 788.883 437.556 796.097 434.55C797.5 433.949 798.702 433.347 799.904 432.546L803.712 445.774C802.109 449.182 800.105 452.389 797.5 455.195C798.902 455.195 800.305 454.995 801.708 454.794C803.311 454.594 805.115 454.393 806.918 453.992C808.121 453.792 809.123 453.592 810.325 453.391C810.926 453.191 811.327 453.191 811.928 452.99C812.329 452.79 812.93 452.79 813.331 452.589C813.932 452.389 814.533 452.389 814.934 452.188C815.335 451.988 815.936 451.988 816.337 451.788C817.339 451.587 818.341 451.186 819.343 450.986C819.944 450.785 820.545 450.585 821.146 450.385C821.347 450.385 821.547 450.184 821.748 450.184C823.15 449.783 824.754 449.182 826.156 448.781C826.758 448.581 827.359 448.38 827.96 448.18C828.16 448.18 828.561 447.979 828.761 447.979C826.156 451.788 824.954 454.794 826.156 455.796C830.164 459.204 839.984 451.587 844.994 446.977C853.21 439.36 856.817 434.349 856.617 433.347C857.017 432.946 857.418 432.546 857.819 432.145C857.819 432.746 858.019 432.546 858.019 432.546Z" fill="#231F20" fill-opacity="0.1"/>
<path d="M419.752 598.709C420.955 598.308 422.157 597.707 423.359 597.306C423.76 597.105 423.961 597.105 424.361 596.905C424.562 596.905 424.562 596.905 424.762 596.704C427.167 595.702 429.371 594.9 431.576 593.898C431.776 593.898 431.976 593.698 432.177 593.698C441.595 589.489 450.413 585.079 458.028 580.469C458.228 580.469 458.429 580.268 458.629 580.268C460.433 579.266 462.236 578.064 463.84 577.061C464.04 576.861 464.24 576.861 464.441 576.661C466.244 575.658 467.847 574.456 469.451 573.454C469.451 573.454 469.651 573.454 469.651 573.253C472.457 571.449 475.062 569.645 477.667 567.841C477.867 567.841 477.867 567.641 478.068 567.641C478.869 567.04 479.671 566.639 480.272 566.037C480.673 565.837 481.074 565.436 481.474 565.236C481.875 564.835 482.276 564.634 482.877 564.233C483.278 563.833 483.679 563.632 484.28 563.231C484.681 563.031 485.082 562.63 485.282 562.429C485.683 562.029 486.083 561.828 486.685 561.427C486.885 561.227 487.286 561.026 487.486 560.826C489.089 559.623 490.492 558.421 491.695 557.419C491.895 557.218 492.296 557.018 492.496 556.817C492.697 556.617 493.097 556.416 493.298 556.015C493.699 555.815 493.899 555.414 494.3 555.214C494.5 555.013 494.701 554.813 494.901 554.813C495.302 554.412 495.703 554.211 496.103 553.811L496.304 553.61C499.71 550.604 501.714 548.599 501.714 548.599C499.51 547.397 497.306 546.394 495.302 545.192C494.701 544.791 494.099 544.59 493.298 544.19C491.294 543.187 489.29 542.185 487.486 541.383C486.885 541.183 486.284 540.782 485.683 540.582C484.08 539.98 482.677 539.179 481.074 538.577C480.272 538.176 479.47 537.776 478.669 537.575C477.066 536.974 475.463 536.172 473.859 535.571C472.857 535.17 471.655 534.769 470.653 534.368C469.651 533.967 468.649 533.566 467.647 533.165C466.645 532.765 465.643 532.364 464.441 531.963C463.439 531.562 462.637 531.362 461.836 530.961C460.032 530.359 458.228 529.758 456.224 529.157C455.623 528.956 455.022 528.756 454.621 528.555C450.413 527.152 446.405 526.15 442.397 525.148H442.197C433.179 522.743 424.361 521.139 415.945 520.137H415.744C413.54 519.937 411.336 519.736 409.131 519.536C409.131 519.536 409.131 519.536 408.931 519.536C401.115 518.934 393.701 518.734 386.487 519.135C386.286 519.135 386.086 519.135 386.086 519.135C384.483 519.135 383.08 519.335 381.477 519.335C381.276 519.335 380.875 519.335 380.675 519.335C379.272 519.536 377.869 519.536 376.467 519.736C346.808 518.133 272.06 522.743 272.06 522.743L285.286 558.822C275.868 566.639 268.854 574.055 264.245 579.266C264.044 579.266 226.169 566.639 190.298 564.434C188.495 564.233 186.491 564.233 184.687 564.233C184.287 564.233 183.886 564.233 183.485 564.233C181.681 564.233 179.878 564.233 178.074 564.233H177.874C176.07 564.233 174.267 564.434 172.463 564.434C172.062 564.434 171.662 564.434 171.06 564.434C169.257 564.634 167.453 564.634 165.85 565.035L192.503 594.299L179.076 631.581C179.076 631.581 179.076 631.581 179.277 631.581C179.277 631.581 179.277 631.581 179.477 631.581C179.477 631.581 179.677 631.581 179.878 631.581C179.878 631.581 179.878 631.581 180.078 631.581C180.279 631.581 180.479 631.38 180.679 631.38C180.679 631.38 180.679 631.38 180.88 631.38C182.082 630.979 184.086 630.578 186.691 629.777C189.296 628.975 192.503 627.973 196.11 626.971C196.912 626.77 197.713 626.369 198.715 626.169C198.915 626.169 198.916 626.169 199.116 625.968C199.917 625.768 200.719 625.367 201.521 625.167C201.721 625.167 201.721 625.167 201.921 624.966C202.122 624.966 202.322 624.766 202.523 624.766C221.56 618.151 248.413 607.127 266.449 592.094C266.649 592.295 266.85 592.295 267.251 592.495C268.653 593.097 270.056 593.898 271.459 594.5C272.261 594.9 273.263 595.301 274.064 595.702C275.467 596.304 276.87 596.905 278.072 597.506C278.874 597.907 279.675 598.107 280.477 598.508C281.88 599.11 283.483 599.711 284.886 600.112C285.487 600.312 286.088 600.513 286.889 600.914C288.493 601.515 290.296 602.116 291.899 602.718C292.3 602.918 292.701 602.918 293.102 603.118C302.52 606.125 311.538 608.33 320.556 609.733C320.757 609.733 320.756 609.733 320.957 609.733C323.362 610.134 325.766 610.535 328.171 610.735C328.372 610.735 328.572 610.735 328.772 610.735C328.973 610.735 328.973 610.735 329.173 610.735C330.576 610.936 331.979 611.136 333.381 611.136C333.381 611.136 333.381 624.164 336.788 637.193C336.788 637.193 395.304 606.726 396.506 606.526C402.919 604.922 408.931 603.319 414.943 601.314C415.143 601.314 415.344 601.114 415.544 601.114C416.947 600.713 418.55 600.112 419.953 599.511C418.951 598.909 419.352 598.709 419.752 598.709Z" fill="#231F20" fill-opacity="0.1"/>
<path d="M1176.65 65.3426C1176.45 65.3426 1176.25 65.3426 1176.05 65.3426C1175.25 65.543 1174.45 65.543 1173.64 65.7435L1186.87 78.9724L1181.26 96.8114C1181.26 96.8114 1181.26 96.8114 1181.46 96.8114C1181.46 96.8114 1181.46 96.8114 1181.66 96.8114C1181.86 96.8114 1181.86 96.8114 1182.06 96.6109H1182.26C1182.46 96.6109 1182.66 96.4105 1182.86 96.4105C1183.06 96.4105 1183.26 96.2101 1183.46 96.2101C1183.66 96.2101 1183.86 96.0096 1184.06 96.0096C1184.26 96.0096 1184.46 95.8092 1184.67 95.8092C1185.07 95.6087 1185.47 95.6087 1185.67 95.4083C1185.87 95.4083 1186.07 95.2079 1186.27 95.2079C1186.47 95.0074 1186.87 95.0074 1187.07 94.807C1187.47 94.6066 1187.67 94.6066 1188.07 94.4061C1188.47 94.2057 1188.87 94.2057 1189.27 94.0052C1189.47 94.0052 1189.88 93.8048 1190.08 93.6044C1190.68 93.4039 1191.08 93.2035 1191.68 93.0031C1191.68 93.0031 1191.88 93.0031 1191.88 92.8026C1200.7 89.1947 1213.12 83.382 1221.34 75.9658C1221.54 75.9658 1221.54 76.1663 1221.74 76.1663C1222.34 76.3667 1223.14 76.7676 1223.74 76.968C1224.14 77.1684 1224.54 77.3689 1224.94 77.3689C1225.55 77.5693 1226.15 77.7698 1226.95 78.1706C1227.35 78.3711 1227.75 78.3711 1228.15 78.5715C1228.95 78.7719 1229.55 78.9724 1230.16 79.1728C1230.56 79.1728 1230.76 79.3733 1231.16 79.3733C1231.96 79.5737 1232.76 79.7741 1233.56 80.175C1233.76 80.175 1233.96 80.3755 1234.16 80.3755C1238.57 81.5781 1242.98 82.3798 1247.19 82.9812H1247.39C1248.59 83.1816 1249.59 83.1816 1250.6 83.382C1250.8 83.382 1250.8 83.382 1251 83.382H1251.2C1251.8 83.382 1252.6 83.382 1253.2 83.5825C1253.2 83.5825 1253.4 89.796 1255.41 95.8092C1255.41 95.8092 1282.46 80.175 1282.86 79.9746C1285.87 79.1728 1288.67 78.1706 1291.48 76.968H1291.68C1292.48 76.7676 1293.08 76.3667 1293.88 76.1663C1294.08 76.1663 1294.08 75.9658 1294.28 75.9658C1294.88 75.7654 1295.48 75.3645 1296.09 75.1641C1296.09 75.1641 1296.29 75.1641 1296.49 74.9636C1296.49 74.9636 1296.49 74.9636 1296.69 74.9636C1297.89 74.3623 1298.89 73.9614 1299.89 73.3601C1319.73 63.5386 1331.76 50.3097 1331.76 50.3097C1330.35 49.7084 1328.95 48.9067 1327.55 48.3054C1327.15 48.1049 1326.75 47.9045 1326.55 47.9045C1325.34 47.5036 1324.34 46.9023 1323.34 46.5014C1322.94 46.301 1322.74 46.301 1322.34 46.1005C1319.53 44.8979 1316.73 44.0962 1313.92 43.094H1313.72C1312.32 42.6931 1311.12 42.2922 1309.71 41.8913C1309.51 41.8913 1309.51 41.8913 1309.31 41.8913C1302.7 40.0874 1296.49 39.0852 1290.67 38.6843C1289.67 38.6843 1288.67 38.4839 1287.47 38.4839C1284.66 38.4839 1281.86 38.4839 1279.25 38.6843C1277.65 38.8848 1276.05 38.8848 1274.44 39.0852H1274.24C1273.64 39.0852 1272.84 39.2856 1272.24 39.2856C1258.21 39.0852 1222.94 43.094 1222.94 43.094L1229.95 59.9308C1226.15 63.3382 1223.34 66.7457 1221.14 69.1509C1220.94 69.5518 1220.74 69.7522 1220.34 69.9527C1220.34 69.9527 1202.1 64.7413 1185.07 64.7413C1184.26 64.7413 1183.26 64.7413 1182.46 64.7413C1182.26 64.7413 1182.06 64.7413 1181.86 64.7413C1180.06 64.9417 1178.25 65.1422 1176.65 65.3426Z" fill="#231F20" fill-opacity="0.1"/>
<path d="M-55.5878 759.66C-31.3398 756.854 -5.2883 746.632 21.5648 725.185C25.172 722.178 21.5648 716.566 22.5668 716.967C30.1819 719.573 32.9874 715.965 32.1859 713.559C31.7851 712.357 31.5847 711.956 30.9835 710.553C29.1799 705.742 24.17 694.317 15.1522 681.69C15.1522 681.69 -35.5481 579.466 -127.129 610.735C-136.548 613.942 -156.588 629.576 -139.754 648.618H-139.353C-155.385 655.232 -173.02 664.653 -191.857 676.879C-191.857 676.879 -218.911 684.696 -255.984 654.029C-255.984 654.029 -240.954 676.879 -236.946 684.095L-264 704.139C-264 704.139 -227.127 689.507 -195.665 699.93C-190.054 705.742 -182.439 712.958 -173.02 720.374C-184.042 721.577 -192.659 725.987 -192.659 725.987C-137.55 800.55 -63.2028 763.869 -55.5878 759.66Z" fill="#231F20" fill-opacity="0.1"/>
<path d="M1082.46 358.183C1081.66 357.782 1081.46 357.782 1080.46 357.181C1077.45 355.577 1069.84 351.769 1059.82 349.364C1059.82 349.364 989.079 319.097 955.813 375.421C952.406 381.233 948.999 397.87 966.033 400.275L966.233 400.074C960.823 410.497 956.013 422.924 951.805 437.556C951.805 437.556 941.384 453.391 908.92 453.992C908.92 453.992 926.555 459.204 931.765 461.008L926.755 483.056C926.755 483.056 939.18 459.404 960.021 450.986C965.432 451.387 972.446 451.787 980.462 451.587C975.251 456.999 972.846 463.212 972.846 463.212C1033.77 477.243 1055.81 425.731 1058.02 420.319C1069.24 408.092 1078.05 391.456 1082.46 368.806C1083.06 365.599 1078.66 364.396 1079.26 364.196C1084.07 362.192 1083.87 358.985 1082.46 358.183Z" fill="#231F20" fill-opacity="0.1"/>
<path d="M770.847 466.82C772.049 457.6 759.625 464.616 759.625 464.616C754.013 452.79 741.388 430.341 712.732 431.543C712.732 431.543 709.726 422.524 698.904 418.916C678.063 412.101 641.19 429.739 637.583 496.285C620.149 475.239 589.488 491.875 589.488 491.875C589.488 491.875 608.325 499.091 616.341 517.331C624.357 535.571 617.944 556.015 617.944 556.015C617.944 556.015 653.214 546.595 646.401 515.326C672.853 525.148 694.095 525.95 710.728 522.141C716.539 526.35 732.771 531.361 738.783 525.549C743.994 520.738 736.178 517.13 728.363 515.326C731.77 513.522 734.775 511.518 737.581 509.313C737.581 509.313 745.998 512.32 749.004 510.917C756.418 507.509 746.599 501.897 745.797 501.697C753.011 493.679 757.42 484.659 759.224 477.444C770.847 477.444 766.638 471.23 766.238 470.829C768.843 469.827 770.646 468.424 770.847 466.82Z" fill="#231F20" fill-opacity="0.1"/>
<path d="M1350.79 45.0985C1352.2 57.1248 1344.58 67.748 1344.58 67.748C1344.58 67.748 1366.63 68.7502 1368.43 49.5081C1381.86 59.9309 1394.08 64.3406 1404.3 65.1423C1406.91 68.5498 1415.32 74.3625 1419.93 72.1577C1423.74 70.3537 1419.93 66.9463 1415.72 64.3406C1417.93 63.9397 1420.13 63.3384 1422.14 62.5366C1422.14 62.5366 1426.34 65.7436 1428.55 65.5432C1433.56 64.9419 1428.75 59.9309 1428.55 59.53C1434.16 56.1226 1438.37 51.9134 1440.77 47.9046C1447.39 50.1095 1446.18 45.6998 1445.98 45.2989C1447.39 45.0985 1448.79 44.6976 1449.19 43.6954C1451.59 38.484 1443.18 40.288 1443.18 40.288C1442.17 32.4709 1438.97 17.2376 1422.14 12.6275C1422.14 12.6275 1422.14 6.81482 1416.52 2.80606C1405.7 -4.81059 1381.25 -1.60358 1367.03 36.2792C1360.81 20.8455 1339.97 25.0547 1339.97 25.0547C1339.97 25.0547 1349.59 33.0722 1350.79 45.0985Z" fill="#231F20" fill-opacity="0.1"/>
<path d="M338.592 718.771C364.443 718.971 390.695 712.758 408.129 692.313C409.332 693.516 410.534 694.518 411.937 694.518C412.137 694.518 415.344 694.718 415.143 691.511C415.143 690.709 414.542 689.908 413.941 689.507C412.939 688.705 413.139 689.106 413.74 688.304C414.342 687.703 414.542 686.901 414.542 686.099C414.141 682.892 411.135 683.694 410.935 683.694C409.532 683.895 408.53 685.097 407.528 686.5C400.715 679.485 380.875 662.849 345.205 665.655C345.205 665.655 315.145 665.655 291.499 658.038C288.493 657.036 285.687 656.034 283.082 654.831C283.082 654.831 289.294 685.899 253.223 697.324C245.808 697.925 237.392 697.123 228.374 692.914C224.566 690.509 220.759 688.104 217.552 686.099C211.54 682.491 206.731 679.886 203.324 681.088C207.132 683.694 210.338 687.102 212.542 691.11C214.947 695.119 216.35 699.729 216.751 704.54C217.552 714.361 213.945 723.581 207.332 729.995C210.138 730.396 213.344 728.592 217.152 725.786C220.959 722.98 225.167 718.971 229.977 715.163L230.177 715.363C245.407 705.341 262.04 706.344 271.259 707.947C298.112 715.163 309.534 732.601 309.534 732.601C311.538 730.998 313.743 729.594 315.747 728.191C327.169 721.176 338.592 718.771 338.592 718.771Z" fill="#231F20" fill-opacity="0.1"/>
<path d="M945.993 196.63C950.602 205.248 951.003 215.27 947.597 223.689C950.202 223.087 952.606 220.081 955.011 215.872C957.416 211.663 959.62 206.451 962.426 201.039H962.626C972.646 185.806 988.277 179.993 997.495 177.788C1024.95 173.78 1042.38 185.205 1042.38 185.205C1043.59 183 1044.99 180.795 1046.39 178.791C1053.81 168.368 1063.43 161.553 1063.43 161.553C1087.07 151.531 1108.72 135.296 1116.73 109.64C1118.33 110.441 1119.94 110.642 1121.14 110.04C1121.34 110.04 1124.35 108.838 1122.94 106.032C1122.54 105.23 1121.94 104.829 1121.14 104.629C1119.94 104.228 1120.34 104.629 1120.54 103.626C1120.74 102.825 1120.74 102.023 1120.34 101.221C1118.74 98.415 1116.13 100.419 1115.93 100.419C1114.73 101.221 1114.33 102.624 1113.93 104.228C1104.91 100.419 1080.06 93.2036 1048.4 109.84C1048.4 109.84 1020.94 121.866 995.892 124.071C992.886 124.272 989.88 124.472 986.874 124.472C986.874 124.472 1004.91 150.529 976.454 175.383C970.041 178.991 961.825 181.597 952.005 181.196C947.597 180.595 943.188 179.793 939.38 179.192C932.366 178.189 926.956 177.788 924.351 180.194C928.759 181.196 933.168 183 936.775 185.606C940.583 188.612 943.789 192.22 945.993 196.63Z" fill="#231F20" fill-opacity="0.1"/>
<path d="M-35.3478 610.735C-24.5264 611.136 -10.0978 609.933 3.32872 604.321C22.166 612.339 40.6024 616.548 57.4357 618.753C57.4357 618.753 56.2334 622.561 51.0231 626.97C51.0231 626.97 60.8425 626.77 66.654 619.755C69.2591 619.955 71.6639 620.156 74.0686 620.156C74.0686 620.156 68.4575 627.371 60.6421 630.779C60.6421 630.779 79.2789 634.387 87.0944 620.556C111.142 620.356 127.174 616.548 127.174 616.548C126.973 615.746 126.572 614.944 126.172 613.942C124.969 610.535 123.366 607.528 121.963 604.722C116.152 594.299 108.136 587.484 99.1182 583.275C57.8365 536.373 -2.88355 576.861 -2.88355 576.861C-0.478798 577.462 2.32674 579.066 4.93189 580.87C10.1422 584.678 14.9517 589.489 15.1521 589.689C11.1442 591.293 7.53705 592.696 4.53111 594.099C-6.2903 586.482 -21.1196 583.275 -32.5422 581.672C-42.7624 580.268 -50.5779 580.469 -50.5779 580.469L-33.5442 597.105L-53.183 608.731C-53.3834 608.53 -45.9688 610.334 -35.3478 610.735Z" fill="#231F20" fill-opacity="0.1"/>
<path d="M623.756 586.883C620.55 584.277 617.544 582.072 614.337 580.268C602.714 573.454 591.091 571.249 579.869 572.251C513.137 549.601 476.665 623.363 476.665 623.363C479.27 622.561 482.877 622.561 486.484 622.761C493.699 623.363 501.113 625.567 501.514 625.567C498.508 629.376 495.903 632.783 493.699 635.79C478.869 634.387 462.637 639.598 450.413 644.609C439.592 649.219 432.177 653.629 432.177 653.629L458.229 660.243L445.604 682.692C445.604 682.692 453.82 680.287 464.441 674.474C475.262 668.662 488.689 659.642 498.508 646.413C521.353 643.607 541.794 637.393 559.429 629.977C559.429 629.977 560.431 634.387 557.625 641.603C557.625 641.603 567.044 635.99 568.847 625.768C571.452 624.565 573.857 623.363 576.262 622.16C576.262 622.16 574.859 632.382 569.048 639.999C569.048 639.999 589.087 632.984 589.087 615.145C612.534 601.515 625.76 588.687 625.76 588.687C625.359 588.086 624.557 587.484 623.756 586.883Z" fill="#231F20" fill-opacity="0.1"/>
<path d="M1319.73 200.639C1317.33 198.634 1314.92 197.031 1312.72 195.628C1303.9 190.416 1295.28 188.813 1286.67 189.615C1236.37 172.577 1208.71 228.299 1208.71 228.299C1210.72 227.698 1213.32 227.698 1216.13 227.898C1221.54 228.5 1227.15 230.103 1227.55 230.103C1225.35 232.909 1223.34 235.515 1221.54 237.92C1210.32 236.918 1198.09 240.726 1188.87 244.535C1180.66 247.942 1175.05 251.349 1175.05 251.349L1194.69 256.36L1185.07 273.398C1185.07 273.398 1191.28 271.594 1199.29 267.184C1207.51 262.774 1217.53 255.96 1224.95 245.938C1242.18 243.933 1257.61 239.123 1271.04 233.51C1271.04 233.51 1271.84 236.717 1269.83 242.33C1269.83 242.33 1277.05 238.121 1278.25 230.303C1280.25 229.301 1282.06 228.5 1283.86 227.497C1283.86 227.497 1282.66 235.114 1278.45 240.927C1278.45 240.927 1293.68 235.715 1293.48 222.086C1311.12 211.663 1321.14 202.042 1321.14 202.042C1320.93 201.641 1320.33 201.04 1319.73 200.639Z" fill="#231F20" fill-opacity="0.1"/>
<path d="M-5.689 779.303L-1.68107 791.129C-17.1116 791.53 -34.1453 794.537 -52.3813 801.552C-52.3813 801.552 -71.419 792.532 -106.488 785.918L-91.8594 802.955L-109.094 815.382C-109.094 815.382 -109.094 815.382 -108.893 815.382H-108.693C-104.284 815.783 -71.2186 818.389 -53.3833 812.375C-42.9627 818.389 -24.927 827.408 -2.48264 831.618L-3.48463 847.252C3.93004 845.849 23.3685 834.424 23.9697 834.023C42.6065 834.023 62.8466 830.014 84.0886 819.391C84.0886 819.391 61.4438 799.147 23.7693 792.733C23.7693 792.933 17.7574 785.517 -5.689 779.303Z" fill="#231F20" fill-opacity="0.1"/>
<path d="M331.778 386.846C331.778 386.846 331.778 386.645 331.778 386.846C331.979 386.846 331.979 386.846 331.979 386.846C331.979 386.846 332.179 386.846 332.38 386.846H332.58C332.78 386.846 332.78 386.846 332.981 386.645C333.181 386.645 333.181 386.645 333.382 386.645C333.582 386.645 333.782 386.645 333.983 386.445C334.183 386.445 334.384 386.445 334.584 386.244C334.784 386.244 334.985 386.044 335.185 386.044C335.386 386.044 335.586 386.044 335.786 385.843C335.987 385.843 336.388 385.643 336.588 385.643C336.788 385.643 336.989 385.443 337.189 385.443C337.59 385.443 337.79 385.242 338.191 385.242C338.391 385.242 338.592 385.042 338.993 385.042C339.393 385.042 339.794 384.841 340.195 384.641C340.395 384.641 340.596 384.44 340.796 384.44C341.197 384.24 341.798 384.24 342.199 384.04C342.399 384.04 342.6 383.839 342.8 383.839C343.401 383.639 344.003 383.438 344.604 383.238C344.804 383.238 344.804 383.238 345.005 383.238C360.435 378.828 385.685 370.61 399.913 360.187C415.344 363.595 441.195 367.203 471.054 363.194L476.064 383.037C484.681 378.427 504.119 356.179 504.72 355.377C527.766 347.76 551.413 334.531 573.256 312.684C573.256 312.684 536.784 296.849 487.486 304.265C487.486 304.265 476.865 297.25 445.203 299.254L455.022 312.283C436.185 319.098 416.145 329.721 396.506 346.157C396.506 346.157 369.252 342.749 322.961 349.163L348.211 364.397L331.778 386.846Z" fill="#231F20" fill-opacity="0.1"/>
<path d="M326.969 435.552C310.737 440.964 293.503 449.583 276.268 463.212C276.268 463.212 253.023 459.805 213.544 464.215L234.786 477.644L220.358 496.485C220.358 496.485 220.358 496.485 220.558 496.485C220.558 496.485 220.759 496.485 220.959 496.485C221.159 496.485 221.36 496.485 221.56 496.285C221.761 496.285 221.961 496.084 222.362 496.084C222.763 496.084 222.963 495.884 223.364 495.884C223.364 495.884 223.364 495.884 223.564 495.884C233.384 493.679 263.644 486.263 278.874 475.239C291.899 478.446 313.943 482.053 339.594 479.247L343.602 496.285C351.217 492.476 368.451 473.435 368.651 473.234C388.49 467.221 408.931 456.397 427.968 438.158C427.968 438.158 397.107 423.926 355.024 429.338C355.024 429.338 346.207 423.125 319.153 424.327L326.969 435.552Z" fill="#231F20" fill-opacity="0.1"/>
<path d="M770.646 241.327L762.631 258.365C762.631 258.365 792.49 245.336 804.513 232.107C815.134 232.308 832.97 231.506 852.208 224.892L858.019 237.519C863.23 233.31 873.65 215.471 873.65 215.471C887.878 207.453 902.106 195.628 913.729 178.39C913.729 178.39 887.478 172.577 855.614 183.802C855.614 183.802 847.799 180.595 826.958 186.007L835.174 193.423C823.351 200.238 811.527 210.059 800.505 223.488C800.505 223.488 781.869 224.691 752.01 234.913L770.646 241.327Z" fill="#231F20" fill-opacity="0.1"/>
<path d="M91.3026 810.171C91.503 810.171 91.503 810.171 91.7034 810.171H91.9038C92.1042 810.171 92.1042 810.171 92.3046 810.171H92.505C92.7054 810.171 92.9058 810.171 93.1062 810.171C93.3066 810.171 93.3066 810.171 93.507 810.171C93.7074 810.171 93.9078 810.171 94.3086 810.171C94.509 810.171 94.509 810.171 94.7094 810.171C95.1102 810.171 95.3106 810.171 95.7114 810.171C95.9117 810.171 95.9117 810.171 96.1121 810.171C96.5129 810.171 96.9137 810.171 97.3145 809.971C97.5149 809.971 97.7153 809.971 97.9157 809.971C98.3165 809.971 98.7173 809.971 99.3185 809.77C99.5189 809.77 99.7193 809.77 99.9197 809.77C100.32 809.77 100.922 809.57 101.322 809.57C101.523 809.57 101.723 809.57 101.924 809.57C102.525 809.57 103.126 809.369 103.727 809.369C103.928 809.369 103.928 809.369 104.128 809.369C104.729 809.369 105.531 809.169 106.132 809.169C106.332 809.169 106.332 809.169 106.332 809.169C108.737 808.768 111.342 808.568 114.148 808.167C114.949 807.966 115.951 807.966 116.753 807.766C116.953 807.766 117.154 807.766 117.354 807.766C118.156 807.565 118.757 807.565 119.559 807.365H119.759C133.185 805.16 148.416 801.552 158.636 796.14C172.463 801.552 196.31 808.768 224.767 809.57L226.57 828.812C235.388 825.805 256.63 807.966 257.632 807.164C280.276 803.356 304.324 794.537 328.171 777.5C328.171 777.5 296.308 757.255 249.215 756.854C249.215 756.854 240.398 748.837 210.538 746.031L217.753 759.661C199.116 763.068 178.876 770.083 157.834 782.511C157.834 782.511 132.785 775.295 88.4971 774.293L109.739 792.332L91.3026 810.171C91.1022 810.171 91.3026 810.171 91.3026 810.171Z" fill="#231F20" fill-opacity="0.1"/>
<path d="M903.91 519.936C903.91 519.936 894.091 518.934 873.049 531.963L884.672 537.374C874.051 548.799 864.232 563.431 856.617 581.872C856.617 581.872 836.777 589.488 807.119 610.534L829.964 611.937L826.757 633.384C826.757 633.384 826.958 633.184 827.158 632.983C827.359 632.983 827.359 632.783 827.559 632.583L827.759 632.382C827.96 632.382 827.96 632.182 828.16 631.981C828.16 631.981 828.361 631.781 828.561 631.781C828.761 631.58 828.761 631.58 828.962 631.38C829.162 631.179 829.162 631.179 829.363 630.979C829.563 630.779 829.563 630.779 829.763 630.578C829.964 630.378 829.964 630.378 830.164 630.177C830.365 629.977 830.565 629.776 830.765 629.776C830.966 629.576 831.166 629.576 831.166 629.376C831.367 629.175 831.567 628.975 831.767 628.774C831.968 628.574 832.168 628.373 832.369 628.173C832.569 627.972 832.769 627.772 832.97 627.572C833.17 627.371 833.371 627.171 833.571 626.97C833.771 626.77 833.972 626.569 834.372 626.369C834.573 626.169 834.773 625.968 834.974 625.768C835.174 625.567 835.575 625.166 835.775 624.966C835.976 624.765 836.176 624.565 836.376 624.365C836.577 624.164 836.978 623.763 837.178 623.563C837.378 623.362 837.579 623.162 837.779 622.962C837.98 622.761 838.38 622.36 838.581 622.16C838.982 621.759 839.382 621.358 839.783 620.957C840.184 620.556 840.384 620.356 840.785 619.955C840.986 619.755 841.186 619.354 841.587 619.153C841.787 618.953 842.188 618.552 842.388 618.351C842.589 618.151 842.99 617.75 843.19 617.55C843.39 617.349 843.591 616.948 843.992 616.748L844.192 616.548C851.807 608.53 860.023 598.709 864.232 590.09C876.055 586.883 895.093 579.867 914.13 566.238L924.751 578.063C928.96 571.649 934.37 549.401 934.571 548.599C947.596 534.969 959.019 517.331 966.233 494.28C965.832 494.481 934.971 496.886 903.91 519.936Z" fill="#231F20" fill-opacity="0.1"/>
<path d="M154.227 404.885C154.628 405.887 154.828 407.691 155.029 408.693C156.231 424.327 142.404 449.382 142.404 449.382C142.404 449.382 146.612 448.981 150.82 441.765C160.64 425.53 171.261 418.114 180.279 415.107C182.483 414.305 184.687 413.905 186.691 413.504C187.293 413.504 187.894 413.303 188.495 413.303H188.695C189.296 413.303 189.697 413.303 190.298 413.103H190.499C191.1 413.103 191.501 413.103 191.902 413.103H192.102C192.503 413.103 193.104 413.103 193.505 413.103C193.505 413.103 193.505 413.103 193.705 413.103C195.308 413.103 196.511 413.303 197.713 413.504C201.921 415.508 206.531 417.312 211.34 419.116C216.15 435.953 223.163 439.16 223.163 439.16C245.407 438.558 255.227 428.537 258.433 424.127C262.842 423.125 267.251 421.722 271.259 419.517C274.465 417.713 277.671 415.709 280.677 413.103C281.479 412.502 282.28 411.7 283.082 410.898C283.683 410.297 284.284 409.695 284.886 409.094C284.886 409.094 284.886 408.894 285.086 408.894C285.687 408.292 286.288 407.691 286.89 406.889L287.09 406.689C287.691 406.088 288.292 405.286 288.693 404.484C288.693 404.484 288.693 404.284 288.893 404.284C289.495 403.482 290.096 402.68 290.497 401.878C294.104 396.667 297.31 390.253 300.116 382.636C300.516 381.634 297.511 378.026 297.511 378.026C297.511 378.026 302.52 375.821 302.921 375.02C302.921 375.02 289.294 358.183 264.646 354.976C263.644 354.775 262.642 354.775 261.64 354.775C256.83 353.573 245.808 348.963 225.969 329.32C214.346 317.895 200.118 319.298 199.316 323.507C199.316 323.707 199.316 323.908 199.316 324.108C199.316 324.108 199.316 324.108 199.316 324.309C199.316 324.509 199.517 324.71 199.517 324.91C199.717 325.111 199.918 325.311 200.118 325.712L200.318 325.912C200.519 326.113 200.719 326.514 201.12 326.714C208.735 332.727 220.558 362.392 204.527 374.017C201.521 376.222 198.314 378.627 195.108 381.233C194.908 381.434 194.707 381.634 194.507 381.835C193.705 382.636 191.902 383.839 189.296 385.042C187.493 386.044 185.289 386.845 182.683 387.647C182.683 387.647 182.683 387.647 182.483 387.647C181.882 387.848 181.281 388.048 180.679 388.048C180.679 388.048 180.679 388.048 180.479 388.048C179.878 388.249 179.076 388.249 178.275 388.449C176.872 388.649 175.269 388.85 173.465 388.85C164.247 389.05 152.223 386.044 137.995 375.42C131.382 370.41 127.374 371.612 127.374 371.612C127.374 371.612 149.418 390.052 154.227 404.885Z" fill="#231F20" fill-opacity="0.1"/>
<path d="M448.81 463.213C448.81 463.613 448.81 464.215 448.81 464.616C448.81 464.816 448.81 465.016 448.81 465.217C448.81 465.618 449.01 466.019 449.01 466.62C449.01 466.82 449.01 467.021 449.211 467.221C449.411 467.823 449.611 468.624 449.812 469.226C450.012 469.827 450.213 470.428 450.613 471.23C450.613 471.431 450.814 471.631 450.814 471.831C451.014 472.232 451.215 472.633 451.415 473.034C451.615 473.234 451.615 473.435 451.816 473.635C452.016 474.036 452.217 474.437 452.617 474.638C452.818 474.838 452.818 475.038 453.018 475.038C453.419 475.439 453.82 475.84 454.02 476.241C454.22 476.441 454.421 476.642 454.621 476.842C454.822 477.043 455.022 477.243 455.423 477.444C455.623 477.644 455.824 477.845 456.024 478.045C456.224 478.245 456.425 478.446 456.625 478.446C456.826 478.646 457.226 478.847 457.427 478.847C457.627 478.847 457.828 479.047 458.028 479.047C458.629 479.448 459.431 479.648 460.032 479.849C460.232 479.849 460.433 480.049 460.633 480.049C461.034 480.25 461.435 480.25 461.836 480.45C462.036 480.45 462.236 480.45 462.437 480.651C462.838 480.651 463.439 480.851 463.84 480.851C463.84 480.851 463.839 480.851 464.04 480.851C465.643 481.052 467.447 481.052 469.25 481.052C469.451 481.052 469.651 481.052 469.651 481.052C470.252 481.052 470.853 481.052 471.455 480.851C471.455 480.851 471.455 480.851 471.655 480.851C475.062 480.45 478.869 479.648 483.078 478.245C484.881 477.644 486.484 476.842 488.087 476.041L491.294 493.278C488.889 497.487 486.083 501.296 482.476 504.503C484.08 504.503 485.883 504.703 487.486 504.503H487.687C490.693 504.503 494.099 504.302 497.506 503.901H497.706C497.706 503.901 497.706 503.901 497.907 503.901C497.907 503.901 497.907 503.901 498.107 503.901C501.113 503.501 504.119 503.1 507.325 502.498C507.526 502.498 507.927 502.498 508.127 502.298C511.333 501.697 514.54 500.895 517.947 500.093C518.147 500.093 518.548 499.893 518.748 499.893C519.95 499.492 521.353 499.291 522.756 498.89C518.949 503.501 517.345 507.108 518.548 508.311C523.357 512.921 536.383 504.503 543.196 499.291C554.419 490.472 559.429 484.659 559.228 483.256C563.036 480.651 566.442 477.644 569.849 474.638C570.05 474.638 570.05 474.437 570.25 474.437C572.855 472.032 575.26 469.627 577.464 467.021C577.665 466.82 577.665 466.62 577.865 466.42C578.867 465.417 579.669 464.415 580.47 463.213C580.671 463.012 580.871 462.812 581.071 462.611C582.073 461.409 582.875 460.206 583.877 459.003C584.879 457.801 585.68 456.398 586.682 455.195L586.883 454.995C587.684 453.792 588.286 452.79 589.087 451.587C589.288 451.387 589.288 451.186 589.488 450.986C590.29 449.783 590.891 448.781 591.492 447.779C591.492 447.779 591.492 447.578 591.692 447.578C592.494 446.376 593.095 445.173 593.696 443.97C593.696 443.97 593.696 443.97 593.696 443.77C594.298 442.768 594.698 441.766 595.299 440.563C595.5 440.363 595.5 440.162 595.7 439.962C596.101 438.96 596.502 438.158 596.903 437.156C596.903 436.955 597.103 436.955 597.103 436.755C597.504 435.753 597.905 434.75 598.305 433.748C598.305 433.748 598.305 433.748 598.305 433.548C598.706 432.746 598.907 431.744 599.307 430.942C599.307 430.742 599.508 430.541 599.508 430.341C599.708 429.739 599.909 428.938 600.109 428.336C600.109 428.136 600.309 427.935 600.309 427.735C600.51 426.933 600.71 426.332 600.911 425.53C600.911 425.53 600.911 425.53 600.911 425.33C601.111 424.728 601.111 424.127 601.111 423.726C601.111 423.526 601.111 423.325 601.111 423.325C601.111 422.924 601.111 422.524 601.111 422.323C601.111 422.123 601.111 422.123 601.111 421.922C601.111 421.521 601.111 421.121 600.911 420.92C600.911 420.72 600.71 420.519 600.51 420.118C600.51 420.118 600.51 420.118 600.51 419.918C600.309 419.717 600.309 419.517 600.109 419.317C600.109 419.317 600.109 419.317 600.109 419.116C599.909 418.916 599.708 418.515 599.307 418.314C599.307 418.314 599.307 418.314 599.107 418.114L598.907 417.914C598.706 417.713 598.506 417.513 598.305 417.312L598.105 417.112C598.105 417.112 598.105 417.112 597.905 416.911C597.504 416.711 597.303 416.31 596.903 415.909C596.903 415.909 596.903 415.909 596.702 415.709C596.502 415.508 596.502 415.508 596.301 415.308C596.101 415.107 595.901 414.907 595.5 414.707C595.299 414.506 595.3 414.506 595.099 414.306C594.899 414.306 594.899 414.105 594.698 414.105C594.498 413.905 594.298 413.704 593.897 413.504C593.696 413.303 593.496 413.103 593.296 413.103C592.895 412.903 592.694 412.702 592.294 412.502C592.093 412.502 592.093 412.301 591.893 412.301C591.692 412.101 591.492 412.101 591.292 411.9C590.69 411.5 590.29 411.299 589.688 410.898C589.488 410.698 589.288 410.698 589.288 410.497C588.686 410.096 588.085 409.696 587.284 409.295C587.083 409.295 587.083 409.094 586.883 409.094C586.081 408.693 585.48 408.293 584.678 407.892C584.678 407.892 584.478 407.892 584.478 407.691C583.676 407.29 582.875 406.889 581.873 406.489C581.873 406.489 581.873 406.489 581.673 406.489C580.871 406.088 579.869 405.687 578.867 405.086C562.635 397.469 539.389 391.255 516.143 395.264C514.74 395.464 513.538 395.665 512.135 396.066C512.135 396.066 512.135 396.066 511.935 396.066C510.532 396.266 509.329 396.667 507.927 397.068C507.526 397.268 507.326 397.268 506.925 397.469C506.524 397.669 506.123 397.669 505.722 397.87C502.716 398.872 499.911 399.674 497.306 400.676C497.306 400.676 497.306 400.676 497.105 400.676C496.905 400.676 496.905 400.676 496.705 400.876C495.903 401.077 494.901 401.478 494.099 401.678C493.699 401.879 493.298 401.879 492.897 402.079C492.697 402.079 492.296 402.279 492.095 402.279C491.093 402.68 489.891 403.081 488.889 403.482C488.889 403.482 488.889 403.482 488.689 403.482C488.288 403.682 488.087 403.682 487.687 403.883C487.286 404.083 487.085 404.083 486.685 404.284C485.683 404.685 484.681 405.086 483.879 405.486C483.478 405.687 482.877 405.887 482.476 406.088C481.675 406.489 480.873 406.689 480.072 407.09C479.671 407.29 479.07 407.491 478.669 407.691C477.466 408.092 476.464 408.693 475.262 409.295C475.262 409.295 475.062 409.295 475.062 409.495C474.661 409.696 474.46 409.696 474.06 409.896C473.258 410.297 472.457 410.698 471.655 411.099C471.054 411.299 470.453 411.7 469.851 411.9C469.25 412.301 468.649 412.502 468.048 412.903C467.447 413.103 467.046 413.504 466.445 413.704C465.443 414.306 464.441 414.907 463.439 415.308C463.238 415.508 463.038 415.508 462.838 415.709C460.834 416.911 459.03 418.114 457.226 419.317C456.425 419.918 455.623 420.519 454.822 421.121C455.623 421.121 456.425 421.321 457.226 421.521C458.629 421.722 460.032 422.123 461.435 422.524C461.836 422.724 462.236 422.724 462.637 422.925C463.238 423.125 463.839 423.325 464.441 423.526C464.841 423.726 465.242 423.927 465.843 424.127C466.445 424.328 466.845 424.528 467.447 424.728C467.847 424.929 468.449 425.129 468.849 425.33C469.451 425.53 469.851 425.731 470.453 426.132C470.853 426.332 471.455 426.532 471.855 426.933C472.256 427.134 472.857 427.535 473.258 427.735C473.659 427.935 474.06 428.336 474.661 428.537C475.062 428.737 475.663 429.138 476.064 429.539C476.464 429.739 476.865 430.14 477.266 430.341C477.667 430.742 478.268 430.942 478.669 431.343C478.869 431.543 479.07 431.744 479.27 431.744L481.074 441.766C477.867 441.565 474.661 441.766 471.455 442.768C466.445 444.371 462.236 446.175 459.03 448.18H458.83C457.226 449.182 455.623 450.385 454.421 451.387C454.421 451.387 454.421 451.387 454.22 451.587C453.82 451.988 453.619 452.188 453.218 452.589C453.018 452.79 453.018 452.79 452.818 452.99C452.617 453.391 452.216 453.592 452.016 453.992C451.816 454.193 451.816 454.393 451.615 454.393C451.215 454.995 450.814 455.395 450.613 455.997C450.413 456.197 450.413 456.398 450.213 456.598C450.012 456.799 450.012 457.199 449.812 457.4C449.611 457.6 449.611 458.001 449.411 458.202C449.411 458.402 449.211 458.803 449.211 459.003C449.211 459.404 449.01 459.605 449.01 460.006C449.01 460.206 448.81 460.406 448.81 460.607C448.81 461.208 448.609 461.809 448.609 462.21C448.81 462.812 448.81 463.012 448.81 463.213Z" fill="#231F20" fill-opacity="0.1"/>
<path d="M1204.3 304.465C1204.3 303.864 1204.3 303.463 1204.1 303.062C1204.1 302.862 1204.1 302.862 1204.1 302.661C1204.1 302.261 1203.9 302.06 1203.9 301.86V301.659C1203.9 301.258 1203.7 301.058 1203.5 300.858C1203.3 300.657 1203.3 300.457 1203.1 300.256L1202.9 300.056L1202.7 299.855C1202.7 299.855 1202.7 299.855 1202.5 299.855C1202.3 299.855 1202.3 299.655 1202.1 299.655L1201.9 299.454C1201.9 299.454 1201.9 299.454 1201.7 299.454C1201.7 299.454 1201.5 299.454 1201.5 299.254C1201.3 299.054 1200.9 298.853 1200.7 298.653C1200.7 298.653 1200.7 298.653 1200.5 298.653C1200.5 298.653 1200.3 298.653 1200.3 298.452C1200.1 298.252 1199.7 298.252 1199.49 298.051C1199.29 298.051 1199.29 297.851 1199.09 297.851C1199.09 297.851 1199.09 297.851 1198.89 297.851C1198.69 297.851 1198.69 297.651 1198.49 297.651C1198.29 297.651 1198.09 297.45 1198.09 297.45C1197.89 297.45 1197.69 297.25 1197.49 297.25C1197.09 297.049 1196.89 297.049 1196.49 296.849C1196.29 296.849 1195.89 296.648 1195.69 296.648C1195.49 296.448 1195.09 296.448 1194.69 296.247C1194.48 296.247 1194.28 296.047 1194.08 296.047C1194.08 296.047 1194.08 296.047 1193.88 296.047C1193.68 296.047 1193.68 296.047 1193.48 295.847C1193.28 295.847 1192.88 295.646 1192.68 295.646C1192.28 295.446 1191.88 295.446 1191.48 295.245C1191.28 295.245 1191.08 295.045 1190.88 295.045C1190.28 294.844 1189.88 294.844 1189.27 294.644C1189.07 294.644 1188.87 294.644 1188.67 294.444C1188.07 294.243 1187.47 294.243 1186.87 294.043C1186.67 294.043 1186.67 294.043 1186.47 294.043C1185.87 293.842 1185.07 293.842 1184.47 293.642H1184.26C1183.46 293.441 1182.66 293.441 1181.86 293.241C1166.63 290.635 1146.19 291.237 1129.16 301.258C1128.96 301.459 1128.75 301.459 1128.55 301.659C1128.15 301.86 1127.75 302.06 1127.55 302.261C1126.55 302.862 1125.55 303.463 1124.75 304.065C1124.35 304.265 1123.95 304.666 1123.34 304.866L1123.14 305.067C1123.14 305.067 1122.94 305.267 1122.74 305.267C1122.14 305.668 1121.74 305.869 1121.14 306.269C1120.74 306.47 1120.34 306.871 1119.94 307.071C1119.54 307.272 1119.34 307.472 1118.94 307.672C1118.33 308.073 1117.73 308.474 1117.13 308.875C1116.93 308.875 1116.93 309.076 1116.73 309.076C1116.53 309.076 1116.53 309.276 1116.33 309.276C1116.13 309.476 1115.93 309.677 1115.53 309.677C1114.93 310.078 1114.33 310.479 1113.93 310.879C1113.52 311.28 1112.92 311.481 1112.52 311.882C1112.32 312.082 1112.12 312.283 1111.92 312.483C1110.52 313.485 1109.12 314.487 1107.91 315.69C1107.51 315.89 1107.31 316.291 1106.91 316.492C1106.51 316.692 1106.11 317.093 1105.91 317.293C1105.51 317.694 1105.11 318.095 1104.71 318.296C1104.31 318.697 1103.91 319.097 1103.5 319.298C1103.3 319.498 1102.9 319.899 1102.7 320.1C1101.9 320.701 1101.3 321.302 1100.7 322.104C1100.5 322.304 1100.5 322.304 1100.3 322.505C1099.7 323.106 1099.1 323.707 1098.49 324.509C1097.89 325.111 1097.49 325.712 1096.89 326.113C1096.89 326.113 1096.89 326.113 1096.69 326.313C1096.09 326.915 1095.69 327.516 1095.29 328.117C1095.69 328.117 1096.09 328.117 1096.49 327.917C1097.89 327.716 1099.1 327.716 1100.5 327.716C1100.7 327.716 1100.9 327.716 1101.3 327.716C1101.9 327.716 1102.5 327.716 1102.9 327.716C1103.3 327.716 1103.71 327.716 1104.11 327.917C1104.51 327.917 1104.91 328.117 1105.31 328.117C1105.71 328.117 1106.11 328.318 1106.51 328.318C1106.91 328.318 1107.31 328.518 1107.71 328.518C1108.11 328.518 1108.51 328.718 1108.92 328.718C1109.32 328.919 1109.72 328.919 1110.12 329.119C1110.52 329.32 1110.92 329.32 1111.32 329.52C1111.72 329.721 1112.12 329.721 1112.52 329.921C1112.92 330.122 1113.32 330.122 1113.52 330.322C1113.93 330.522 1114.33 330.723 1114.73 330.923C1114.93 330.923 1115.13 331.124 1115.33 331.124L1118.53 338.139C1116.13 338.54 1113.73 339.342 1111.52 340.745C1108.72 342.549 1106.31 344.353 1104.31 345.956C1103.91 346.357 1103.71 346.557 1103.3 346.958L1103.1 347.159C1102.1 348.161 1101.3 349.163 1100.7 350.165L1100.5 350.366C1100.3 350.566 1100.1 350.967 1099.9 351.168C1099.9 351.368 1099.7 351.568 1099.7 351.568C1099.5 351.769 1099.5 352.17 1099.3 352.37C1099.3 352.571 1099.1 352.771 1099.1 352.971C1098.9 353.372 1098.9 353.773 1098.7 354.174C1098.7 354.375 1098.49 354.575 1098.49 354.976C1098.49 355.176 1098.49 355.377 1098.29 355.577C1098.29 355.778 1098.29 355.978 1098.29 356.178C1098.29 356.379 1098.29 356.579 1098.29 356.78C1098.29 356.98 1098.29 357.381 1098.29 357.582C1098.29 357.782 1098.29 357.982 1098.29 358.183C1098.29 358.584 1098.29 358.985 1098.49 359.385C1098.49 359.586 1098.49 359.586 1098.7 359.786C1098.7 360.187 1098.9 360.388 1098.9 360.789C1098.9 360.989 1099.1 361.189 1099.1 361.39C1099.3 361.791 1099.3 361.991 1099.5 362.392C1099.5 362.592 1099.7 362.793 1099.7 362.793C1099.9 363.194 1100.1 363.795 1100.5 364.196C1100.9 364.797 1101.3 365.599 1101.9 366C1102.1 366.2 1102.1 366.2 1102.3 366.401C1102.7 367.002 1103.3 367.403 1103.91 368.004C1104.51 368.405 1105.11 368.806 1105.71 369.007L1105.91 369.207C1106.51 369.608 1107.31 369.808 1107.91 370.009C1108.72 370.209 1109.32 370.209 1110.12 370.41C1110.12 370.41 1110.12 370.41 1110.32 370.41C1114.73 370.61 1120.14 368.806 1126.55 364.797C1127.75 363.996 1128.75 363.194 1129.76 362.192L1135.37 374.418C1134.37 378.026 1132.96 381.233 1130.96 384.44C1132.76 384.039 1134.77 383.639 1136.77 383.037H1136.97C1137.57 382.837 1138.37 382.636 1138.97 382.436C1139.18 382.436 1139.38 382.235 1139.38 382.235C1140.58 381.835 1141.58 381.434 1142.78 381.033C1143.18 380.832 1143.78 380.632 1144.19 380.431C1145.19 380.031 1145.99 379.63 1146.99 379.229C1147.39 379.028 1147.99 378.828 1148.39 378.628C1149.8 378.026 1151 377.425 1152.4 376.623H1152.6C1152.8 376.423 1153 376.423 1153.2 376.222C1154.61 375.621 1155.81 374.819 1157.21 374.218C1157.81 374.017 1158.21 373.617 1158.81 373.416C1159.01 373.216 1159.42 373.216 1159.62 373.015C1157.61 377.024 1157.01 380.231 1158.21 380.832C1162.62 383.438 1170.84 374.819 1174.85 369.608C1181.46 360.989 1184.26 355.778 1183.86 354.775C1184.26 354.375 1184.67 353.974 1185.07 353.372C1185.07 353.372 1185.07 353.372 1185.07 353.172C1186.87 350.967 1188.47 348.562 1190.08 346.357C1190.08 346.157 1190.28 346.157 1190.28 345.956C1190.88 344.954 1191.68 343.751 1192.28 342.749C1192.28 342.749 1192.28 342.549 1192.48 342.549C1193.08 341.546 1193.68 340.344 1194.28 339.342C1194.48 339.141 1194.48 338.941 1194.69 338.74C1195.09 337.939 1195.49 336.936 1195.89 336.135C1196.09 335.934 1196.09 335.734 1196.29 335.533C1196.69 334.531 1197.29 333.529 1197.69 332.527C1198.09 331.324 1198.69 330.322 1199.09 329.119V328.919C1199.49 327.917 1199.9 326.915 1200.1 325.912C1200.1 325.712 1200.3 325.511 1200.3 325.511C1200.7 324.509 1200.9 323.507 1201.3 322.505C1201.9 320.5 1202.3 318.496 1202.9 316.692C1202.9 316.492 1202.9 316.492 1202.9 316.291C1203.1 315.49 1203.3 314.688 1203.3 313.886V313.686C1203.5 312.082 1203.9 310.479 1203.9 309.076C1203.9 308.875 1203.9 308.875 1203.9 308.675C1203.9 308.073 1203.9 307.472 1203.9 307.071C1203.9 306.871 1203.9 306.871 1203.9 306.67C1204.3 305.468 1204.3 304.866 1204.3 304.465Z" fill="#231F20" fill-opacity="0.1"/>
<path d="M1086.27 285.023C1087.47 285.023 1088.48 285.023 1089.68 284.822C1093.49 284.622 1097.29 284.221 1100.9 283.419C1100.9 283.419 1100.9 283.419 1101.1 283.419C1102.3 283.219 1103.5 283.018 1104.71 282.618C1104.91 282.618 1104.91 282.618 1105.11 282.618H1105.31C1106.11 282.417 1106.71 282.217 1107.31 282.217C1107.31 282.217 1109.52 288.631 1113.52 294.443C1113.52 294.443 1137.17 269.389 1137.57 268.988C1140.38 267.184 1143.18 265.179 1145.79 263.175C1145.99 263.175 1145.99 262.975 1146.19 262.975C1146.79 262.574 1147.39 261.972 1147.99 261.572C1148.19 261.371 1148.39 261.371 1148.59 261.171C1149.2 260.77 1149.6 260.369 1150.2 259.768C1150.4 259.567 1150.4 259.567 1150.6 259.367C1150.6 259.367 1150.6 259.367 1150.8 259.166C1151.8 258.364 1152.8 257.362 1153.6 256.561L1153.8 256.36C1156.81 253.554 1159.62 250.748 1162.02 248.142C1162.82 247.34 1163.62 246.338 1164.23 245.536C1164.23 245.336 1164.43 245.336 1164.43 245.136C1165.03 244.334 1165.83 243.532 1166.43 242.73C1166.63 242.53 1166.63 242.329 1166.83 242.329C1167.43 241.528 1168.03 240.926 1168.63 240.125C1168.83 239.924 1168.83 239.724 1169.03 239.724C1169.44 239.122 1170.04 238.521 1170.44 237.92C1170.44 237.719 1170.64 237.719 1170.64 237.519C1177.05 228.7 1180.26 222.085 1180.26 222.085C1178.45 221.885 1176.85 221.684 1175.05 221.283C1174.65 221.283 1174.04 221.083 1173.64 221.083C1172.44 220.883 1171.24 220.883 1169.84 220.682C1169.44 220.682 1169.03 220.682 1168.43 220.482C1166.83 220.281 1165.43 220.281 1163.82 220.081H1163.62C1162.02 220.081 1160.22 219.88 1158.61 219.88C1158.41 219.88 1158.21 219.88 1158.21 219.88C1156.81 219.88 1155.41 219.88 1154 219.88C1153.8 219.88 1153.6 219.88 1153.4 219.88C1147.39 220.081 1141.58 220.682 1136.17 221.684C1134.97 221.885 1133.97 222.085 1132.76 222.286C1132.56 222.286 1132.56 222.286 1132.36 222.286C1131.36 222.486 1130.36 222.687 1129.56 222.887C1129.36 222.887 1129.16 222.887 1128.96 223.087C1127.95 223.288 1126.95 223.689 1126.15 223.889H1125.95C1124.15 224.49 1122.34 225.092 1120.74 225.693H1120.54C1118.94 226.294 1117.33 226.896 1115.73 227.697C1115.53 227.697 1115.53 227.697 1115.33 227.898C1114.73 228.098 1113.93 228.499 1113.32 228.7C1098.49 232.909 1062.42 248.142 1062.42 248.142L1075.05 263.576C1071.84 268.988 1069.64 273.798 1068.24 277.406C1068.24 277.406 1044.99 277.807 1026.35 283.82C1026.15 283.82 1026.15 283.82 1025.95 284.021C1024.15 284.622 1022.14 285.424 1020.54 286.025C1020.34 286.025 1020.14 286.225 1019.94 286.225C1019.14 286.626 1018.34 287.027 1017.33 287.428L1035.57 297.249L1035.37 317.895C1035.37 317.895 1035.37 317.895 1035.57 317.895C1035.57 317.895 1035.57 317.895 1035.77 317.895C1035.97 317.895 1035.97 317.694 1036.17 317.694C1036.17 317.694 1036.37 317.494 1036.57 317.494C1036.57 317.494 1036.77 317.293 1036.97 317.293C1037.17 317.093 1037.57 316.892 1037.77 316.692C1037.98 316.692 1037.98 316.492 1038.18 316.492C1038.38 316.291 1038.58 316.091 1038.98 315.89C1038.98 315.89 1038.98 315.89 1039.18 315.89C1039.58 315.489 1040.18 315.088 1040.78 314.688C1040.98 314.487 1040.98 314.487 1041.18 314.287C1041.58 313.886 1042.18 313.485 1042.78 313.084C1042.99 312.884 1043.19 312.884 1043.39 312.683C1043.79 312.483 1043.99 312.282 1044.39 311.881C1044.79 311.681 1044.99 311.28 1045.39 311.08C1045.59 310.879 1045.79 310.679 1045.99 310.679C1054.21 304.265 1065.63 294.042 1071.84 283.62C1072.04 283.62 1072.04 283.62 1072.24 283.62C1073.04 283.62 1073.85 283.82 1074.65 283.82C1075.05 283.82 1075.65 283.82 1076.05 284.021C1076.85 284.021 1077.65 284.221 1078.46 284.221C1078.86 284.221 1079.26 284.221 1079.86 284.221C1080.66 284.221 1081.46 284.221 1082.26 284.221C1082.66 284.221 1083.06 284.221 1083.26 284.221C1084.27 284.221 1085.07 284.221 1086.07 284.221C1085.87 285.023 1086.07 285.023 1086.27 285.023Z" fill="#231F20" fill-opacity="0.1"/>
<path d="M622.954 393.66L645.599 353.573C645.599 353.573 643.595 400.074 663.835 399.072C683.073 398.07 719.746 379.429 737.982 362.392C740.386 361.189 742.992 359.786 745.196 358.383C745.196 361.189 744.795 367.804 739.986 376.222C739.986 376.222 754.414 361.59 757.621 348.963C758.622 347.96 759.424 347.159 760.426 346.156C760.426 346.156 762.831 355.377 759.825 362.592C759.825 362.592 768.041 348.361 766.638 337.738C768.041 335.132 769.243 332.727 770.245 330.121C775.656 313.485 784.073 310.879 792.89 302.862C801.708 294.844 793.492 294.243 793.492 294.243C786.678 294.043 761.027 293.241 755.416 281.215C750.607 270.792 740.988 262.774 728.763 258.966C647.403 206.05 613.536 282.618 612.534 298.853C610.93 325.712 635.98 334.932 636.18 334.932C636.581 336.936 636.982 338.74 637.583 340.544L606.522 331.925L593.496 328.317C593.095 328.518 603.315 375.821 622.954 393.66Z" fill="#231F20" fill-opacity="0.1"/>
<path d="M608.325 752.244C604.518 748.837 594.698 740.819 580.671 733.603C580.671 733.603 487.887 664.653 419.552 735.006C412.538 742.222 401.516 765.473 425.564 775.094H425.965C414.542 788.523 402.919 804.959 391.497 824.803C391.497 824.803 370.655 844.245 322.961 833.622C322.961 833.622 347.009 847.252 354.022 851.862L338.792 882.328C338.792 882.328 365.445 852.062 398.711 847.051C406.526 849.657 416.746 852.664 428.369 855.069C418.951 861.082 413.139 869.3 413.139 869.3C497.306 910.991 547.605 843.644 552.615 836.428C573.256 822.598 592.093 801.351 606.321 769.682C608.325 765.273 602.313 761.865 603.516 761.665C611.732 760.462 612.534 756.052 610.73 754.248C609.929 753.447 609.528 753.246 608.325 752.244Z" fill="#231F20" fill-opacity="0.1"/>
<path d="M785.476 615.746C785.476 615.746 789.283 613.742 789.083 610.936C788.682 604.722 783.672 606.927 783.672 606.927C783.672 606.927 769.043 614.543 740.787 601.114C735.777 598.709 730.968 597.105 726.158 596.304C724.355 595.702 669.246 575.057 639.387 588.286C639.387 588.286 671.45 607.729 667.242 641.202V641.402C667.242 642.404 667.042 643.407 666.841 644.409C666.641 646.213 666.44 647.816 666.44 649.62C666.44 656.034 666.04 661.646 665.438 666.056C660.629 665.054 655.819 664.653 651.01 664.653C629.968 664.853 608.927 674.074 595.5 681.089C608.325 683.895 619.948 691.913 626.762 704.34C635.78 720.575 634.377 739.817 624.758 754.249C636.381 748.236 662.432 733.203 676.661 710.954C678.865 707.346 680.869 703.538 682.472 699.73C695.097 706.745 711.129 714.562 724.956 718.17C744.996 723.582 741.99 742.824 741.99 742.824C765.837 722.179 780.666 654.431 781.067 652.627C787.279 636.792 789.684 622.561 789.885 617.751C789.684 615.345 785.476 615.746 785.476 615.746Z" fill="#231F20" fill-opacity="0.1"/>
<path d="M1433.16 193.022C1433.16 193.022 1425.34 194.425 1414.12 184.002C1412.12 182.198 1410.11 180.795 1408.11 179.592C1407.51 178.991 1384.86 161.553 1369.03 163.156C1369.03 163.156 1381.05 176.786 1374.24 191.819C1374.24 191.819 1374.24 191.819 1374.24 192.019C1374.04 192.42 1373.84 192.821 1373.64 193.222C1373.24 194.024 1373.04 194.826 1372.64 195.627C1371.64 198.634 1370.63 201.039 1369.83 203.044C1367.83 201.841 1365.62 201.039 1363.42 200.237C1353.6 197.231 1342.58 198.433 1335.36 199.837C1340.97 203.044 1345.18 208.455 1346.59 215.27C1348.39 224.09 1344.98 232.708 1338.37 238.12C1344.58 237.118 1359.01 233.911 1368.63 225.693C1370.23 224.29 1371.64 222.887 1372.84 221.283C1377.65 226.294 1384.06 232.308 1389.87 236.116C1398.49 241.528 1394.08 249.946 1394.08 249.946C1408.11 243.933 1424.94 214.669 1425.34 213.867C1430.55 207.453 1433.76 201.24 1434.56 199.035C1434.96 198.033 1432.96 197.632 1432.96 197.632C1432.96 197.632 1434.96 197.231 1435.36 196.028C1435.76 192.821 1433.16 193.022 1433.16 193.022Z" fill="#231F20" fill-opacity="0.1"/>
<path d="M838.18 543.187C838.982 540.983 839.984 538.978 840.986 537.174C846.396 527.353 854.011 520.538 854.011 520.538C873.65 509.313 890.884 493.078 895.293 469.827C896.696 470.228 898.099 470.428 899.101 469.827C899.301 469.827 901.706 468.625 900.103 466.219C899.702 465.618 899.101 465.217 898.299 465.217C897.297 465.017 897.497 465.217 897.698 464.415C897.898 463.814 897.698 463.012 897.297 462.411C895.493 460.206 893.489 462.01 893.489 462.211C892.487 463.012 892.287 464.215 892.087 465.818C883.87 463.413 861.426 459.605 835.575 477.444C835.575 477.444 812.93 490.673 791.287 495.082C788.682 495.684 786.077 496.085 783.472 496.285C783.472 496.285 801.708 517.13 779.464 541.784C774.254 545.593 767.24 548.599 758.823 549.401C754.815 549.401 751.008 549 747.601 549C741.389 548.8 736.579 549 734.575 551.405C738.583 551.806 742.591 553.009 745.998 555.013C749.605 557.018 752.611 559.824 755.216 563.432C760.226 570.447 761.428 579.066 759.224 586.883C761.428 586.081 763.232 583.275 764.835 579.266C766.438 575.458 768.041 570.647 769.845 565.637H770.045C777.26 551.405 790.285 544.791 798.101 541.985C821.748 534.969 838.18 543.187 838.18 543.187Z" fill="#231F20" fill-opacity="0.1"/>
<path d="M1338.77 256.561C1337.97 256.36 1338.17 256.561 1338.37 255.959C1338.57 255.559 1338.57 254.957 1338.37 254.556C1337.57 252.752 1335.96 253.955 1335.76 253.955C1334.96 254.356 1334.76 255.158 1334.36 256.16C1329.15 253.554 1314.52 248.343 1294.88 257.162C1294.88 257.162 1278.05 263.376 1263.02 263.777C1261.22 263.777 1259.41 263.777 1257.61 263.576C1257.61 263.576 1267.43 279.812 1249.39 293.642C1245.39 295.446 1240.38 296.849 1234.56 296.248C1231.96 295.646 1229.35 295.045 1227.15 294.644C1223.14 293.842 1219.73 293.241 1218.13 294.644C1220.74 295.446 1223.34 296.648 1225.35 298.452C1227.55 300.256 1229.35 302.461 1230.56 305.267C1232.96 310.679 1232.76 316.492 1230.56 321.503C1232.16 321.302 1233.76 319.498 1235.17 317.093C1236.77 314.688 1238.37 311.681 1240.17 308.474C1246.79 299.855 1256.41 296.849 1261.82 295.847C1278.45 294.444 1288.47 301.86 1288.47 301.86C1289.27 300.457 1290.07 299.254 1291.08 298.051C1295.89 292.038 1301.9 288.43 1301.9 288.43C1316.53 283.219 1329.95 274.4 1335.56 259.367C1336.57 259.768 1337.37 260.169 1338.17 259.768C1338.37 259.768 1340.17 259.166 1339.37 257.363C1339.77 256.962 1339.37 256.761 1338.77 256.561Z" fill="#231F20" fill-opacity="0.1"/>
<path d="M226.771 857.875C226.771 857.875 220.558 849.857 195.709 843.443L199.918 855.871C183.685 856.271 165.85 859.278 146.612 866.895C146.612 866.895 135.39 861.483 113.948 855.871C106.934 854.067 98.9178 852.263 89.6996 850.459L105.13 868.498L86.894 881.527C86.894 881.527 125.37 885.134 145.61 878.52C156.432 884.934 175.469 894.154 199.116 898.764L197.914 915.2C205.729 913.797 225.969 901.771 226.771 901.37C246.209 901.37 267.652 897.161 289.896 886.137C290.096 885.936 266.249 864.489 226.771 857.875Z" fill="#231F20" fill-opacity="0.1"/>
<path d="M-86.2484 382.035H-86.048H-85.8476H-85.6472C-85.4468 382.035 -85.4468 382.035 -85.2464 382.035C-85.046 382.035 -85.046 382.035 -84.8456 382.035C-84.6452 382.035 -84.6452 382.035 -84.4448 382.035C-84.2444 382.035 -84.2444 382.035 -84.044 382.035C-83.8436 382.035 -83.6432 382.035 -83.4428 382.035C-83.2424 382.035 -83.042 382.035 -82.8416 382.035C-82.6412 382.035 -82.4409 382.035 -82.2405 382.035C-82.0401 382.035 -81.8397 382.035 -81.6393 382.035C-81.4389 382.035 -81.2385 382.035 -81.0381 382.035C-80.8377 382.035 -80.6373 382.035 -80.2365 382.035C-80.0361 382.035 -79.8357 382.035 -79.4349 382.035C-79.2345 382.035 -78.8337 382.035 -78.6333 382.035C-78.4329 382.035 -78.2325 382.035 -78.0321 382.035C-77.6313 382.035 -77.2305 382.035 -76.8297 382.035C-76.6293 382.035 -76.429 382.035 -76.2286 382.035C-75.6274 382.035 -75.0262 382.035 -74.6254 382.035C-74.6254 382.035 -74.6254 382.035 -74.425 382.035C-62.0004 382.436 -43.1632 382.436 -31.1394 378.427C-20.9192 384.44 -2.8835 393.259 19.5609 397.469L18.5589 413.103C25.9736 411.7 45.2116 400.275 46.0132 400.074C64.4497 400.074 84.6897 396.066 105.731 385.643C105.731 385.643 83.0865 365.399 45.8128 359.185C45.8128 359.185 39.8009 351.568 16.5549 345.555L20.5629 357.381C5.33276 357.782 -11.7009 360.788 -29.937 367.804C-29.937 367.804 -40.558 362.793 -60.798 357.381C-61.5996 357.181 -62.4012 356.98 -63.4032 356.78C-64.2048 356.579 -65.0064 356.379 -66.0083 356.178C-67.6115 355.778 -69.2147 355.377 -70.8179 354.976C-71.0183 354.976 -71.419 354.775 -71.6194 354.775C-73.423 354.374 -75.2266 353.974 -77.0301 353.573C-77.2305 353.573 -77.4309 353.573 -77.6313 353.372C-79.6353 352.971 -81.8397 352.571 -84.044 352.17L-69.4151 369.207L-86.6492 381.434C-86.4488 382.035 -86.4488 382.035 -86.2484 382.035Z" fill="#231F20" fill-opacity="0.1"/>
<path d="M1086.27 180.795C1086.27 180.996 1086.27 180.996 1086.27 180.795C1084.47 181.396 1082.66 181.998 1080.86 182.599C1080.66 182.599 1080.66 182.599 1080.46 182.8C1078.66 183.401 1076.85 184.002 1075.05 184.604C1074.85 184.604 1074.85 184.603 1074.65 184.804C1072.84 185.405 1070.84 186.207 1068.84 187.009L1090.08 194.024L1081.66 213.467C1081.66 213.467 1081.86 213.467 1082.06 213.266C1082.06 213.266 1082.26 213.266 1082.26 213.066C1082.26 213.066 1082.46 213.066 1082.46 212.865C1082.66 212.865 1082.66 212.665 1082.86 212.665H1083.06C1083.26 212.665 1083.47 212.464 1083.67 212.464C1083.87 212.464 1083.87 212.264 1084.07 212.264C1084.27 212.264 1084.47 212.064 1084.67 212.064C1084.87 212.064 1084.87 211.863 1085.07 211.863C1085.27 211.663 1085.47 211.663 1085.67 211.462C1085.87 211.462 1085.87 211.262 1086.07 211.262C1086.27 211.061 1086.47 211.061 1086.87 210.861C1087.07 210.861 1087.27 210.66 1087.47 210.66C1087.67 210.46 1088.07 210.46 1088.27 210.26C1088.48 210.059 1088.68 210.059 1088.88 209.859C1089.08 209.658 1089.48 209.658 1089.68 209.458C1089.88 209.257 1090.08 209.257 1090.48 209.057C1090.68 208.857 1090.88 208.857 1091.28 208.656C1091.68 208.456 1092.08 208.255 1092.28 208.055C1092.48 208.055 1092.68 207.854 1092.88 207.854C1103.71 201.841 1119.74 192.02 1127.95 182.198C1139.98 181.998 1159.82 180.194 1181.26 172.176L1188.47 186.007C1194.08 180.996 1204.7 161.353 1205.11 160.551C1220.74 150.93 1236.17 137.1 1248.59 117.056C1248.59 117.056 1218.73 111.444 1183.66 125.474C1183.66 125.474 1174.65 122.067 1151.6 129.082L1161.22 137.1C1148.39 145.318 1135.37 156.743 1123.54 172.176C1123.14 172.176 1109.32 173.579 1086.27 180.795Z" fill="#231F20" fill-opacity="0.1"/>
<path d="M1041.78 232.909C1016.33 227.898 1008.12 222.887 984.469 230.303C982.465 226.896 979.059 224.891 973.848 225.092C970.041 225.092 965.632 226.294 960.222 228.7C956.614 230.303 952.807 232.508 948.398 235.114C944.39 237.719 939.981 240.926 935.172 244.735C931.765 247.541 928.158 250.548 924.351 253.955C920.743 257.162 917.136 260.77 913.128 264.578C909.722 267.986 906.114 271.794 902.307 275.803C899.702 278.609 896.896 281.615 894.091 284.822L911.325 288.831C906.916 294.443 902.507 300.056 898.099 305.468C879.061 305.067 858.019 302.461 845.996 310.278L880.063 322.304L871.847 356.98C885.674 350.967 893.089 331.925 902.708 315.69C912.327 314.086 925.553 311.681 940.182 307.873L926.154 323.507C927.357 323.707 951.604 325.311 960.422 301.86C998.898 289.232 1038.38 267.986 1041.78 232.909Z" fill="#231F20" fill-opacity="0.1"/>
</g>
<defs>
<clipPath id="clip0_257_505">
<rect width="1719" height="915" fill="white" transform="translate(-264)"/>
</clipPath>
</defs>
</svg>
