<svg width="48" height="48" viewBox="0 0 48 48" fill="none" xmlns="http://www.w3.org/2000/svg">
<rect width="47.1724" height="48" rx="12" fill="white"/>
<ellipse cx="24.0005" cy="23.9995" rx="11.9077" ry="11.9077" fill="white"/>
<g clip-path="url(#clip0_725_2836)">
<path d="M6.04211 26.203C6.04211 25.6823 6.03301 25.2464 6.00488 24.8564H6.98963L7.03637 25.5256H7.06367C7.28659 25.1723 7.69521 24.7538 8.45704 24.7538C9.05178 24.7538 9.51583 25.0888 9.71104 25.5901H9.73006C9.88806 25.3394 10.0733 25.1533 10.2868 25.0239C10.5378 24.8469 10.8265 24.7538 11.1975 24.7538C11.9502 24.7538 12.7112 25.2646 12.7112 26.7146V29.3798H11.5966V26.8809C11.5966 26.129 11.3364 25.6823 10.7884 25.6823C10.3984 25.6823 10.1102 25.9619 9.9898 26.287C9.95631 26.411 9.93757 26.5386 9.93396 26.6671V29.3802H8.81935V26.7597C8.81935 26.1294 8.56871 25.6827 8.03891 25.6827C7.6125 25.6827 7.32464 26.0177 7.22124 26.3329C7.17534 26.4445 7.15631 26.5752 7.15631 26.7043V29.3802H6.04211V26.203ZM17.0543 28.2937C17.0543 28.7019 17.0729 29.101 17.1188 29.3802H16.0877L16.0137 28.8789H15.9856C15.7068 29.2321 15.2328 29.4819 14.6489 29.4819C13.7381 29.4819 13.2274 28.8231 13.2274 28.1353C13.2274 26.9917 14.239 26.4168 15.912 26.4259V26.3519C15.912 26.0541 15.7908 25.5619 14.9917 25.5619C14.5455 25.5619 14.0814 25.7017 13.775 25.8961L13.552 25.1529C13.8866 24.9482 14.4718 24.7534 15.1865 24.7534C16.6361 24.7534 17.0547 25.674 17.0547 26.6575L17.0543 28.2937ZM15.9393 27.17C15.1307 27.1509 14.3602 27.3276 14.3602 28.0149C14.3602 28.4608 14.6489 28.6655 15.0107 28.6655C15.4653 28.6655 15.8003 28.3673 15.9024 28.0426C15.9275 27.9615 15.94 27.877 15.9397 27.792V27.17H15.9393ZM17.8434 26.203C17.8434 25.6823 17.8339 25.2464 17.807 24.8564H18.8091L18.8646 25.5355H18.8927C19.0875 25.1819 19.5801 24.7538 20.3324 24.7538C21.1223 24.7538 21.9392 25.2646 21.9392 26.696V29.3798H20.7968V26.8259C20.7968 26.1757 20.5549 25.6819 19.9329 25.6819C19.4783 25.6819 19.1615 26.0074 19.0412 26.3515C19.0039 26.4532 18.9948 26.593 18.9948 26.7221V29.3794H17.843L17.8434 26.203ZM26.8931 23.0391V28.1076C26.8931 28.572 26.9121 29.0745 26.9303 29.3802H25.9092L25.8625 28.6655H25.8434C25.5746 29.1668 25.0258 29.4823 24.3669 29.4823C23.2891 29.4823 22.4351 28.5629 22.4351 27.1704C22.4251 25.6558 23.3722 24.7542 24.46 24.7542C25.082 24.7542 25.5279 25.0144 25.7322 25.3502H25.7516V23.0395H26.8935V23.0391H26.8931ZM25.7512 26.7419C25.7512 26.6497 25.7421 26.538 25.7231 26.4445C25.6209 25.9995 25.2594 25.6368 24.7387 25.6368C24.005 25.6368 23.5956 26.2874 23.5956 27.1323C23.5956 27.9583 24.0046 28.5625 24.7296 28.5625C25.1933 28.5625 25.6023 28.2461 25.7136 27.754C25.7417 27.6522 25.7516 27.5401 25.7516 27.4198V26.7419H25.7512ZM27.7013 29.3802V24.8564H28.8539V29.3802H27.7013ZM29.6613 26.3151C29.6613 25.7022 29.6526 25.265 29.6249 24.8568H30.6187L30.6551 25.7199H30.6927C30.9157 25.0793 31.4446 24.8568 31.929 24.8568C32.0402 24.8568 32.1047 24.8378 32.1974 24.8568V25.8606C32.0878 25.8363 31.9759 25.8238 31.8636 25.8233C31.3144 25.8233 30.943 26.1765 30.8412 26.6865C30.8187 26.8032 30.8064 26.9217 30.8044 27.0405V29.3806H29.6613V26.3151ZM32.7276 29.3802V24.8564H33.8786V29.3802H32.7276Z" fill="#0D2B5B"/>
<path d="M41.0488 20.0728C40.4784 19.4223 39.8721 19.7167 39.3903 19.9562C39.1876 20.0563 37.7248 20.8855 37.7248 20.8855C36.9232 21.216 36.2991 20.8553 36.0543 20.5518C36.0309 20.523 36.0097 20.4924 35.991 20.4604L35.9339 20.3615C35.8375 20.1947 35.7302 20.0343 35.613 19.8813C35.5418 19.7886 35.4647 19.7006 35.3822 19.6179C34.8338 19.0641 33.9574 18.6766 32.4925 19.3805C31.7989 19.7825 29.5394 21.0733 29.5394 21.0733C28.6904 21.4228 28.041 20.9972 27.8301 20.6849C27.8206 20.6733 27.8123 20.6606 27.8053 20.6473L27.7776 20.6002L27.6345 20.3661C27.5699 20.2635 27.5006 20.164 27.4268 20.0679C27.355 19.9758 27.2778 19.8879 27.1956 19.8048C26.651 19.2543 25.7791 18.8676 24.327 19.5583C23.449 20.0596 21.4067 21.2272 21.4067 21.2272L21.4058 21.228L19.9111 22.082L20.6845 23.0316C21.01 23.3418 21.6217 23.8505 22.568 23.4217C22.568 23.4217 25.1798 21.9092 25.1902 21.9046C27.4231 20.6792 28.5249 21.85 29.0121 22.6305C29.0291 22.6549 29.0427 22.6813 29.058 22.7049L29.0589 22.7061C29.0651 22.7157 29.0688 22.7243 29.0742 22.7334L29.1292 22.8236C29.3666 23.1834 29.7409 23.4159 30.1871 23.4051C30.4332 23.4001 30.6003 23.3199 30.8435 23.1847L33.3705 21.7189L33.3759 21.7164C35.637 20.4761 36.7574 21.7235 37.2359 22.5039C37.2731 22.5713 37.3153 22.6358 37.3587 22.6958C37.5957 23.0172 37.9225 23.2277 38.3377 23.2173C38.6119 23.212 38.9192 23.0474 38.9651 23.0172L41.9946 21.2685C41.9955 21.2693 41.6861 20.8016 41.0488 20.0728Z" fill="#FDD213"/>
</g>
<defs>
<clipPath id="clip0_725_2836">
<rect width="36" height="10.4832" fill="white" transform="translate(6 19)"/>
</clipPath>
</defs>
</svg>
