<svg width="92" height="66" viewBox="0 0 92 66" fill="none" xmlns="http://www.w3.org/2000/svg">
<path d="M59 65.5H0.5V46C3.94781 46 7.25442 44.6304 9.69239 42.1924C12.1304 39.7544 13.5 36.4478 13.5 33C13.5 29.5522 12.1304 26.2456 9.69239 23.8076C7.25442 21.3696 3.94781 20 0.5 20V0.5H59V16.75H65.5V0.5H91.5V20C88.0522 20 84.7456 21.3696 82.3076 23.8076C79.8696 26.2456 78.5 29.5522 78.5 33C78.5 36.4478 79.8696 39.7544 82.3076 42.1924C84.7456 44.6304 88.0522 46 91.5 46V65.5H65.5V49.25H59V65.5ZM59 23.25V42.75H65.5V23.25H59Z" fill="white"/>
</svg>
